<svg height="512" viewBox="0 0 64 64" width="512" xmlns="http://www.w3.org/2000/svg"><g id="Artboard_28" data-name="Artboard 28"><path d="m14 40 28-28 10 10-28 28 1.98 1.98-3 3-13.98-13.98 3-3z" fill="#a9e3e2"/><path d="m41 33h-20l-7 7 10 10z" fill="#eef9f9" opacity=".8"/><path d="m26.83 41.17 22.17-22.17-7-7-25 25 4.17 4.17a4 4 0 0 0 5.66 0z" fill="#fff" opacity=".4"/><path d="m8.05 48.88h9.9v4.24h-9.9z" fill="#a9e3e2" transform="matrix(.707 -.707 .707 .707 -32.25 24.13)"/><path d="m5.88 49.64h4.24v12.73h-4.24z" fill="#016574" transform="matrix(.707 -.707 .707 .707 -37.25 22.06)"/><path d="m46.17 12.17h5.66v5.66h-5.66z" fill="#2ba09f" transform="matrix(.707 -.707 .707 .707 3.75 39.04)"/><path d="m48.72 6.5h15.56v2h-15.56z" fill="#d5d6d8" transform="matrix(.707 -.707 .707 .707 11.25 42.15)"/><g fill="#016574"><path d="m32.5 28.55h2v9.9h-2z" transform="matrix(.707 -.707 .707 .707 -13.88 33.5)"/><path d="m40.5 20.55h2v9.9h-2z" transform="matrix(.707 -.707 .707 .707 -5.88 36.81)"/><path d="m38 28.17h2v5.66h-2z" transform="matrix(.707 -.707 .707 .707 -10.5 36.66)"/><path d="m24.5 36.55h2v9.9h-2z" transform="matrix(.707 -.707 .707 .707 -21.88 30.19)"/><path d="m30 36.17h2v5.66h-2z" transform="matrix(.707 -.707 .707 .707 -18.5 33.34)"/><path d="m46 20.17h2v5.66h-2z" transform="matrix(.707 -.707 .707 .707 -2.5 39.97)"/></g><path d="m13.59 48.59-.59-.59-5 5 2 2 3.59-3.59a2 2 0 0 0 0-2.82z" fill="#fff" opacity=".4"/><path d="m5 50-2 2 6.59 6.59a2 2 0 0 0 2.82 0l.59-.59z" fill="#348490"/><path d="m15.37 36.6h4.24v19.78h-4.24z" fill="#016574" transform="matrix(.707 -.707 .707 .707 -27.75 25.99)"/><path d="m49 11-3 3 1.59 1.59a2 2 0 0 0 2.82 0l1.59-1.59z" fill="#55b3b2"/><circle cx="17" cy="17" fill="#2ba09f" r="15"/><circle cx="17" cy="17" fill="#a9e3e2" r="13"/><path d="m27 16h5v2h-5z" fill="#016574"/><path d="m16 2h2v5h-2z" fill="#016574"/><path d="m2 16h5v2h-5z" fill="#016574"/><path d="m16 27h2v5h-2z" fill="#016574"/><path d="m18 9h-2v8a1 1 0 0 0 1 1h6v-2h-5z" fill="#016574"/><path d="m60 10-1.66 2.58a2.12 2.12 0 0 0 -.34 1.15v1.2a2.08 2.08 0 0 0 1.11 1.85 1.93 1.93 0 0 0 1.78 0 2.08 2.08 0 0 0 1.11-1.85v-1.2a2.12 2.12 0 0 0 -.34-1.15z" fill="#a9e3e2"/><ellipse cx="60.65" cy="13.1" fill="#fff" rx=".73" ry="1.63" transform="matrix(.866 -.5 .5 .866 1.58 32.08)"/></g><g id="Layer_33" data-name="Layer 33"><path d="m52.41 13 10.3-10.29-1.42-1.42-10.29 10.3-1.29-1.3a1 1 0 0 0 -1.42 0l-3.29 3.3-2.29-2.3a1 1 0 0 0 -1.42 0l-8.56 8.57a15.85 15.85 0 0 0 .27-2.86 16 16 0 1 0 -16 16 15.85 15.85 0 0 0 2.86-.27l-5.86 5.86-1.29-1.3a1 1 0 0 0 -1.42 0l-3 3a1 1 0 0 0 0 1.42l4.8 4.79-5.09 5.09-2.29-2.3a1 1 0 0 0 -1.42 0l-3 3a1 1 0 0 0 0 1.42l9 9a1 1 0 0 0 1.42 0l3-3a1 1 0 0 0 0-1.42l-2.3-2.29 5.09-5.09 4.78 4.78a1 1 0 0 0 1.41 0l3-3a1 1 0 0 0 0-1.41l-1.28-1.28 27.3-27.29a1 1 0 0 0 0-1.42l-2.3-2.29 3.3-3.29a1 1 0 0 0 0-1.42zm-49.36 5h3.95v-2h-3.95a14 14 0 0 1 12.95-12.95v3.95h2v-3.95a14 14 0 0 1 13 12.95h-4v2h4a14 14 0 0 1 -13 13v-4h-2v4a14 14 0 0 1 -12.95-13zm8 42.59-7.64-7.59 1.59-1.59 7.59 7.59zm0-6-1.64-1.59 5.09-5.09 1.59 1.59zm12.29-3.88 1.23 1.29-1.57 1.57-12.59-12.57 1.59-1.59 8.29 8.3 1.42-1.42-6.3-6.29 6-6h11.18l3 3-2.59 2.59-3.29-3.3-1.42 1.42 3.3 3.29-2.59 2.59-6.29-6.3-1.42 1.42 6.3 6.29-4.3 4.29a1 1 0 0 0 0 1.42zm12.07-16.71h3.18l-1.59 1.59zm13.59-10.41-3.29-3.3-1.42 1.42 3.3 3.29-2.59 2.59-6.29-6.3-1.42 1.42 6.3 6.29-2.59 2.59-3.29-3.3-1.42 1.42 2.3 2.29h-5.18l-2.7-2.71-1.42 1.42 1.3 1.29h-7.18l.68-.68a16.11 16.11 0 0 0 7.23-7.23l10.68-10.68 8.59 8.59zm0-6-2.59-2.59 2.59-2.59 2.59 2.59z"/><path d="m62.5 12-1.66-2.54a1 1 0 0 0 -1.68 0l-1.66 2.54a3.07 3.07 0 0 0 -.5 1.69v1.2a3.07 3.07 0 0 0 1.65 2.74 2.93 2.93 0 0 0 2.7 0 3.07 3.07 0 0 0 1.65-2.7v-1.2a3.07 3.07 0 0 0 -.5-1.73zm-1.5 2.93a1.06 1.06 0 0 1 -.57 1 .9.9 0 0 1 -.87 0 1.07 1.07 0 0 1 -.56-1v-1.2a1 1 0 0 1 .18-.6l.82-1.28.82 1.27a1.09 1.09 0 0 1 .18.61z"/><path d="m17 18h6v-2h-5v-7h-2v8a1 1 0 0 0 1 1z"/></g></svg>