<svg id="Layer_1" enable-background="new 0 0 473.188 466.416" height="512" viewBox="0 0 473.188 466.416" width="512" xmlns="http://www.w3.org/2000/svg"><g><path d="m436.3 45.493c-18.721-20.146-44.574-36.063-72.797-44.819-1.466-.454-2.964-.674-4.443-.674-4.792 0-9.407 2.302-12.269 6.369-3.745 5.323-3.631 12.454.284 17.654 13.553 18.001 22.476 33.217 26.521 45.226 2.552 7.574 3.028 13.606 1.342 16.987-2.423 4.857-12.031 7.757-25.7 7.757-10.468 0-19.402-1.727-19.489-1.744-.979-.196-1.964-.291-2.94-.291-4.49 0-8.808 2.02-11.688 5.599-13.194 16.404-14.312 31.575-12.925 41.413 3.307 23.46 22.758 37.763 24.965 39.316 1.634 1.149 3.479 1.961 5.431 2.388.768.168 19.068 4.113 41.554 4.113 22.79 0 41.835-3.993 56.605-11.868 21.491-11.458 33.556-30.98 34.89-56.454 1.258-24.052-9.161-49.257-29.341-70.972z" fill="#5e0434"/><path d="m146.38 91.958c-.977 0-1.96.095-2.94.291-.064.013-9.006 1.744-19.489 1.744-13.67 0-23.277-2.9-25.701-7.757-1.687-3.381-1.21-9.414 1.341-16.987 4.045-12.008 12.969-27.225 26.521-45.226 3.915-5.2 4.03-12.331.284-17.654-2.861-4.067-7.477-6.369-12.268-6.369-1.48 0-2.976.219-4.443.674-28.223 8.756-54.076 24.673-72.797 44.819-20.179 21.715-30.599 46.92-29.339 70.972 1.333 25.474 13.398 44.995 34.889 56.454 14.77 7.875 33.815 11.868 56.605 11.868 22.485 0 40.786-3.945 41.554-4.113 1.951-.427 3.797-1.239 5.43-2.388 2.208-1.554 21.659-15.856 24.965-39.316 1.387-9.837.27-25.008-12.925-41.413-2.879-3.579-7.197-5.599-11.687-5.599z" fill="#5e0434"/><path d="m326.809 106.958s119.46 23.879 32.25-91.957c52.344 16.238 93.798 58.742 91.602 100.679-3.906 74.595-114.865 50.34-114.865 50.34s-36.07-25.391-8.987-59.062z" fill="#fbbba1"/><path d="m146.379 106.958s-119.459 23.879-32.25-91.957c-52.343 16.238-93.797 58.742-91.601 100.679 3.906 74.595 114.865 50.34 114.865 50.34s36.07-25.391 8.986-59.062z" fill="#fbbba1"/><path d="m470.624 179.608c-.343-.507-8.538-12.574-21.815-24.846-18.772-17.35-38.089-26.648-57.414-27.635-2.173-.112-4.374-.168-6.537-.168-19.818 0-38.554 4.739-52.756 13.345-16.48 9.987-25.783 24.29-26.194 40.274-.425 16.602 8.775 32.152 25.906 43.787 14.998 10.187 34.844 16.39 55.881 17.467 1.123.058 2.265.087 3.395.087 43.567 0 77.504-42.874 78.927-44.699 3.992-5.12 4.238-12.229.607-17.612z" fill="#5e0434"/><path d="m141.085 140.305c-14.203-8.606-32.938-13.346-52.755-13.346-2.164 0-4.365.057-6.542.168-19.32.987-38.637 10.285-57.409 27.635-13.278 12.272-21.473 24.338-21.815 24.846-3.631 5.384-3.386 12.492.608 17.612 1.423 1.825 35.363 44.698 78.927 44.698 1.129 0 2.271-.029 3.394-.087 21.038-1.077 40.884-7.28 55.882-17.467 17.131-11.635 26.331-27.185 25.906-43.785-.412-15.985-9.714-30.287-26.196-40.274z" fill="#5e0434"/><path d="m390.63 142.107c37.916 1.937 67.559 45.888 67.559 45.888s-31.813 40.793-69.728 38.857c-37.908-1.941-68.157-22.484-67.559-45.888.603-23.408 31.827-40.805 69.728-38.857z" fill="#ef8d44"/><path d="m381.245 168.625c20.907 1.068 47.252 25.303 47.252 25.303s-27.542 22.494-48.448 21.426c-20.902-1.07-37.582-12.397-37.252-25.303.332-12.908 17.549-22.501 38.448-21.426z" fill="#fbbba1"/><path d="m82.559 142.107c-37.916 1.937-67.559 45.888-67.559 45.888s31.813 40.793 69.727 38.857c37.908-1.941 68.158-22.484 67.558-45.888-.601-23.408-31.825-40.805-69.726-38.857z" fill="#ef8d44"/><path d="m91.943 168.625c-20.907 1.068-47.252 25.303-47.252 25.303s27.542 22.494 48.448 21.426c20.903-1.07 37.583-12.397 37.252-25.303-.332-12.908-17.549-22.501-38.448-21.426z" fill="#fbbba1"/><path d="m401.381 215.164c-.072-.203-.148-.403-.229-.603-8.631-23.89-22.447-43.415-28.689-51.536-.659-7.083-2.573-20.096-8.114-33.17-11.517-27.175-33.31-42.142-61.362-42.142h-132.784c-28.053 0-49.846 14.967-61.363 42.142-5.54 13.072-7.454 26.084-8.113 33.168-5.809 7.553-18.172 24.965-26.809 46.556-6.972 17.429-10.117 34.067-9.348 49.448 1.001 20.023 8.512 37.627 22.328 52.333l7.765 9.344c.043.321.089.641.135.959 2.39 16.305 9.016 32.953 19.711 49.543.629 13.207 4.571 37.788 23.423 58.933 21.463 24.072 54.659 36.278 98.663 36.278s77.199-12.206 98.662-36.278c18.853-21.144 22.794-45.726 23.423-58.933 10.694-16.59 17.32-33.238 19.71-49.543.046-.317.091-.637.135-.957l7.767-9.346c23.423-24.935 28.641-58.184 15.089-96.196z" fill="#5e0434"/><path d="m387.253 220.202-.008.017c-10.345-29.031-29.438-51.515-29.438-51.515s-1.111-65.991-54.821-65.991h-132.783c-53.709 0-54.822 65.991-54.822 65.991s-67.679 79.621-17.251 132.702l10.954 13.181c.136 1.626.315 3.259.556 4.9 2.24 15.286 8.885 31.094 19.768 47.043-.066 10.229 1.957 33.701 19.721 53.625 18.495 20.744 47.923 31.262 87.466 31.262 39.544 0 68.972-10.518 87.467-31.262 17.765-19.924 19.787-43.396 19.721-53.625 10.882-15.949 17.525-31.755 19.766-47.042.24-1.643.426-3.276.559-4.902l10.953-13.18c23.637-24.884 21.322-55.595 12.192-81.204z" fill="#ef8d44"/><path d="m291.469 260.431c-21.125 10.023-35.982 21.4-54.875 21.555-18.892-.154-33.75-11.531-54.875-21.555-33.12-15.715-91.803 30.017-39.585 102.376 0 0-8.743 76.052 94.46 76.052s94.459-76.052 94.459-76.052c52.219-72.359-6.464-118.091-39.584-102.376z" fill="#fbbba1"/><path d="m308.844 296.181c6.939 9.824 4.913 23.195-4.528 29.863-9.439 6.67-28.587 9.982-35.527.158-6.94-9.822.955-29.063 10.396-35.73 9.44-6.67 22.719-4.114 29.659 5.709z" fill="#5e0434"/><path d="m164.344 296.181c-6.94 9.824-4.913 23.195 4.528 29.863 9.44 6.67 28.588 9.982 35.528.158 6.941-9.822-.955-29.063-10.395-35.73-9.442-6.67-22.721-4.114-29.661 5.709z" fill="#5e0434"/><path d="m342.604 246.151c15.797.57 28.396 6.626 28.147 13.522-.251 6.894-13.255 12.021-29.051 11.45-15.794-.571-28.396-6.625-28.146-13.522.251-6.898 13.26-12.024 29.05-11.45z" fill="#ff4076"/><path d="m159.471 259.279c.602 6.875-11.675 13.563-27.42 14.937-15.745 1.375-28.994-3.085-29.596-9.956-.599-6.873 11.678-13.561 27.42-14.938 15.746-1.376 28.996 3.081 29.596 9.957z" fill="#ff4076"/><path d="m285.06 61.009c-5.736-7.987-14.763-12.378-25.427-12.378h-.001c-.82 0-1.661.026-2.498.078-6.873.424-19.057 3.272-45.425 23.026-13.295 9.96-24.101 19.646-24.554 20.053-3.068 2.758-4.964 10.636-4.964 10.636l23.701-.131s19.663 43.604 50.292 41.025c13.771-1.16 22.655-12.101 24.665-23.742.759-4.385.388-8.907-.923-13.122 12.605-13.391 14.714-32.067 5.134-45.445z" fill="#5e0434"/><path d="m197.18 102.946s42.435-38.127 60.875-39.265c8.281-.509 12.62 3.013 14.81 6.062 5.354 7.477 3.762 18.352-3.877 26.448-2.739 2.897-5.988 5.324-9.12 7.28l.705.431c3.385 2.195 6.46 7.542 5.494 13.124-.573 3.32-3.083 9.257-13.458 11.726-28.138 7.108-55.855-25.473-55.429-25.806z" fill="#ef8d44"/><path d="m264.037 71.937c1.969 3.41-4.037 10.562-13.413 15.976-9.377 5.414-18.574 7.038-20.542 3.628-1.969-3.41 4.037-10.563 13.413-15.976s18.574-7.038 20.542-3.628z" fill="#fbbba1"/><path d="m226.691 95.228c1.033 1.79-.316 4.503-3.014 6.061s-5.723 1.37-6.756-.42.316-4.503 3.015-6.061c2.697-1.558 5.721-1.37 6.755.42z" fill="#fbbba1"/><path d="m446.279 355.106c-2.569-4.946-6.223-9.102-10.659-12.212-1.491-13.043-10.478-24.601-23.62-28.757-3.347-1.059-6.813-1.595-10.303-1.595-9.633 0-18.511 3.996-24.811 10.663 0 0-73.981-17.566-81.823-4.734s47.791 63.2 47.791 63.2c-3.901 17.137 5.966 34.741 23.015 40.133 3.345 1.058 6.81 1.594 10.297 1.594 4.186 0 8.327-.782 12.207-2.269 1.198.538 2.431 1.008 3.697 1.408 3.347 1.059 6.813 1.595 10.305 1.595 14.964 0 28.051-9.591 32.566-23.866.137-.433.265-.867.384-1.304 6.193-4.273 10.909-10.529 13.211-17.809 2.75-8.698 1.95-17.949-2.257-26.047z" fill="#5e0434"/><path d="m422.043 351.631c-.255-.08-.511-.13-.766-.2 2.471-10.209-3.334-20.73-13.499-23.945-10.571-3.343-21.841 2.48-25.252 13.011l-96.324-38.143s-15.054 3.438-10.733 18.559l85.073 55.595c-2.19 2.676-3.742 5.977-4.322 9.768-1.373 8.977 3.63 17.923 11.984 21.482 7.251 3.09 15.08 1.638 20.644-2.856 2.396 2.172 5.34 3.822 8.744 4.652 10.063 2.455 20.585-3.342 23.886-13.159.726-2.158 1.058-4.349 1.05-6.5 5.822-2.013 10.659-6.636 12.659-12.961 3.357-10.617-2.528-21.945-13.144-25.303z" fill="#f3f3f3"/><path d="m26.91 355.106c2.569-4.946 6.223-9.102 10.659-12.212 1.491-13.043 10.478-24.601 23.62-28.757 3.347-1.059 6.812-1.595 10.303-1.595 9.633 0 18.511 3.996 24.811 10.663 0 0 73.982-17.566 81.823-4.734 7.842 12.832-47.791 63.2-47.791 63.2 3.901 17.137-5.966 34.741-23.015 40.133-3.345 1.058-6.81 1.594-10.297 1.594-4.186 0-8.327-.782-12.207-2.269-1.198.538-2.431 1.008-3.697 1.408-3.347 1.059-6.813 1.595-10.305 1.595-14.964 0-28.051-9.591-32.566-23.866-.137-.433-.265-.867-.384-1.304-6.193-4.273-10.909-10.529-13.211-17.809-2.751-8.698-1.95-17.949 2.257-26.047z" fill="#5e0434"/><path d="m51.145 351.631c.254-.08.511-.13.766-.2-2.471-10.209 3.333-20.73 13.499-23.945 10.571-3.343 21.841 2.48 25.252 13.011l96.324-38.143s15.053 3.438 10.732 18.559l-85.073 55.595c1.566 1.913 2.806 4.145 3.597 6.646 3.357 10.617-2.528 21.945-13.144 25.302-6.698 2.118-13.674.552-18.758-3.555-2.084 1.89-4.584 3.385-7.442 4.288-10.617 3.357-21.945-2.527-25.302-13.144-.646-2.045-.943-4.115-.936-6.151-5.822-2.013-10.659-6.636-12.659-12.961-3.357-10.616 2.528-21.944 13.144-25.302z" fill="#f3f3f3"/><g fill="#5e0434"><path d="m270.321 250.667c4.34 2.671 9.458 4.229 14.909 4.229 5.341 0 10.348-1.447 14.688-4.117 4.228-2.559 7.788-6.23 10.235-10.681 2.226-4.006.668-9.124-3.338-11.35-4.005-2.225-9.123-.667-11.349 3.338-1.001 1.781-2.447 3.338-4.228 4.451-1.78 1.112-3.783 1.669-6.009 1.669-2.225 0-4.339-.668-6.119-1.669-1.78-1.113-3.227-2.671-4.228-4.563-2.114-4.116-7.232-5.675-11.238-3.561-4.116 2.114-5.674 7.232-3.561 11.238 2.449 4.676 6.01 8.347 10.238 11.016z"/><path d="m181.519 250.667c4.338 2.671 9.458 4.229 14.908 4.229 5.341 0 10.348-1.447 14.687-4.117 4.228-2.559 7.788-6.23 10.236-10.681 2.226-4.006.668-9.124-3.338-11.35-4.006-2.225-9.124-.667-11.349 3.338-1.001 1.781-2.448 3.338-4.228 4.451-1.781 1.112-3.783 1.669-6.008 1.669s-4.338-.668-6.119-1.669c-1.78-1.113-3.226-2.671-4.228-4.563-2.114-4.116-7.232-5.675-11.238-3.561-4.117 2.114-5.675 7.232-3.56 11.238 2.449 4.676 6.008 8.347 10.237 11.016z"/><path d="m312.822 161.525c-10.346 13.265-27.457 23.611-42.579 28.121-6.632 1.99-13.795-1.99-15.121-8.754v-.133c-2.123-5.173-10.877-8.224-14.326 1.857-.133.398-.265.929-.397 1.327-3.051 12.071 4.907 24.142 16.979 27.06 9.418 2.255 21.754 1.857 36.079-4.908 25.336-12.336 33.825-35.151 33.825-35.151 1.856-13.398-9.154-16.184-14.46-9.419z"/><path d="m158.689 161.525c10.347 13.265 27.458 23.611 42.579 28.121 6.632 1.99 13.795-1.99 15.122-8.754v-.133c2.123-5.173 10.877-8.224 14.326 1.857.133.398.266.929.398 1.327 3.051 12.071-4.908 24.142-16.979 27.06-9.418 2.255-21.754 1.857-36.08-4.908-25.335-12.336-33.824-35.151-33.824-35.151-1.857-13.398 9.152-16.184 14.458-9.419z"/><path d="m245.276 354.14c.919-1.776 1.685-3.553 2.293-5.313 1.519-4.375 2.11-8.626 2.108-12.489-.006-6.335-1.543-11.609-3.062-15.352-1.528-3.747-3.058-6-3.305-6.361-2.515-3.633-7.499-4.539-11.131-2.024-3.613 2.502-4.526 7.444-2.061 11.071l-.003.002c.028.038.969 1.485 1.854 3.782.892 2.303 1.711 5.423 1.708 8.882-.002 2.26-.334 4.67-1.226 7.25-.897 2.579-2.356 5.35-4.771 8.319-.505.621-.899 1.295-1.19 1.999-37.253 4.086-58.831 34.062-54.557 37.771 4.554 3.953 11.429 3.494 15.425-.999l.004.004c.227-.242 3.851-4.042 11.479-7.773 7.644-3.727 19.29-7.465 36.098-7.477 8.944.001 16.486 1.086 22.78 2.665 9.435 2.371 16.084 5.861 20.299 8.633 2.105 1.386 3.596 2.591 4.496 3.381.45.395.753.686.91.841l.128.13.004-.004c4.086 4.415 10.97 4.737 15.445.692 4.128-3.729-17.485-32.768-53.725-37.63z"/></g></g></svg>