<svg id="Layer_1" enable-background="new 0 0 473.188 492.804" height="512" viewBox="0 0 473.188 492.804" width="512" xmlns="http://www.w3.org/2000/svg"><g><path d="m436.3 45.493c-18.721-20.146-44.574-36.063-72.797-44.819-1.466-.454-2.964-.674-4.443-.674-4.792 0-9.407 2.302-12.269 6.369-3.745 5.323-3.631 12.454.284 17.654 13.553 18.001 22.476 33.217 26.521 45.226 2.552 7.574 3.028 13.606 1.342 16.987-2.423 4.857-12.031 7.757-25.7 7.757-10.468 0-19.402-1.727-19.489-1.744-.979-.196-1.964-.291-2.94-.291-4.49 0-8.808 2.02-11.688 5.599-13.194 16.404-14.312 31.575-12.925 41.413 3.307 23.46 22.758 37.763 24.965 39.316 1.634 1.149 3.479 1.961 5.431 2.388.768.168 19.068 4.113 41.554 4.113 22.79 0 41.835-3.993 56.605-11.868 21.491-11.458 33.556-30.98 34.89-56.454 1.258-24.052-9.161-49.257-29.341-70.972z" fill="#5e0434"/><path d="m146.38 91.958c-.977 0-1.96.095-2.94.291-.064.013-9.006 1.744-19.489 1.744-13.67 0-23.277-2.9-25.701-7.757-1.687-3.381-1.21-9.414 1.341-16.987 4.045-12.008 12.969-27.225 26.521-45.226 3.915-5.2 4.03-12.331.284-17.654-2.861-4.067-7.477-6.369-12.268-6.369-1.48 0-2.976.219-4.443.674-28.223 8.756-54.076 24.673-72.797 44.819-20.179 21.715-30.599 46.92-29.339 70.972 1.333 25.474 13.398 44.995 34.889 56.454 14.77 7.875 33.815 11.868 56.605 11.868 22.485 0 40.786-3.945 41.554-4.113 1.951-.427 3.797-1.239 5.43-2.388 2.208-1.554 21.659-15.856 24.965-39.316 1.387-9.837.27-25.008-12.925-41.413-2.879-3.579-7.197-5.599-11.687-5.599z" fill="#5e0434"/><path d="m326.809 106.958s119.46 23.879 32.25-91.958c52.344 16.239 93.798 58.742 91.602 100.679-3.906 74.596-114.865 50.34-114.865 50.34s-36.07-25.39-8.987-59.061z" fill="#fbbba1"/><path d="m146.379 106.958s-119.459 23.879-32.25-91.958c-52.343 16.24-93.797 58.743-91.601 100.68 3.906 74.596 114.865 50.34 114.865 50.34s36.07-25.391 8.986-59.062z" fill="#fbbba1"/><path d="m470.624 179.608c-.343-.507-8.538-12.574-21.815-24.846-18.772-17.35-38.089-26.648-57.414-27.635-2.173-.112-4.374-.168-6.537-.168-19.818 0-38.554 4.739-52.756 13.345-16.48 9.987-25.783 24.29-26.194 40.274-.425 16.602 8.775 32.152 25.906 43.787 14.998 10.187 34.844 16.39 55.881 17.467 1.123.058 2.265.087 3.395.087 43.567 0 77.504-42.874 78.927-44.699 3.992-5.12 4.238-12.229.607-17.612z" fill="#5e0434"/><path d="m141.085 140.305c-14.203-8.606-32.938-13.346-52.755-13.346-2.164 0-4.365.057-6.542.168-19.32.987-38.637 10.285-57.409 27.635-13.278 12.272-21.473 24.338-21.815 24.846-3.631 5.384-3.386 12.492.608 17.612 1.423 1.825 35.363 44.699 78.927 44.699 1.129 0 2.271-.029 3.394-.087 21.038-1.077 40.884-7.28 55.882-17.467 17.131-11.635 26.331-27.185 25.906-43.786-.412-15.985-9.714-30.287-26.196-40.274z" fill="#5e0434"/><path d="m390.63 142.107c37.916 1.937 67.559 45.888 67.559 45.888s-31.813 40.793-69.728 38.856c-37.908-1.941-68.157-22.483-67.559-45.888.603-23.407 31.827-40.803 69.728-38.856z" fill="#ef8d44"/><path d="m381.245 168.625c20.907 1.068 47.252 25.303 47.252 25.303s-27.542 22.494-48.448 21.426c-20.902-1.07-37.582-12.397-37.252-25.303.332-12.908 17.549-22.501 38.448-21.426z" fill="#fbbba1"/><path d="m82.559 142.107c-37.916 1.937-67.559 45.889-67.559 45.889s31.813 40.793 69.727 38.856c37.908-1.941 68.158-22.483 67.558-45.888-.601-23.408-31.825-40.804-69.726-38.857z" fill="#ef8d44"/><path d="m91.943 168.625c-20.907 1.068-47.252 25.303-47.252 25.303s27.542 22.494 48.448 21.426c20.903-1.07 37.583-12.397 37.252-25.303-.332-12.908-17.549-22.501-38.448-21.426z" fill="#fbbba1"/><path d="m412.346 451.97c-4.344-8.595-11.723-14.892-20.612-17.888-1.395-2.301-3.222-4.796-5.602-7.256-5.329-5.508-14.493-11.897-29.242-13.878-.558-5.027-1.261-11.324-2.078-18.546 2.639-9.122 3.586-17.297 3.867-23.197 10.694-16.59 17.32-33.238 19.71-49.543.046-.317.091-.637.135-.957l7.767-9.346c23.425-24.934 28.643-58.183 15.091-96.196-.072-.203-.148-.404-.229-.603-8.631-23.89-22.447-43.415-28.689-51.536-.659-7.083-2.573-20.096-8.114-33.17-11.517-27.175-33.31-42.142-61.362-42.142h-132.785c-28.053 0-49.846 14.967-61.363 42.142-5.54 13.072-7.454 26.084-8.113 33.168-5.809 7.553-18.172 24.965-26.809 46.556-6.972 17.43-10.117 34.067-9.348 49.449 1.001 20.023 8.512 37.627 22.328 52.333l7.765 9.344c.043.321.089.641.135.959 2.39 16.305 9.016 32.953 19.711 49.543.281 5.901 1.229 14.076 3.868 23.199-.816 7.221-1.52 13.517-2.078 18.544-14.751 1.979-23.916 8.369-29.246 13.879-2.379 2.459-4.206 4.954-5.6 7.256-8.889 2.996-16.268 9.293-20.61 17.887-5.605 11.093-5.196 24.084 1.067 33.902 2.756 4.317 7.523 6.932 12.646 6.932h145.901c7.41 0 13.711-5.412 14.828-12.738.663-4.349.577-9.006-.474-13.665.595.004 1.184.016 1.782.016.599 0 1.188-.012 1.782-.016-1.05 4.659-1.136 9.316-.473 13.665 1.117 7.326 7.417 12.738 14.828 12.738h145.901c5.121 0 9.89-2.614 12.645-6.932 6.266-9.819 6.675-22.81 1.07-33.903z" fill="#5e0434"/><path d="m387.253 220.202-.008.017c-10.345-29.031-29.438-51.515-29.438-51.515s-1.111-65.99-54.821-65.99h-132.783c-53.709 0-54.822 65.99-54.822 65.99s-67.679 79.621-17.251 132.702l10.954 13.182c.136 1.625.315 3.258.556 4.899 2.24 15.286 8.885 31.095 19.768 47.043-.066 10.229 1.957 33.701 19.721 53.625 18.495 20.744 47.923 31.262 87.466 31.262 39.544 0 68.972-10.518 87.467-31.262 17.765-19.924 19.787-43.396 19.721-53.625 10.882-15.948 17.525-31.755 19.766-47.042.24-1.642.426-3.276.559-4.902l10.953-13.18c23.637-24.883 21.322-55.595 12.192-81.204z" fill="#ef8d44"/><path d="m291.469 260.431c-21.125 10.023-35.982 21.4-54.875 21.556-18.892-.155-33.75-11.532-54.875-21.556-33.12-15.715-91.803 30.017-39.585 102.376 0 0-8.743 76.052 94.46 76.052s94.459-76.052 94.459-76.052c52.219-72.359-6.464-118.091-39.584-102.376z" fill="#fbbba1"/><path d="m342.604 246.15c15.797.571 28.396 6.626 28.147 13.523-.251 6.894-13.255 12.021-29.051 11.45-15.794-.571-28.396-6.625-28.146-13.522.251-6.898 13.26-12.024 29.05-11.451z" fill="#ff4076"/><path d="m159.471 259.279c.602 6.875-11.675 13.563-27.42 14.937-15.745 1.375-28.994-3.085-29.596-9.956-.599-6.872 11.678-13.561 27.42-14.938 15.746-1.376 28.996 3.081 29.596 9.957z" fill="#ff4076"/><path d="m285.06 61.009c-5.736-7.987-14.763-12.378-25.427-12.378h-.001c-.82 0-1.661.026-2.498.078-6.873.424-19.057 3.272-45.425 23.026-13.295 9.96-24.101 19.646-24.554 20.053-3.068 2.758-4.964 10.637-4.964 10.637l23.701-.131s19.663 43.604 50.292 41.025c13.771-1.16 22.655-12.101 24.665-23.742.759-4.385.388-8.907-.923-13.122 12.605-13.392 14.714-32.068 5.134-45.446z" fill="#5e0434"/><path d="m197.18 102.946s42.435-38.127 60.875-39.265c8.281-.509 12.62 3.013 14.81 6.063 5.354 7.477 3.762 18.352-3.877 26.447-2.739 2.897-5.988 5.324-9.12 7.28l.705.43c3.385 2.195 6.46 7.542 5.494 13.125-.573 3.32-3.083 9.257-13.458 11.726-28.138 7.108-55.855-25.472-55.429-25.806z" fill="#ef8d44"/><path d="m264.037 71.937c1.969 3.41-4.037 10.562-13.413 15.976-9.377 5.414-18.574 7.038-20.542 3.628-1.969-3.41 4.037-10.562 13.413-15.976 9.376-5.413 18.574-7.038 20.542-3.628z" fill="#fbbba1"/><path d="m226.691 95.228c1.033 1.79-.316 4.503-3.014 6.061s-5.723 1.37-6.756-.419c-1.033-1.79.316-4.503 3.015-6.061s5.721-1.371 6.755.419z" fill="#fbbba1"/><path d="m320.524 243.205c2.76-2.991 4.192-6.365 3.694-9.72-.383-2.573-3.269-3.678-5.953-3.356-.807.096-1.596.316-2.292.67-.095.001-2.733 1.342-6.979 2.601-4.247 1.258-10.195 2.528-16.814 2.573-3.688.025-7.661-.326-11.733-1.244s-8.243-2.402-12.418-4.548c-.145-.076-.291-.139-.438-.202-2.944-1.265-6.354-.085-7.866 2.717-.595 1.041.986 7.894 8.593 13.42 5.005 3.637 12.613 6.699 23.947 7.149 11.652.462 22.681-4.014 28.259-10.06z" fill="#5e0434"/><path d="m381.272 447.183s-4.864-21.593-37.878-19.737c0 0-13.939-128.396-22.87-184.241-5.578 6.047-16.606 10.522-28.261 10.061-11.334-.45-18.942-3.513-23.947-7.149l9.12 202.629c-25.426 7.622-25.58 23.318-24.704 29.06h145.9c6.988-10.954-.223-29.473-17.36-30.623z" fill="#47bdff"/><path d="m152.665 243.205c-2.76-2.991-4.192-6.365-3.694-9.72.382-2.573 3.268-3.678 5.952-3.356.807.096 1.596.316 2.293.67.094.001 2.733 1.342 6.979 2.601s10.195 2.528 16.814 2.573c3.688.025 7.662-.326 11.734-1.244s8.243-2.402 12.418-4.548c.144-.076.291-.139.438-.202 2.945-1.265 6.354-.085 7.866 2.717.595 1.041-.986 7.894-8.593 13.42-5.005 3.637-12.613 6.699-23.947 7.149-11.654.462-22.682-4.014-28.26-10.06z" fill="#5e0434"/><path d="m91.917 447.183s4.864-21.593 37.878-19.737c0 0 13.939-128.396 22.87-184.241 5.579 6.047 16.606 10.522 28.261 10.061 11.334-.45 18.942-3.513 23.947-7.149l-9.12 202.629c25.426 7.622 25.579 23.318 24.704 29.06h-145.901c-6.988-10.954.223-29.473 17.361-30.623z" fill="#47bdff"/><g fill="#5e0434"><path d="m186.09 206.843c19.729 1.141 30.791-16.08 35.468-23.721 3.193-7.755-3.537-10.606-7.528-8.667-10.492 7.755-23.378 22.352-55.652-3.193-6.272-2.737-13.229 1.825-7.755 11.176 8.21 11.404 19.729 23.493 35.467 24.405z"/><path d="m328.269 182.438c5.475-9.352-1.482-13.913-7.755-11.176-32.388 25.545-45.16 10.948-55.652 3.193-3.877-1.939-10.72.912-7.526 8.667 4.676 7.641 15.852 24.861 35.467 23.721 15.737-.912 27.255-13.001 35.466-24.405z"/><path d="m331.067 341.547c-5.864 9.692-23.141 17.991-40.985 18.719-17.366.708-35.271-5.755-43.717-25.084-.518.01-1.845-21.766-9.669-22.142v-.018l-.101.009-.101-.009v.018c-7.824.376-9.151 22.151-9.669 22.142-8.445 19.329-26.35 25.792-43.717 25.084-17.844-.728-35.121-9.026-40.985-18.719 0 0-3.813-1.608-3.693 3.46.296 12.578 29.058 29.093 41.793 31.906.308.069 5.214 22.033 21.373 21.021 22.586-1.413 18.639-25.082 35-25.598 16.361.516 12.415 24.185 35 25.598 16.158 1.012 21.064-20.952 21.373-21.021 12.734-2.813 41.497-19.328 41.793-31.906.117-5.068-3.695-3.46-3.695-3.46z"/><path d="m308.844 296.181c6.939 9.824 4.913 23.195-4.528 29.864-9.439 6.67-28.587 9.981-35.527.158s.955-29.063 10.396-35.731c9.44-6.669 22.719-4.114 29.659 5.709z"/><path d="m164.344 296.181c-6.94 9.824-4.913 23.195 4.528 29.864 9.44 6.67 28.588 9.981 35.528.158 6.941-9.823-.955-29.063-10.395-35.731-9.442-6.669-22.721-4.114-29.661 5.709z"/></g><path d="m138.128 438.056c.561-1.582-.453-3.313-2.108-3.592-2.738-.462-5.644-.686-8.665-.612-15.816.38-28.453 8.357-28.225 17.816.005.234.025.466.046.697-9.971.57-17.717 3.807-17.627 7.521.009.396.108.783.29 1.157.836 1.725 3.154 1.852 4.489.477 2.046-2.108 7.523-3.638 20.344-2.911 1.428.081 2.693-.938 2.879-2.356 1.365-10.384 13.18-17.716 28.255-17.638.088.002.202-.22.322-.559z" fill="#fff"/><path d="m335.061 438.056c-.561-1.582.452-3.313 2.107-3.592 2.738-.462 5.644-.686 8.664-.612 15.816.38 28.453 8.357 28.226 17.816-.006.234-.025.466-.046.697 9.971.57 17.717 3.807 17.627 7.521-.01.396-.108.783-.29 1.157-.837 1.725-3.154 1.852-4.489.477-2.046-2.108-7.523-3.638-20.344-2.911-1.428.081-2.692-.938-2.879-2.356-1.366-10.384-13.18-17.716-28.256-17.638-.087.002-.2-.22-.32-.559z" fill="#fff"/></g></svg>