<svg id="Layer_1" enable-background="new 0 0 473.188 466.417" height="512" viewBox="0 0 473.188 466.417" width="512" xmlns="http://www.w3.org/2000/svg"><g><path d="m436.3 45.493c-18.721-20.146-44.574-36.063-72.797-44.819-1.466-.454-2.964-.674-4.443-.674-4.792 0-9.407 2.302-12.269 6.369-3.745 5.323-3.631 12.454.284 17.654 13.553 18.001 22.476 33.217 26.521 45.226 2.552 7.574 3.028 13.606 1.342 16.987-2.423 4.857-12.031 7.757-25.7 7.757-10.468 0-19.402-1.727-19.489-1.744-.979-.196-1.964-.291-2.94-.291-4.49 0-8.808 2.02-11.688 5.599-13.194 16.404-14.312 31.575-12.925 41.413 3.307 23.46 22.758 37.763 24.965 39.316 1.634 1.149 3.479 1.961 5.431 2.388.768.168 19.068 4.113 41.554 4.113 22.79 0 41.835-3.993 56.605-11.868 21.491-11.458 33.556-30.98 34.89-56.454 1.258-24.052-9.161-49.257-29.341-70.972z" fill="#5e0434"/><path d="m146.38 91.958c-.977 0-1.96.095-2.94.291-.064.013-9.006 1.744-19.489 1.744-13.67 0-23.277-2.9-25.701-7.757-1.687-3.381-1.21-9.414 1.341-16.987 4.045-12.008 12.969-27.225 26.521-45.226 3.915-5.2 4.03-12.331.284-17.654-2.861-4.067-7.477-6.369-12.268-6.369-1.48 0-2.976.219-4.443.674-28.223 8.756-54.076 24.673-72.797 44.819-20.179 21.715-30.599 46.92-29.339 70.972 1.333 25.474 13.398 44.995 34.889 56.454 14.77 7.875 33.815 11.868 56.605 11.868 22.485 0 40.786-3.945 41.554-4.113 1.951-.427 3.797-1.239 5.43-2.388 2.208-1.554 21.659-15.856 24.965-39.316 1.387-9.837.27-25.008-12.925-41.413-2.879-3.579-7.197-5.599-11.687-5.599z" fill="#5e0434"/><path d="m326.809 106.958s119.46 23.879 32.25-91.957c52.344 16.239 93.798 58.742 91.602 100.679-3.906 74.596-114.865 50.34-114.865 50.34s-36.07-25.391-8.987-59.062z" fill="#fbbba1"/><path d="m146.379 106.958s-119.459 23.879-32.25-91.957c-52.343 16.239-93.797 58.742-91.601 100.679 3.906 74.596 114.865 50.34 114.865 50.34s36.07-25.391 8.986-59.062z" fill="#fbbba1"/><path d="m470.624 179.608c-.343-.507-8.538-12.574-21.815-24.846-18.772-17.35-38.089-26.648-57.414-27.635-2.173-.112-4.374-.168-6.537-.168-19.818 0-38.554 4.739-52.756 13.345-16.48 9.987-25.783 24.29-26.194 40.274-.425 16.602 8.775 32.152 25.906 43.787 14.998 10.187 34.844 16.39 55.881 17.467 1.123.058 2.265.087 3.395.087 43.567 0 77.504-42.875 78.927-44.7 3.992-5.119 4.238-12.228.607-17.611z" fill="#5e0434"/><path d="m141.085 140.305c-14.203-8.606-32.938-13.346-52.755-13.346-2.164 0-4.365.057-6.542.168-19.32.987-38.637 10.285-57.409 27.635-13.278 12.272-21.473 24.338-21.815 24.846-3.631 5.384-3.386 12.492.608 17.612 1.423 1.825 35.363 44.699 78.927 44.699 1.129 0 2.271-.029 3.394-.087 21.038-1.077 40.884-7.28 55.882-17.467 17.131-11.635 26.331-27.185 25.906-43.786-.412-15.985-9.714-30.287-26.196-40.274z" fill="#5e0434"/><path d="m390.63 142.107c37.916 1.937 67.559 45.888 67.559 45.888s-31.813 40.793-69.728 38.856c-37.908-1.941-68.157-22.483-67.559-45.888.603-23.407 31.827-40.803 69.728-38.856z" fill="#ef8d44"/><path d="m381.245 168.625c20.907 1.068 47.252 25.303 47.252 25.303s-27.542 22.494-48.448 21.426c-20.902-1.07-37.582-12.397-37.252-25.303.332-12.908 17.549-22.501 38.448-21.426z" fill="#fbbba1"/><path d="m82.559 142.107c-37.917 1.937-67.559 45.889-67.559 45.889s31.813 40.793 69.727 38.856c37.908-1.941 68.158-22.483 67.558-45.888-.601-23.408-31.825-40.804-69.726-38.857z" fill="#ef8d44"/><path d="m91.943 168.625c-20.907 1.068-47.252 25.303-47.252 25.303s27.542 22.494 48.448 21.426c20.903-1.07 37.583-12.397 37.252-25.303-.332-12.908-17.549-22.501-38.448-21.426z" fill="#fbbba1"/><path d="m401.381 215.164c-.072-.203-.148-.404-.229-.603-8.631-23.89-22.447-43.415-28.689-51.536-.659-7.083-2.573-20.096-8.114-33.17-11.517-27.175-33.31-42.142-61.362-42.142h-132.784c-28.053 0-49.846 14.967-61.363 42.142-5.54 13.072-7.454 26.084-8.113 33.168-5.809 7.553-18.172 24.965-26.809 46.556-6.972 17.43-10.117 34.068-9.348 49.449 1.001 20.023 8.512 37.627 22.328 52.333l7.765 9.344c.043.321.089.641.135.959 2.39 16.305 9.016 32.953 19.711 49.543.629 13.207 4.571 37.788 23.423 58.933 21.463 24.072 54.659 36.278 98.663 36.278s77.199-12.206 98.662-36.278c18.853-21.144 22.794-45.726 23.423-58.933 10.694-16.59 17.32-33.238 19.71-49.543.046-.317.091-.637.135-.957l7.767-9.346c23.423-24.935 28.641-58.184 15.089-96.197z" fill="#5e0434"/><path d="m387.253 220.202-.008.017c-10.345-29.031-29.438-51.515-29.438-51.515s-1.111-65.99-54.821-65.99h-132.783c-53.709 0-54.822 65.99-54.822 65.99s-67.679 79.621-17.251 132.702l10.954 13.181c.136 1.626.315 3.259.556 4.9 2.24 15.286 8.885 31.094 19.768 47.043-.066 10.229 1.957 33.701 19.721 53.625 18.495 20.744 47.923 31.262 87.466 31.262 39.544 0 68.972-10.518 87.467-31.262 17.765-19.924 19.787-43.396 19.721-53.625 10.882-15.949 17.525-31.755 19.766-47.042.24-1.643.426-3.276.559-4.902l10.953-13.18c23.637-24.883 21.322-55.595 12.192-81.204z" fill="#ef8d44"/><path d="m291.469 260.431c-21.125 10.023-35.982 21.4-54.875 21.556-18.892-.155-33.75-11.532-54.875-21.556-33.12-15.715-91.803 30.017-39.585 102.376 0 0-8.743 76.052 94.46 76.052s94.459-76.052 94.459-76.052c52.219-72.359-6.464-118.091-39.584-102.376z" fill="#fbbba1"/><path d="m335.294 345.007c.12-5.068-3.692-3.46-3.692-3.46-11.573 19.125-67.58 32.824-84.702-6.365-.522.01-1.864-22.159-9.872-22.159s-9.35 22.169-9.872 22.159c-17.123 39.189-73.13 25.49-84.703 6.365 0 0-3.812-1.608-3.693 3.46.296 12.578 29.059 29.092 41.793 31.906.577.129 5.922 56.388 56.474 56.388s55.896-56.259 56.473-56.388c12.737-2.814 41.498-19.328 41.794-31.906z" fill="#5e0434"/><path d="m283.667 197.499c14.812-.109 26.94 16.159 27.091 36.338.148 20.179-11.737 36.625-26.55 36.735-14.812.109-26.941-16.16-27.092-36.338-.148-20.179 11.739-36.625 26.551-36.735z" fill="#5e0434"/><path d="m275.766 215.548c1.459-8.483 9.251-14.224 17.403-12.821 8.152 1.402 13.58 9.416 12.12 17.899-1.458 8.483-9.251 14.224-17.403 12.821-8.153-1.403-13.58-9.415-12.12-17.899z" fill="#fff"/><path d="m279.766 243.157c.502-2.92 3.187-4.895 5.996-4.411 2.809.483 4.68 3.242 4.178 6.16-.502 2.92-3.186 4.896-5.996 4.412s-4.68-3.242-4.178-6.161z" fill="#fff"/><path d="m284.059 152.272c-17.51-1.012-27.326 14.271-31.478 21.051-2.834 6.882 3.139 9.413 6.682 7.692 9.311-6.882 20.747-19.837 49.39 2.834 5.566 2.429 11.74-1.619 6.882-9.918-7.288-10.121-17.509-20.849-31.476-21.659z" fill="#5e0434"/><path d="m160.423 233.83c.148-20.179 12.277-36.447 27.09-36.338 14.812.109 26.699 16.556 26.55 36.735-.15 20.179-12.279 36.448-27.092 36.338-14.811-.109-26.698-16.557-26.548-36.735z" fill="#5e0434"/><path d="m180.438 215.574c1.458-8.483 9.251-14.224 17.404-12.821 8.152 1.402 13.579 9.416 12.12 17.899s-9.251 14.224-17.404 12.821c-8.153-1.404-13.579-9.417-12.12-17.899z" fill="#fff"/><path d="m184.437 243.182c.502-2.92 3.187-4.895 5.996-4.411 2.81.483 4.68 3.241 4.178 6.16s-3.186 4.895-5.996 4.411c-2.809-.482-4.68-3.24-4.178-6.16z" fill="#fff"/><g fill="#5e0434"><path d="m155.711 173.931c-4.858 8.299 1.316 12.348 6.882 9.918 28.743-22.671 40.079-9.716 49.39-2.834 3.441 1.721 9.514-.81 6.68-7.692-4.149-6.781-14.068-22.063-31.476-21.051-13.967.81-24.189 11.538-31.476 21.659z"/><path d="m308.844 296.181c6.939 9.824 4.913 23.195-4.528 29.864-9.439 6.67-28.587 9.981-35.527.158s.955-29.063 10.396-35.731c9.44-6.67 22.719-4.114 29.659 5.709z"/><path d="m164.344 296.181c-6.94 9.824-4.913 23.195 4.528 29.864 9.44 6.67 28.588 9.981 35.528.158 6.941-9.823-.955-29.063-10.395-35.731-9.442-6.67-22.721-4.114-29.661 5.709z"/></g><path d="m342.604 246.151c15.797.57 28.396 6.626 28.147 13.522-.251 6.894-13.255 12.021-29.051 11.45-15.794-.571-28.396-6.625-28.146-13.522.251-6.898 13.26-12.024 29.05-11.45z" fill="#ff4076"/><path d="m159.471 259.279c.602 6.875-11.675 13.563-27.42 14.937-15.745 1.375-28.994-3.085-29.596-9.956-.599-6.873 11.678-13.561 27.42-14.938 15.746-1.376 28.996 3.081 29.596 9.957z" fill="#ff4076"/><path d="m285.06 61.009c-5.736-7.987-14.763-12.378-25.427-12.378h-.001c-.82 0-1.661.026-2.498.078-6.873.424-19.057 3.272-45.425 23.026-13.295 9.96-24.101 19.646-24.554 20.053-3.068 2.758-4.964 10.637-4.964 10.637l23.701-.131s19.663 43.604 50.292 41.025c13.771-1.16 22.655-12.101 24.665-23.742.759-4.385.388-8.907-.923-13.122 12.605-13.392 14.714-32.068 5.134-45.446z" fill="#5e0434"/><path d="m197.18 102.946s42.435-38.127 60.875-39.265c8.281-.509 12.62 3.013 14.81 6.063 5.354 7.477 3.762 18.352-3.877 26.447-2.739 2.897-5.988 5.324-9.12 7.28l.705.43c3.385 2.195 6.46 7.542 5.494 13.124-.573 3.32-3.083 9.258-13.458 11.726-28.138 7.109-55.855-25.471-55.429-25.805z" fill="#ef8d44"/><path d="m264.037 71.937c1.969 3.41-4.037 10.562-13.413 15.976-9.377 5.414-18.574 7.038-20.542 3.628s4.037-10.562 13.414-15.976c9.375-5.413 18.573-7.038 20.541-3.628z" fill="#fbbba1"/><path d="m226.691 95.228c1.033 1.79-.316 4.503-3.014 6.061s-5.723 1.37-6.756-.42.316-4.503 3.015-6.061 5.721-1.37 6.755.42z" fill="#fbbba1"/><path d="m260.516 388.45c-2.286-11.427-14.087-11.19-22.052-10.194l-1.819 10.482-.051 1.104-.051-1.104-1.819-10.482c-7.965-.996-19.766-1.232-22.052 10.194-2.147 10.73-.925 22.549 23.922 22.858 24.848-.309 26.069-12.128 23.922-22.858z" fill="#ff4076"/></g></svg>