<svg id="Capa_1" enable-background="new 0 0 511.99 511.99" height="512" viewBox="0 0 511.99 511.99" width="512" xmlns="http://www.w3.org/2000/svg"><g><g><path d="m349.082 57.749v207.77h-164.239c-28.87 0-52.269-23.408-52.269-52.278l-33.738-6.822v-148.67z" fill="#ffddce"/><path d="m337.077 236.891v28.629h-152.234c-28.87 0-52.269-23.408-52.269-52.278l-33.738-6.822v-148.671h17.401l52.778 32.322v94.117c0 29.107 23.595 52.702 52.702 52.702h115.36z" fill="#ffcbbe"/><path d="m250.261 504.495v-96.773h.785c10.809 0 19.571-8.762 19.571-19.571v-57.725c0-7.991 6.478-14.469 14.469-14.469h17.707c59.5 0 107.734-48.234 107.734-107.734v-120.233c0-25.7-11.834-49.218-32.468-64.522-20.409-15.138-47.139-19.764-71.494-12.376-53.24 16.148-109.516 16.129-162.745-.053-24.611-7.483-50.579-2.989-71.248 12.33-20.679 15.323-32.539 38.874-32.542 64.61l-.018 140.596c-.002 18.993 11.441 35.307 27.806 42.441v42.999c0 10.014 7.787 18.543 17.795 18.899 10.507.374 19.141-8.033 19.141-18.456v-43.436c16.367-7.131 27.816-23.442 27.818-42.435l.016-124.588c30.481 7.844 61.579 11.765 92.691 11.764 31.104-.001 62.212-3.921 92.687-11.762v104.224c0 8.38-6.793 15.173-15.173 15.173h-17.707c-59.111 0-107.029 47.919-107.029 107.029v57.725c0 10.809 8.762 19.571 19.571 19.571v96.773" fill="#d87b7b"/><g fill="#d06161"><path d="m228.762 407.722c-10.809 0-19.571-8.762-19.571-19.571v-57.724c0-59.111 47.919-107.029 107.029-107.029h17.707c8.38 0 15.173-6.793 15.173-15.173v-110.828c-10.314 2.654-20.701 4.847-31.135 6.603v104.224c0 8.38-6.793 15.173-15.173 15.173h-17.707c-59.111 0-107.029 47.919-107.029 107.029v57.724c0 10.809 8.762 19.571 19.571 19.571v96.773h31.135z"/><path d="m98.954 314.015v-42.999c-16.365-7.135-27.809-23.449-27.806-42.441l.018-140.596c.003-25.736 11.863-49.287 32.542-64.611 9.751-7.227 20.683-12.041 32.094-14.329-22.143-4.377-44.794.666-63.229 14.329-20.68 15.324-32.54 38.875-32.543 64.611l-.018 140.596c-.002 18.993 11.441 35.307 27.806 42.441v42.999c0 10.014 7.787 18.543 17.795 18.899 6.874.244 12.928-3.282 16.305-8.659-1.878-2.976-2.964-6.504-2.964-10.24z"/></g><g><path d="m439.142 82.529 32.24 91.238c2.385 6.749-2.622 13.829-9.78 13.829h-37.816l12.195 58.117c1.514 7.214-7.796 11.482-12.274 5.627l-57.836-75.633c-5.219-6.825-.353-16.674 8.24-16.674h30.306l-43.608-69.58c-3.344-5.336.492-12.267 6.789-12.267h63.99c3.395.001 6.422 2.142 7.554 5.343z" fill="#f7e38d"/></g><g><circle cx="150.357" cy="63.7" fill="#c0e3a0" r="21.834"/><path d="m158.132 84.107c-2.405.919-5.023 1.423-7.767 1.423-12.06 0-21.841-9.769-21.841-21.829s9.781-21.841 21.841-21.841c2.744 0 5.363.504 7.767 1.423-8.22 3.135-14.062 11.103-14.062 20.419 0 9.314 5.841 17.27 14.062 20.405z" fill="#a8d4a4"/></g><g><circle cx="82.003" cy="206.42" fill="#c0e3a0" r="21.834"/><path d="m89.778 226.826c-2.405.919-5.023 1.423-7.767 1.423-12.06 0-21.841-9.769-21.841-21.829s9.781-21.841 21.841-21.841c2.744 0 5.363.504 7.767 1.423-8.22 3.135-14.062 11.103-14.062 20.419 0 9.314 5.841 17.27 14.062 20.405z" fill="#a8d4a4"/></g><g><circle cx="329.928" cy="53.533" fill="#c0e3a0" r="21.834"/><path d="m337.704 73.94c-2.405.919-5.023 1.423-7.767 1.423-12.06 0-21.841-9.769-21.841-21.829s9.781-21.841 21.841-21.841c2.744 0 5.363.504 7.767 1.423-8.22 3.135-14.062 11.103-14.062 20.419 0 9.314 5.841 17.27 14.062 20.405z" fill="#a8d4a4"/></g><g><circle cx="316.034" cy="266.242" fill="#c0e3a0" r="21.834"/><path d="m323.81 286.648c-2.405.919-5.023 1.423-7.767 1.423-12.06 0-21.841-9.769-21.841-21.829s9.781-21.841 21.841-21.841c2.744 0 5.363.504 7.767 1.423-8.22 3.135-14.062 11.103-14.062 20.419 0 9.314 5.841 17.27 14.062 20.405z" fill="#a8d4a4"/></g></g><g><path d="m197.628 400.22c-6.655 0-12.07-5.415-12.07-12.07v-57.73c0-54.881 44.649-99.53 99.53-99.53h17.71c12.5 0 22.67-10.17 22.67-22.67v-104.23c0-2.319-1.073-4.508-2.906-5.928-1.833-1.421-4.22-1.913-6.465-1.335-29.704 7.653-60.26 11.533-90.819 11.533-30.55 0-61.105-3.88-90.819-11.533-2.245-.579-4.632-.085-6.465 1.335s-2.906 3.609-2.906 5.927l-.01 124.587c-.008 15.441-9.16 29.403-23.315 35.568-2.736 1.192-4.505 3.892-4.505 6.876v43.43c0 3.004-1.19 5.808-3.352 7.894-2.161 2.086-5.023 3.172-8.018 3.071-5.828-.209-10.57-5.326-10.57-11.405v-43c0-2.984-1.769-5.683-4.503-6.875-14.16-6.171-23.305-20.13-23.296-35.564l.01-140.598c.009-23.335 10.768-44.689 29.517-58.588 14.88-11.031 33.078-15.978 51.234-13.932 4.121.465 7.829-2.497 8.292-6.613.464-4.116-2.497-7.829-6.613-8.292-21.943-2.472-43.906 3.49-61.846 16.788-22.603 16.755-35.573 42.5-35.584 70.635l-.01 140.596c-.011 19.719 10.75 37.703 27.8 47.103v38.341c0 14.296 10.995 25.89 25.036 26.395 7.107.252 13.854-2.331 18.97-7.269 5.117-4.939 7.934-11.575 7.934-18.686v-38.77c11.143-6.142 19.602-15.956 24.127-27.529 10.869 15.041 28.542 24.859 48.463 24.859h1.17c-9.825 16.889-15.46 36.503-15.46 57.41v57.73c0 12.325 8.28 22.753 19.57 26.013v90.327c0 4.142 3.358 7.5 7.5 7.5s7.5-3.358 7.5-7.5v-96.77c-.001-4.143-3.359-7.501-7.501-7.501zm112.84-286.68v14.439c-13.092 3.309-22.81 15.185-22.81 29.29v26.18c0 4.071-1.582 7.895-4.454 10.767s-6.695 4.453-10.767 4.453c-8.387 0-15.21-6.828-15.21-15.22v-16.92c0-8.078-3.142-15.668-8.853-21.38-5.715-5.701-13.303-8.84-21.367-8.84-16.658 0-30.21 13.557-30.21 30.22v16.92c0 4.071-1.582 7.895-4.453 10.767-2.872 2.872-6.695 4.453-10.767 4.453-8.387 0-15.21-6.828-15.21-15.22v-26.18c0-8.071-3.142-15.658-8.853-21.37-4.773-4.762-10.856-7.728-17.429-8.579l.001-13.781c55.952 12.908 114.463 12.905 170.382.001zm-125.62 144.47c-24.637 0-44.711-20.029-44.769-44.646l.005-70.775c2.558.68 4.908 2.008 6.83 3.925 2.872 2.872 4.453 6.692 4.453 10.757v26.18c0 16.663 13.552 30.22 30.21 30.22 8.078 0 15.668-3.142 21.373-8.847s8.847-13.296 8.847-21.373v-16.92c0-8.392 6.823-15.22 15.21-15.22 4.064 0 7.891 1.584 10.767 4.453 2.872 2.872 4.454 6.696 4.454 10.767v16.92c0 16.663 13.552 30.22 30.21 30.22 8.078 0 15.668-3.142 21.373-8.846 5.705-5.705 8.847-13.295 8.847-21.374v-26.18c0-5.701 3.157-10.673 7.81-13.277v64.227c0 4.229-3.441 7.67-7.67 7.67h-17.71c-35.707 0-67.646 16.428-88.666 42.12h-11.574z"/><path d="m338.219 302.013c-11.313 4.271-23.23 6.437-35.421 6.437h-17.71c-12.114 0-21.97 9.856-21.97 21.97v57.73c0 6.656-5.415 12.07-12.07 12.07h-.78c-4.142 0-7.5 3.358-7.5 7.5v96.77c0 4.142 3.358 7.5 7.5 7.5s7.5-3.358 7.5-7.5v-90.114c11.687-2.996 20.35-13.618 20.35-26.226v-57.73c0-3.843 3.126-6.97 6.97-6.97h17.71c14.007 0 27.707-2.491 40.719-7.403 3.875-1.463 5.831-5.79 4.368-9.666-1.464-3.875-5.791-5.832-9.666-4.368z"/><path d="m365.845 208.93c-4.142 0-7.5 3.358-7.5 7.5 0 13.623-6.679 26.344-17.48 34.218-5.197-8.249-14.382-13.746-24.831-13.746-13.584 0-25.037 9.283-28.359 21.837h-12.22c-31.601 0-57.31 25.705-57.31 57.3v29.856l-9.77-9.769c-2.929-2.929-7.678-2.929-10.606 0-2.929 2.929-2.929 7.677 0 10.606l22.574 22.574c1.464 1.465 3.384 2.197 5.303 2.197s3.839-.732 5.303-2.197l22.574-22.574c2.929-2.929 2.929-7.677 0-10.606s-7.678-2.929-10.606 0l-9.771 9.771v-29.857c0-23.324 18.98-42.3 42.31-42.3h12.222c3.324 12.55 14.776 21.83 28.357 21.83 16.174 0 29.333-13.159 29.333-29.333 0-.192-.011-.382-.015-.573 17.161-10.25 27.992-29.021 27.992-49.233 0-4.143-3.358-7.501-7.5-7.501zm-49.811 71.64c-7.903 0-14.333-6.43-14.333-14.333s6.43-14.333 14.333-14.333 14.333 6.43 14.333 14.333-6.429 14.333-14.333 14.333z"/><path d="m478.453 171.263-32.24-91.238c-2.187-6.187-8.064-10.344-14.626-10.344h-15.479c-4.359-20.898-16.1-39.274-33.583-52.246-22.306-16.545-51.516-21.601-78.133-13.523-46.924 14.222-96.825 15.541-144.307 3.816-4.024-.993-8.086 1.462-9.079 5.483s1.462 8.086 5.483 9.079c50.098 12.371 102.747 10.98 152.256-4.024 22.094-6.706 46.335-2.513 64.843 11.216 13.631 10.113 23.05 24.176 27.131 40.199h-33.123c-5.641 0-10.841 3.066-13.572 8-2.731 4.935-2.567 10.97.428 15.75l36.411 58.096h-16.753c-6.849 0-12.989 3.814-16.023 9.954s-2.335 13.334 1.826 18.775l40.083 52.417c-5.588 22.314-18.752 42.091-37.369 55.96-3.322 2.475-4.009 7.173-1.534 10.495 1.473 1.976 3.732 3.02 6.021 3.02 1.558 0 3.129-.484 4.475-1.486 18.281-13.619 32.003-32.197 39.62-53.326l6.54 8.553c2.842 3.717 6.993 5.716 11.326 5.716 2.046 0 4.132-.446 6.141-1.366 6.262-2.871 9.52-9.33 8.105-16.072l-10.298-49.077h28.579c5.792 0 11.247-2.823 14.592-7.553 3.345-4.728 4.189-10.812 2.259-16.274zm-14.506 7.614c-.32.454-1.052 1.214-2.345 1.214h-37.816c-2.259 0-4.398 1.019-5.822 2.772-1.424 1.754-1.982 4.057-1.518 6.268l11.67 55.623-56.288-73.608c-.943-1.234-.589-2.42-.293-3.018.295-.598 1.022-1.6 2.575-1.6h30.306c2.728 0 5.241-1.481 6.562-3.868s1.242-5.303-.207-7.615l-43.607-69.579c-.064-.102-.16-.256-.014-.52s.328-.264.448-.264h63.99c.216 0 .411.137.482.341l32.24 91.238c.431 1.22-.042 2.162-.363 2.616z"/><path d="m121.023 63.695c0 16.175 13.159 29.334 29.333 29.334s29.334-13.159 29.334-29.334-13.159-29.333-29.333-29.333-29.334 13.158-29.334 29.333zm29.334-14.333c7.903 0 14.333 6.43 14.333 14.333s-6.43 14.334-14.333 14.334-14.333-6.43-14.333-14.334 6.429-14.333 14.333-14.333z"/><path d="m52.669 206.415c0 16.175 13.159 29.333 29.333 29.333s29.333-13.159 29.333-29.333-13.159-29.333-29.333-29.333-29.333 13.158-29.333 29.333zm29.334-14.334c7.903 0 14.333 6.43 14.333 14.333s-6.43 14.333-14.333 14.333-14.333-6.43-14.333-14.333 6.429-14.333 14.333-14.333z"/><path d="m329.928 24.195c-16.174 0-29.333 13.159-29.333 29.334s13.159 29.333 29.333 29.333 29.333-13.159 29.333-29.333c.001-16.176-13.158-29.334-29.333-29.334zm0 43.667c-7.903 0-14.333-6.43-14.333-14.333s6.43-14.334 14.333-14.334 14.333 6.43 14.333 14.334-6.429 14.333-14.333 14.333z"/><path d="m91.978 150v.5c0 4.142 3.358 7.5 7.5 7.5s7.5-3.358 7.5-7.5v-.5c0-4.142-3.358-7.5-7.5-7.5s-7.5 3.358-7.5 7.5z"/><path d="m88.504 51.219c-4.142 0-7.5 3.358-7.5 7.5v.5c0 4.142 3.358 7.5 7.5 7.5s7.5-3.358 7.5-7.5v-.5c0-4.142-3.357-7.5-7.5-7.5z"/><path d="m268.592 53.774v-.5c0-4.142-3.358-7.5-7.5-7.5s-7.5 3.358-7.5 7.5v.5c0 4.142 3.358 7.5 7.5 7.5s7.5-3.358 7.5-7.5z"/><path d="m344.376 132.543v.5c0 4.142 3.358 7.5 7.5 7.5s7.5-3.358 7.5-7.5v-.5c0-4.142-3.358-7.5-7.5-7.5s-7.5 3.358-7.5 7.5z"/></g></g></svg>