<svg height="512" viewBox="0 0 64 64" width="512" xmlns="http://www.w3.org/2000/svg"><g id="Lungs"><g fill="#c0ab91"><path d="m27 17v24a19.994 19.994 0 0 1 -20 20h-2a2.006 2.006 0 0 1 -2-2v-26a19.977 19.977 0 0 1 20-20 3.995 3.995 0 0 1 4 4z"/><path d="m27 17v24a19.994 19.994 0 0 1 -20 20h-2a2.006 2.006 0 0 1 -2-2v-26a19.977 19.977 0 0 1 20-20 3.995 3.995 0 0 1 4 4z"/><path d="m27 17v24a19.994 19.994 0 0 1 -20 20h-2a2.006 2.006 0 0 1 -2-2v-26a19.977 19.977 0 0 1 20-20 3.995 3.995 0 0 1 4 4z"/><path d="m37 17v24a19.994 19.994 0 0 0 20 20h2a2.006 2.006 0 0 0 2-2v-26a19.977 19.977 0 0 0 -20-20 3.995 3.995 0 0 0 -4 4z"/></g><path d="m61 33v26a2.006 2.006 0 0 1 -2 2h-2a19.967 19.967 0 0 1 -16-8 19.917 19.917 0 0 0 12 4h2a2.006 2.006 0 0 0 2-2v-26a20.008 20.008 0 0 0 -1.21-6.87 20.224 20.224 0 0 0 -2.79-5.13 19.941 19.941 0 0 1 8 16z" fill="#a78966"/><path d="m27 17v24a19.994 19.994 0 0 1 -20 20h-2a2.006 2.006 0 0 1 -2-2v-2a19.994 19.994 0 0 0 20-20v-24a3.995 3.995 0 0 1 4 4z" fill="#a78966"/><path d="m38 5a2.015 2.015 0 0 1 -2 2h-8a2.006 2.006 0 0 1 -2-2 2.015 2.015 0 0 1 2-2h8a2.006 2.006 0 0 1 2 2z" fill="#ffde55"/><path d="m37 21.17v5.66l-5-5-5 5-9.08 9.09-2.09 2.08a2.016 2.016 0 0 1 -2.83 0 2 2 0 0 1 0-2.83l.78-.78 7.69-7.69 5.53-5.53 3-3v-3.17h4v3.17z" fill="#ebe5dd"/><path d="m30 11h4v4h-4z" fill="#ebbf00"/><path d="m30 7h4v4h-4z" fill="#c0ab91"/><circle cx="53" cy="17" fill="#ff3051" r="4"/><path d="m57 17a3.995 3.995 0 0 1 -7.64 1.64 3.931 3.931 0 0 0 1.64.36 4 4 0 0 0 4-4 3.931 3.931 0 0 0 -.36-1.64 3.988 3.988 0 0 1 2.36 3.64z" fill="#cd2a00"/><circle cx="47" cy="33" fill="#ff3051" r="4"/><path d="m51 33a3.995 3.995 0 0 1 -7.64 1.64 3.931 3.931 0 0 0 1.64.36 4 4 0 0 0 4-4 3.931 3.931 0 0 0 -.36-1.64 3.988 3.988 0 0 1 2.36 3.64z" fill="#cd2a00"/><circle cx="51" cy="49" fill="#ff3051" r="4"/><path d="m55 49a3.995 3.995 0 0 1 -7.64 1.64 3.931 3.931 0 0 0 1.64.36 4 4 0 0 0 4-4 3.931 3.931 0 0 0 -.36-1.64 3.988 3.988 0 0 1 2.36 3.64z" fill="#cd2a00"/><path d="m30 15h4v3h-4z" fill="#c0ab91"/><path d="m57.205 19.683a4.978 4.978 0 0 0 .695-1.683h2.1v-2h-2.1a4.961 4.961 0 0 0 -.732-1.753l1.49-1.49-1.414-1.414-1.49 1.49a4.969 4.969 0 0 0 -1.754-.733v-2.1h-2v2.1a4.977 4.977 0 0 0 -2.727 1.6 20.776 20.776 0 0 0 -8.273-1.7 4.995 4.995 0 0 0 -5 5v1.756l-1-1v-9.756h1a3 3 0 0 0 0-6h-8a3 3 0 0 0 0 6h1v9.756l-1 1v-1.756a4.995 4.995 0 0 0 -5-5 21.024 21.024 0 0 0 -21 21v26a3 3 0 0 0 3 3h2a21.024 21.024 0 0 0 21-21v-13.756l4-4 4 4v13.756a21.024 21.024 0 0 0 21 21h2a3 3 0 0 0 3-3v-26a20.961 20.961 0 0 0 -4.795-13.317zm-4.205-5.683a3 3 0 1 1 -3 3 3 3 0 0 1 3-3zm-20 0h-2v-2h2zm-6-9a1 1 0 0 1 1-1h8a1 1 0 0 1 0 2h-8a1 1 0 0 1 -1-1zm6 3v2h-2v-2zm-7 33a19.021 19.021 0 0 1 -19 19h-2a1 1 0 0 1 -1-1v-26a19.021 19.021 0 0 1 19-19 2.994 2.994 0 0 1 3 3v3.756l-4.375 4.375-1.425-2.131 3.63-5.445-1.664-1.11-1.445 2.168-2.168-1.445-1.11 1.664 2.168 1.445-1.445 2.168a1 1 0 0 0 0 1.11l2.014 3.018-6.6 6.6-3.12-1.561 3.075-4.612h3.465v-2h-3.5l-2.7-3.6-1.6 1.2 2.575 3.434-1.117 1.677-3.211-1.606-.894 1.795 2.987 1.488-1.372 2.057a1 1 0 0 0 .385 1.45l3.564 1.782a2.888 2.888 0 0 0 -.548 2.818l-2.877 1.151-.722-2.889-1.94.486 1 4 .02-.005a.953.953 0 0 0 .093.277l2.745 4.574-1.7 4.252-2.743 1.827 1.11 1.664 1.911-1.274 1.586 4.758 1.9-.632-1.884-5.653 1.407-3.515 1.974 1.316 1.11-1.664-2.813-1.875-2.28-3.8 3.39-1.356a3 3 0 0 0 1.568.444 2.968 2.968 0 0 0 2.117-.873l1.378-1.378 1.745 1.745-2.747 3.425-1.21-1.21-1.414 1.414 1.95 1.95 2.437 3.249-2.387 2.387 1.414 1.414 3-3a1 1 0 0 0 .093-1.304l-1.8-2.4h5v-2h-4.92l2.7-3.375a.814.814 0 0 0 .041-.077l.01.007 2-3-1.664-1.11-1.322 1.985-1.516-1.515 6.671-6.671zm6.707-19.877a1 1 0 0 0 -1.414 0l-16.171 16.17a1 1 0 0 1 -1.707-.708 1 1 0 0 1 .292-.708l17-17a1 1 0 0 0 .293-.707v-2.17h2v2.17a1 1 0 0 0 .293.707l2.707 2.707v2.832zm27.293 37.877a1 1 0 0 1 -1 1h-2a19.021 19.021 0 0 1 -19-19v-24a2.994 2.994 0 0 1 3-3 18.8 18.8 0 0 1 7.273 1.444 4.773 4.773 0 0 0 -.173.556h-2.1v2h2.1a4.961 4.961 0 0 0 .732 1.753l-1.49 1.49 1.414 1.414 1.49-1.49a4.969 4.969 0 0 0 1.754.733v2.1h2v-2.1a4.969 4.969 0 0 0 1.808-.766 18.952 18.952 0 0 1 4.192 11.866z"/><path d="m52 16h2v2h-2z"/><path d="m55.167 46.247 1.49-1.49-1.414-1.414-1.49 1.49a4.969 4.969 0 0 0 -1.753-.733v-2.1h-2v2.1a4.969 4.969 0 0 0 -1.753.732l-1.49-1.49-1.414 1.414 1.49 1.49a4.961 4.961 0 0 0 -.733 1.754h-2.1v2h2.1a4.961 4.961 0 0 0 .732 1.753l-1.49 1.49 1.414 1.414 1.49-1.49a4.969 4.969 0 0 0 1.754.733v2.1h2v-2.1a4.969 4.969 0 0 0 1.753-.732l1.49 1.49 1.414-1.414-1.49-1.49a4.961 4.961 0 0 0 .733-1.754h2.1v-2h-2.1a4.961 4.961 0 0 0 -.733-1.753zm-4.167 5.753a3 3 0 1 1 3-3 3 3 0 0 1 -3 3z"/><path d="m50 48h2v2h-2z"/><path d="m46 37.9v2.1h2v-2.1a4.969 4.969 0 0 0 1.753-.732l1.49 1.49 1.414-1.414-1.49-1.49a4.961 4.961 0 0 0 .733-1.754h2.1v-2h-2.1a4.961 4.961 0 0 0 -.732-1.753l1.49-1.49-1.414-1.414-1.49 1.49a4.969 4.969 0 0 0 -1.754-.733v-2.1h-2v2.1a4.969 4.969 0 0 0 -1.753.732l-1.49-1.49-1.414 1.414 1.49 1.49a4.961 4.961 0 0 0 -.733 1.754h-2.1v2h2.1a4.961 4.961 0 0 0 .732 1.753l-1.49 1.49 1.414 1.414 1.49-1.49a4.969 4.969 0 0 0 1.754.733zm1-7.9a3 3 0 1 1 -3 3 3 3 0 0 1 3-3z"/><path d="m46 32h2v2h-2z"/></g></svg>