<svg id="Layer_3" height="512" viewBox="0 0 64 64" width="512" xmlns="http://www.w3.org/2000/svg" data-name="Layer 3"><path d="m35 63-.551-6.065 9.551-6.216v12.281z" fill="#e3d3af"/><path d="m63 16a18.949 18.949 0 0 1 -8.472 2h-2.72a18.544 18.544 0 0 1 -7.308-1.5 18.544 18.544 0 0 0 -7.308-1.5h-4.192l-10.666 26 .115.172a17.841 17.841 0 0 1 2.933 8.41 8.089 8.089 0 0 0 8.06 7.418 8.071 8.071 0 0 0 3-.579l4.548-1.821 7.3-.37a19.474 19.474 0 0 0 8.104 1.77 11.91 11.91 0 0 0 6.606-2z" fill="#e5d3af"/><path d="m51.808 22a18.544 18.544 0 0 1 -7.308-1.5 18.519 18.519 0 0 0 -5.024-1.342 13.447 13.447 0 0 1 3.524 9.042v3.083l-1.242-.31a15.91 15.91 0 0 1 -8.612-5.513 8.005 8.005 0 0 1 -.524.914 6.176 6.176 0 0 0 -.921 2.223l-2.416 12.077a2.894 2.894 0 0 1 -4.133 2.02 6.6 6.6 0 0 0 -1.644-.555l-.2.485a17.822 17.822 0 0 1 2.073 6.959 8.089 8.089 0 0 0 11.064 6.839l4.545-1.822 7.3-.37a19.474 19.474 0 0 0 8.104 1.77 11.91 11.91 0 0 0 6.606-2v-34a18.946 18.946 0 0 1 -8.472 2z" fill="#fff7e2"/><path d="m11.232 9.827a9.065 9.065 0 0 1 -7.224-7.765l-.008-.062a15.846 15.846 0 0 0 9.005 4.488" fill="#a37763"/><path d="m32.768 9.827a9.063 9.063 0 0 0 7.224-7.765l.008-.062a15.846 15.846 0 0 1 -9.031 4.492" fill="#a37763"/><path d="m11 16.243.153 7.052a15.02 15.02 0 0 1 -9.153 6.705v-1.8a12.438 12.438 0 0 1 9-11.957z" fill="#916657"/><path d="m4.054 27.139a10.512 10.512 0 0 1 5.01-7.889l.077 3.477a12.918 12.918 0 0 1 -5.087 4.412z" fill="#fff7e2"/><path d="m33 16.243a12.438 12.438 0 0 1 9 11.957v1.8a15.02 15.02 0 0 1 -9.153-6.7z" fill="#916657"/><path d="m39.946 27.139a12.918 12.918 0 0 1 -5.087-4.412l.077-3.477a10.512 10.512 0 0 1 5.01 7.889z" fill="#fff7e2"/><path d="m25.3 4a7.7 7.7 0 0 1 6.014 2.89 7.7 7.7 0 0 1 1.686 4.81v10.119a7.2 7.2 0 0 1 -1.21 4 7.214 7.214 0 0 0 -1.069 2.581l-2.416 12.08a1.9 1.9 0 0 1 -1.858 1.52 1.887 1.887 0 0 1 -.847-.2 7.577 7.577 0 0 0 -3.389-.8h-.422a7.577 7.577 0 0 0 -3.389.8 1.887 1.887 0 0 1 -.847.2 1.9 1.9 0 0 1 -1.853-1.523l-2.421-12.077a7.214 7.214 0 0 0 -1.069-2.583 7.2 7.2 0 0 1 -1.21-4v-10.117a7.7 7.7 0 0 1 1.688-4.81 7.7 7.7 0 0 1 6.012-2.89z" fill="#e3d3af"/><path d="m21.7 5a7.7 7.7 0 0 0 -6.014 2.89 7.7 7.7 0 0 0 -1.686 4.81v10.119a7.2 7.2 0 0 0 1.21 4 7.2 7.2 0 0 1 1.069 2.581l2.421 12.077c.012.061.034.116.051.174a7.578 7.578 0 0 1 3.038-.651h.422a7.577 7.577 0 0 1 3.389.8 1.895 1.895 0 0 0 2.7-1.323l2.421-12.077a7.2 7.2 0 0 1 1.069-2.583 7.2 7.2 0 0 0 1.21-4v-10.117a7.7 7.7 0 0 0 -1.688-4.81 7.669 7.669 0 0 0 -2.154-1.841 7.679 7.679 0 0 0 -.858-.049z" fill="#fff7e2"/><path d="m24 19.983a14.5 14.5 0 0 0 2.066 7.46 14.487 14.487 0 0 1 1.455 3.294l1.639 5.463 1.561-7.8a7.2 7.2 0 0 1 1.069-2.583 7.2 7.2 0 0 0 1.21-4v-9.717l-2.051.205a7.717 7.717 0 0 0 -6.949 7.678z" fill="#bf9275"/><path d="m16.479 30.738a14.487 14.487 0 0 1 1.455-3.294 14.5 14.5 0 0 0 2.066-7.46 7.717 7.717 0 0 0 -6.949-7.678l-2.051-.206v9.719a7.2 7.2 0 0 0 1.21 4 7.2 7.2 0 0 1 1.069 2.581l1.561 7.8z" fill="#a37763"/><path d="m20 19.983a7.712 7.712 0 0 0 -5.981-7.511c0 .077-.019.152-.019.23v10.117a7.2 7.2 0 0 0 1.21 4 7.2 7.2 0 0 1 1.069 2.581l.244 1.22a14.49 14.49 0 0 1 1.411-3.173 14.5 14.5 0 0 0 2.066-7.463z" fill="#bf9275"/><path d="m19.105 38.447-.105-.211a2.224 2.224 0 0 0 -2-1.236v-2a4.212 4.212 0 0 1 3.789 2.342l.106.211z" fill="#383838"/><path d="m24.9 38.447-1.79-.894.106-.211a4.212 4.212 0 0 1 3.784-2.342v2a2.224 2.224 0 0 0 -2 1.236z" fill="#383838"/><path d="m50 48a59.654 59.654 0 0 0 -2.7 12.286l-.3 2.714h-6v-8a8.06 8.06 0 0 0 -.242-1.962 8.093 8.093 0 0 0 -3.36-4.769l-3.398-2.269z" fill="#fff7e2"/><path d="m14 19h2v3h-2z" fill="#383838"/><path d="m28 19h2v3h-2z" fill="#383838"/><path d="m36.333 42a3.334 3.334 0 0 1 -1.333-2.667 3.333 3.333 0 0 1 3.333-3.333 3.334 3.334 0 0 1 2.667 1.333 6.666 6.666 0 0 0 5.333 2.667h.667a2 2 0 0 1 2 2 2 2 0 0 1 -2 2h-4.667a10 10 0 0 1 -6-2z" fill="#bf9275"/><path d="m54.528 18h-2.72a18.555 18.555 0 0 1 -5.808-.945v5.164a6.678 6.678 0 0 0 3.242 5.726 3.621 3.621 0 0 1 1.758 3.105 4.95 4.95 0 0 0 8.45 3.5l3.55-3.55v-15a18.946 18.946 0 0 1 -8.472 2z" fill="#a37763"/><path d="m51.808 22a18.555 18.555 0 0 1 -5.808-.945v1.164a6.678 6.678 0 0 0 3.242 5.726 3.621 3.621 0 0 1 1.758 3.105 4.95 4.95 0 0 0 8.45 3.5l3.55-3.55v-11a18.946 18.946 0 0 1 -8.472 2z" fill="#bf9275"/><circle cx="50" cy="50" fill="#0056c0" r="12"/><path d="m50 38a11.93 11.93 0 0 0 -7.419 2.581 11.988 11.988 0 0 0 16.838 16.838 11.988 11.988 0 0 0 -9.419-19.419z" fill="#0068dd"/><g fill="#8bc000"><path d="m52.379 44.5h4.243v2h-4.243z" transform="matrix(.707 -.707 .707 .707 -16.211 51.864)"/><path d="m43.379 53.5h4.243v2h-4.243z" transform="matrix(.707 -.707 .707 .707 -25.211 48.136)"/><path d="m44.5 43.379h2v4.243h-2z" transform="matrix(.707 -.707 .707 .707 -18.847 45.5)"/><path d="m53.5 52.379h2v4.243h-2z" transform="matrix(.707 -.707 .707 .707 -22.575 54.5)"/></g><circle cx="50" cy="50" fill="#709300" r="5"/><path d="m50 45a4.959 4.959 0 0 0 -2.988 1.012 4.979 4.979 0 0 0 6.976 6.976 4.979 4.979 0 0 0 -3.988-7.988z" fill="#80ac00"/><path d="m49 48h2v-5h1v-2h-4v2h1z" fill="#709300"/><path d="m51 52h-2v5h-1v2h4v-2h-1z" fill="#709300"/><path d="m57 48v1h-5v2h5v1h2v-4z" fill="#709300"/><path d="m48 51v-2h-5v-1h-2v4h2v-1z" fill="#709300"/><path d="m17 35v2a2.224 2.224 0 0 1 2 1.236l.105.211 1.79-.894-.106-.211a4.212 4.212 0 0 0 -3.789-2.342z"/><path d="m23.211 37.342-.106.211 1.79.894.105-.211a2.224 2.224 0 0 1 2-1.236v-2a4.212 4.212 0 0 0 -3.789 2.342z"/><path d="m14 19h2v3h-2z"/><path d="m28 19h2v3h-2z"/><path d="m48.728 28.8a2.632 2.632 0 0 1 1.272 2.25 5.95 5.95 0 0 0 10.157 4.207l3.55-3.55-1.414-1.414-3.55 3.55a3.95 3.95 0 0 1 -6.743-2.793 4.642 4.642 0 0 0 -2.243-3.962 5.709 5.709 0 0 1 -2.757-4.869v-3.843a19.431 19.431 0 0 0 4.808.624h2.72a20.051 20.051 0 0 0 8.919-2.1l-.894-1.79a18.03 18.03 0 0 1 -8.025 1.89h-2.72a17.467 17.467 0 0 1 -6.914-1.419 19.449 19.449 0 0 0 -7.702-1.581h-3.192v-2.3a8.621 8.621 0 0 0 -.083-1.137 10.068 10.068 0 0 0 7.075-8.44 1 1 0 0 0 -1.7-.832 14.927 14.927 0 0 1 -7.988 4.122 8.645 8.645 0 0 0 -6.004-2.413h-6.6a8.644 8.644 0 0 0 -6 2.416 14.932 14.932 0 0 1 -7.993-4.123.986.986 0 0 0 -1.143-.16 1.04 1.04 0 0 0 -.548 1.053 10.039 10.039 0 0 0 7.067 8.378 8.649 8.649 0 0 0 -.083 1.136v3.82a13.494 13.494 0 0 0 -9 12.68v1.8a1 1 0 0 0 1.242.97 15.9 15.9 0 0 0 8.608-5.532 8.251 8.251 0 0 0 .528.932 6.188 6.188 0 0 1 .921 2.224l2.416 12.08a2.894 2.894 0 0 0 4.133 2.021 6.627 6.627 0 0 1 2.938-.695 16.878 16.878 0 0 1 2.6 7.667 9.141 9.141 0 0 0 9.056 8.333c.033 0 .066 0 .1-.005l.464 5.1 1.994-.186-.469-5.161a8.975 8.975 0 0 0 1.29-.4l1.978-.791a12.974 12.974 0 0 0 1.201 1.743v4.7h2v-2.774a12.948 12.948 0 0 0 4.062 2.16l-.056.5 1.988.222.031-.277a12.994 12.994 0 1 0 -4.025-24.351 5.626 5.626 0 0 1 -2.2-1.747 4.334 4.334 0 1 0 -6.067 6.067 10.963 10.963 0 0 0 2.626 1.449 12.868 12.868 0 0 0 -1.005 2.786l-2.8-1.867-1.11 1.664 3.4 2.266c.067.045.129.1.194.143-.014.253-.038.5-.038.759a12.909 12.909 0 0 0 .914 4.757l-1.84.736a7.034 7.034 0 0 1 -2.632.507 7.131 7.131 0 0 1 -7.064-6.5 18.855 18.855 0 0 0 -2.084-7.153 6.522 6.522 0 0 1 .858.347 2.894 2.894 0 0 0 4.133-2.02l2.415-12.081a6.188 6.188 0 0 1 .921-2.224 8.251 8.251 0 0 0 .528-.932 15.9 15.9 0 0 0 8.608 5.532 1 1 0 0 0 1.243-.969v-1.8a13.5 13.5 0 0 0 -7.812-12.2h2a17.467 17.467 0 0 1 6.914 1.419c.294.126.6.22.894.331v4.469a7.719 7.719 0 0 0 3.732 6.581zm12.272 21.2a11 11 0 1 1 -11-11 11.013 11.013 0 0 1 11 11zm-24.066-8.8a2.333 2.333 0 1 1 3.266-3.267 7.649 7.649 0 0 0 1.9 1.767 13.12 13.12 0 0 0 -2.7 2.8 8.952 8.952 0 0 1 -2.466-1.3zm-3.504-32.573a8.629 8.629 0 0 0 -.715-1.461 17.008 17.008 0 0 0 5.325-2.293 8.038 8.038 0 0 1 -4.61 3.754zm-27.456-3.745a16.982 16.982 0 0 0 5.312 2.283 8.719 8.719 0 0 0 -.716 1.462 8.015 8.015 0 0 1 -4.596-3.745zm-2.974 23.775v-.457a11.487 11.487 0 0 1 7-10.531v4.154a8.165 8.165 0 0 0 .1 1.253 13.917 13.917 0 0 1 -7.1 5.581zm9-6.838v-8.614l.951.1a6.7 6.7 0 0 1 6.049 6.678 13.5 13.5 0 0 1 -1.924 6.947 15.521 15.521 0 0 0 -1.555 3.521l-.487 1.621-.774-3.872a8.162 8.162 0 0 0 -1.218-2.941 6.179 6.179 0 0 1 -1.042-3.44zm14.047 19.086a8.626 8.626 0 0 0 -3.836-.905h-.422a8.626 8.626 0 0 0 -3.836.905.918.918 0 0 1 -1.277-.624l-.807-4.032 1.568-5.224a13.507 13.507 0 0 1 1.354-3.066 15.5 15.5 0 0 0 2.209-7.976 8.69 8.69 0 0 0 -7.85-8.673l-1.107-.11a6.649 6.649 0 0 1 6.657-6.2h6.6a6.648 6.648 0 0 1 6.658 6.2l-1.107.111a8.69 8.69 0 0 0 -7.851 8.672 15.5 15.5 0 0 0 2.209 7.976 13.507 13.507 0 0 1 1.354 3.066l1.568 5.224-.807 4.033a.918.918 0 0 1 -1.277.623zm4.911-15.645a8.162 8.162 0 0 0 -1.218 2.94l-.774 3.871-.487-1.622a15.533 15.533 0 0 0 -1.555-3.52 13.5 13.5 0 0 1 -1.924-6.946 6.7 6.7 0 0 1 6.049-6.683l.951-.1v8.614a6.179 6.179 0 0 1 -1.042 3.446zm10.042 2.94v.461a13.917 13.917 0 0 1 -7.1-5.585 8.165 8.165 0 0 0 .1-1.253v-4.158a11.487 11.487 0 0 1 7 10.535z"/><path d="m41 48v4h2v-1h1.09a5.964 5.964 0 0 0 1.025 2.471l-1.822 1.822 1.414 1.414 1.822-1.822a5.964 5.964 0 0 0 2.471 1.025v1.09h-1v2h4v-2h-1v-1.09a5.964 5.964 0 0 0 2.471-1.025l1.822 1.822 1.414-1.414-1.822-1.822a5.964 5.964 0 0 0 1.025-2.471h1.09v1h2v-4h-2v1h-1.09a5.964 5.964 0 0 0 -1.025-2.471l1.822-1.822-1.414-1.414-1.822 1.822a5.964 5.964 0 0 0 -2.471-1.025v-1.09h1v-2h-4v2h1v1.09a5.964 5.964 0 0 0 -2.471 1.025l-1.822-1.822-1.414 1.414 1.822 1.822a5.964 5.964 0 0 0 -1.025 2.471h-1.09v-1zm8-1.858v1.858h2v-1.858a4 4 0 0 1 2.858 2.858h-1.858v2h1.858a4 4 0 0 1 -2.858 2.858v-1.858h-2v1.858a4 4 0 0 1 -2.858-2.858h1.858v-2h-1.858a4 4 0 0 1 2.858-2.858z"/></svg>