<svg height="512" viewBox="0 0 48 48" width="512" xmlns="http://www.w3.org/2000/svg"><g id="Snot_Virus" data-name="Snot Virus"><path d="m37 31.66a4.06 4.06 0 0 1 -3.27 4l-3.26.65c-.59-1.4-1.16-2.65-1.39-3.11a5.83 5.83 0 0 0 -.87 2 6.4 6.4 0 0 1 -10.58 3.12c-2.3-2.12-1.31-3.4-3-5.46-.35.78-.89 2-1.46 3.42l-2.91-.58a4.07 4.07 0 0 1 -3.27-4c0-.94-.54 1 8.42-25.92a7 7 0 0 1 10.65-3.47c1.99 1.44 2.41 3.11 2.94 4.69-7.6 5.7-3.66 18 6 18 1.9 5.67 2 5.75 2 6.66z" fill="#f6ccaf"/><path d="m36.87 30.66a4 4 0 0 1 -3.14 3l-3.26.65c-.59-1.4-1.16-2.65-1.39-3.11a5.83 5.83 0 0 0 -.87 2 6.4 6.4 0 0 1 -10.58 3.12c-2.3-2.12-1.31-3.4-3-5.46-.35.78-.89 2-1.46 3.42l-2.63-.52a4.08 4.08 0 0 1 -.54-2.1c0-.94-.54 1 8.42-25.92a6.89 6.89 0 0 1 5.08-4.57 6.8 6.8 0 0 1 2.56 1.14c1.94 1.41 2.38 3.02 2.94 4.69-7.6 5.76-3.64 18 6 18 2 6 1.85 5.54 1.87 5.66z" fill="#ffdec7"/><path d="m19 43a4 4 0 0 1 -8 0c0-2 3.15-9.14 3.64-10.19a6 6 0 0 1 1.13 2.26c.66 2.65 2 3 2 3.61a18.45 18.45 0 0 1 1.23 4.32z" fill="#9dcc6b"/><path d="m18.64 44.64a4 4 0 0 1 -5.64-3.64c0-1.63 2.18-6.73 2.32-7.12.69 1.27.46 2.69 2.31 4.39 1.11 2.93 1.8 4.66 1.01 6.37z" fill="#b5e08c"/><path d="m32 41a3 3 0 0 1 -6 0 14.68 14.68 0 0 1 1-3.41c1.48-1.88.9-2.73 2.07-4.4.65 1.27 2.93 6.4 2.93 7.81z" fill="#9dcc6b"/><path d="m32 41.24a3 3 0 0 1 -5-2.24 8.46 8.46 0 0 1 .59-2.29 5.25 5.25 0 0 0 .54-1.29 5.78 5.78 0 0 0 1-2.08c.54 1.05 3.13 6.77 2.87 7.9z" fill="#b5e08c"/><path d="m45 15a10 10 0 0 1 -2 6c-5.76 7.67-18 3.54-18-6a10 10 0 0 1 4-8 10 10 0 0 1 16 8z" fill="#dad7e5"/><path d="m35.56 26.67a10 10 0 0 1 -8.56-17.67 10.26 10.26 0 0 0 -2 6 10 10 0 0 0 10 10z" fill="#f6ccaf"/><path d="m45 15a10 10 0 0 1 -2 6 10 10 0 0 1 -16-8 10.23 10.23 0 0 1 2-6 10 10 0 0 1 16 8z" fill="#edebf2"/><circle cx="35" cy="15" fill="#9dcc6b" r="4"/><path d="m18.25 40a6.2 6.2 0 0 1 -1.25-1c-2.18-2-1.84-3.71-2.78-5.13.1-.2.18-.39.25-.56.68 1.33.49 3.29 3.35 5.37.18.44.28.87.43 1.32z" fill="#9dcc6b"/><path d="m29.59 34.28c-.57 1.07-.64 3.45-3.3 5.34.12-.42.28-.88.47-1.37a8.23 8.23 0 0 0 2.6-4.47z" fill="#9dcc6b"/><g fill="#231f20"><path d="m46 15a11 11 0 0 0 -16.46-9.54 8 8 0 0 0 -15.07 0c-8.87 26.54-8.47 25.02-8.47 26.2a5.08 5.08 0 0 0 4.07 5l1.73.34c-1.8 4.51-1.8 5.62-1.8 6a5 5 0 0 0 10 0 8.87 8.87 0 0 0 -.51-2.45 7.21 7.21 0 0 0 5.59-.25 4 4 0 1 0 7.92.7 14.27 14.27 0 0 0 -1.15-4c2.09-.41 3.64-.5 5-2.17a5.06 5.06 0 0 0 .89-4.82l-1.38-4.14a11 11 0 0 0 9.64-10.87zm-31 31a3 3 0 0 1 -3-3c0-1.42 2.18-6.59 2.73-7.87a7.6 7.6 0 0 0 2 3.67 15.79 15.79 0 0 1 1.27 4.2 3 3 0 0 1 -3 3zm14-3a2 2 0 0 1 -2-2 10.88 10.88 0 0 1 .94-3 7.52 7.52 0 0 0 1.15-2.34 25 25 0 0 1 1.91 5.34 2 2 0 0 1 -2 2zm6.31-9.39c-.91 1.1-2 1.1-4.24 1.55-.32-.75-.62-1.39-.82-1.84a4.71 4.71 0 0 1 2.06-1.32 1 1 0 0 0 -.62-1.9 6.77 6.77 0 0 0 -4.45 4.86 5.4 5.4 0 0 1 -8.93 2.62c-1.95-1.79-1.13-3.19-2.9-5.36-1.09-1.33-3.8-3.14-4.36-1.49a1 1 0 0 0 .63 1.27 4.88 4.88 0 0 1 1.78 1c-.26.58-.56 1.3-.89 2.08l-2.1-.42a3.07 3.07 0 0 1 -2.31-4l8.21-24.6c1.7-5.06 9.28-5.95 11.47.61a11 11 0 0 0 6.43 19.33l1.57 4.73a3.06 3.06 0 0 1 -.53 2.88zm-.31-9.61a9 9 0 1 1 9-9 9 9 0 0 1 -9 9z"/><path d="m41 14c-2 0-.5.26-1.83-1.75l.78-.78a1 1 0 0 0 -1.42-1.42l-.78.78c-1.93-1.28-1.75.09-1.75-1.83a1 1 0 0 0 -2 0c0 2 .26.5-1.75 1.83l-.78-.78a1 1 0 0 0 -1.42 1.42l.78.78c-1.28 1.93.09 1.75-1.83 1.75a1 1 0 0 0 0 2c2 0 .5-.26 1.83 1.75l-.78.78a1 1 0 0 0 1.42 1.47c1.42-1.42.15-.54 2.53-.05v1.05a1 1 0 0 0 2 0v-1.1c2.32-.47 1.13-1.35 2.53.05a1 1 0 0 0 1.47-1.42l-.78-.78c1.23-1.93-.14-1.75 1.78-1.75a1 1 0 0 0 0-2zm-6 4a3 3 0 1 1 3-3 3 3 0 0 1 -3 3z"/><path d="m34 13a1 1 0 0 0 0 2 1 1 0 0 0 0-2z"/><path d="m36 15a1 1 0 0 0 0 2 1 1 0 0 0 0-2z"/></g></g></svg>