<?xml version="1.0" encoding="UTF-8" standalone="no"?>
<!-- Created with Inkscape (http://www.inkscape.org/) -->

<svg
   version="1.1"
   id="svg10401"
   width="682.66669"
   height="682.66669"
   viewBox="0 0 682.66669 682.66669"
   xmlns="http://www.w3.org/2000/svg"
   xmlns:svg="http://www.w3.org/2000/svg">
  <defs
     id="defs10405">
    <clipPath
       clipPathUnits="userSpaceOnUse"
       id="clipPath10415">
      <path
         d="M 0,512 H 512 V 0 H 0 Z"
         id="path10413" />
    </clipPath>
  </defs>
  <g
     id="g10407"
     transform="matrix(1.3333333,0,0,-1.3333333,0,682.66667)">
    <g
       id="g10409">
      <g
         id="g10411"
         clip-path="url(#clipPath10415)">
        <g
           id="g10417"
           transform="translate(199.2886,196.5986)">
          <path
             d="m 0,0 11.727,117.313 h 89.969 L 113.423,0 C 116.778,-33.563 90.431,-62.688 56.711,-62.688 22.992,-62.688 -3.355,-33.563 0,0"
             style="fill:#ffaaa1;fill-opacity:1;fill-rule:nonzero;stroke:none"
             id="path10419" />
        </g>
        <g
           id="g10421"
           transform="translate(363.2886,225.1846)">
          <path
             d="m 0,0 11.727,117.313 h 89.969 L 113.423,0 C 116.778,-33.563 90.431,-62.688 56.711,-62.688 22.992,-62.688 -3.355,-33.563 0,0"
             style="fill:#ffc4bf;fill-opacity:1;fill-rule:nonzero;stroke:none"
             id="path10423" />
        </g>
        <g
           id="g10425"
           transform="translate(35.2886,225.1846)">
          <path
             d="m 0,0 11.727,117.313 h 89.969 L 113.423,0 C 116.778,-33.563 90.431,-62.688 56.711,-62.688 22.992,-62.688 -3.355,-33.563 0,0"
             style="fill:#ffaaa1;fill-opacity:1;fill-rule:nonzero;stroke:none"
             id="path10427" />
        </g>
        <g
           id="g10429"
           transform="translate(443.0977,317.3398)">
          <path
             d="m 0,0 c -38.42,-35 -85.39,-58.43 -135.65,-67.989 -136.119,8.489 -208.887,103.17 -208.887,198.139 0,19.781 20.774,40.025 54.147,57.01 H 47.53 c 4.76,0 8.83,-3.349 9.81,-8.01 C 71.1,113.48 49.39,45.011 0,0"
             style="fill:#ffc4bf;fill-opacity:1;fill-rule:nonzero;stroke:none"
             id="path10431" />
        </g>
        <g
           id="g10433"
           transform="translate(307.4521,249.3506)">
          <path
             d="m 0,0 c -16.84,-3.2 -34.06,-4.851 -51.44,-4.851 -69.01,0 -135.61,25.931 -187.1,72.84 -49.651,45.004 -71.043,114.457 -57.354,179.176 0.982,4.644 5.055,7.984 9.801,7.984 h 131.353 c -5.61,-18.099 -8.62,-37.229 -8.62,-57.009 C -163.36,103.17 -94.05,23.279 0,0"
             style="fill:#ffaaa1;fill-opacity:1;fill-rule:nonzero;stroke:none"
             id="path10435" />
        </g>
        <g
           id="g10437"
           transform="translate(203.749,386.1338)">
          <path
             d="M 0,0 C 0.006,-13.438 -13.667,-24.338 -30.541,-24.346 -47.416,-24.354 -61.1,-13.468 -61.107,-0.03 -61.114,13.407 -47.44,24.308 -30.565,24.316 -13.692,24.325 -0.007,13.438 0,0"
             style="fill:#ffffff;fill-opacity:1;fill-rule:nonzero;stroke:none"
             id="path10439" />
        </g>
        <g
           id="g10441"
           transform="translate(308.251,386.1865)">
          <path
             d="M 0,0 C 0.007,-13.438 13.692,-24.324 30.566,-24.315 47.44,-24.307 61.113,-13.407 61.107,0.03 61.1,13.469 47.416,24.355 30.541,24.347 13.667,24.338 -0.006,13.438 0,0"
             style="fill:#ffffff;fill-opacity:1;fill-rule:nonzero;stroke:none"
             id="path10443" />
        </g>
        <g
           id="g10445"
           transform="translate(285.9438,397.1748)">
          <path
             d="M 0,0 C -0.009,18.51 -13.419,20.242 -29.959,20.233 -46.5,20.226 -59.908,18.479 -59.899,-0.03 -59.89,-18.539 -46.473,-33.536 -29.933,-33.528 -13.392,-33.52 0.009,-18.509 0,0"
             style="fill:#666667;fill-opacity:1;fill-rule:nonzero;stroke:none"
             id="path10447" />
        </g>
        <g
           id="g10449"
           transform="translate(420,36.0859)">
          <path
             d="m 0,0 c -18.41,0 -33.333,20.192 -33.333,39.917 0,23.518 16.422,43.622 26.213,53.519 3.925,3.967 10.315,3.967 14.24,0 C 16.911,83.539 33.333,63.435 33.333,39.917 33.333,20.192 18.41,0 0,0"
             style="fill:#fff8e6;fill-opacity:1;fill-rule:nonzero;stroke:none"
             id="path10451" />
        </g>
        <g
           id="g10453"
           transform="translate(92,36.0859)">
          <path
             d="m 0,0 c -18.41,0 -33.333,20.192 -33.333,39.917 0,23.518 16.422,43.622 26.213,53.519 3.925,3.967 10.315,3.967 14.24,0 C 16.911,83.539 33.333,63.435 33.333,39.917 33.333,20.192 18.41,0 0,0"
             style="fill:#fff8e6;fill-opacity:1;fill-rule:nonzero;stroke:none"
             id="path10455" />
        </g>
        <g
           id="g10457"
           transform="translate(255.9946,7.5)">
          <path
             d="m 0,0 c -18.41,0 -33.333,20.192 -33.333,39.917 0,23.518 16.422,43.622 26.213,53.519 3.925,3.967 10.314,3.967 14.24,0 C 16.911,83.539 33.333,63.435 33.333,39.917 33.333,20.192 18.409,0 0,0"
             style="fill:#fff8e6;fill-opacity:1;fill-rule:nonzero;stroke:none"
             id="path10459" />
        </g>
        <g
           id="g10461"
           transform="translate(208.8799,292.5)">
          <path
             d="m 0,0 -9.59,-95.9 c -0.19,-1.94 -0.29,-3.86 -0.29,-5.77 0,-25.08 16.44,-46.76 39.5,-54.18"
             style="fill:none;stroke:#000000;stroke-width:15;stroke-linecap:round;stroke-linejoin:round;stroke-miterlimit:10;stroke-dasharray:none;stroke-opacity:1"
             id="path10463" />
        </g>
        <g
           id="g10465"
           transform="translate(303.1201,292.5)">
          <path
             d="m 0,0 9.59,-95.9 c 2.75,-27.47 -14.4,-51.97 -39.21,-59.95"
             style="fill:none;stroke:#000000;stroke-width:15;stroke-linecap:round;stroke-linejoin:round;stroke-miterlimit:10;stroke-dasharray:none;stroke-opacity:1"
             id="path10467" />
        </g>
        <g
           id="g10469"
           transform="translate(144.4199,268.0898)">
          <path
             d="M 0,0 C 19.26,-8.51 39.44,-14.8 60.14,-18.74"
             style="fill:none;stroke:#000000;stroke-width:15;stroke-linecap:round;stroke-linejoin:round;stroke-miterlimit:10;stroke-dasharray:none;stroke-opacity:1"
             id="path10471" />
        </g>
        <g
           id="g10473"
           transform="translate(484.0298,371.2598)">
          <path
             d="M 0,0 C -5.32,-10.54 -11.64,-20.6 -18.92,-30.029"
             style="fill:none;stroke:#000000;stroke-width:15;stroke-linecap:round;stroke-linejoin:round;stroke-miterlimit:10;stroke-dasharray:none;stroke-opacity:1"
             id="path10475" />
        </g>
        <g
           id="g10477"
           transform="translate(46.8911,341.2002)">
          <path
             d="m 0,0 c -33.68,43.689 -46.79,101.16 -35.33,155.319 0.98,4.641 5.06,7.981 9.8,7.981 h 469.269 c 4.75,0 8.83,-3.35 9.81,-8 6.53,-31.2 5.07,-63.03 -3.57,-92.67"
             style="fill:none;stroke:#000000;stroke-width:15;stroke-linecap:round;stroke-linejoin:round;stroke-miterlimit:10;stroke-dasharray:none;stroke-opacity:1"
             id="path10479" />
        </g>
        <g
           id="g10481"
           transform="translate(307.4399,249.3496)">
          <path
             d="M 0,0 C 20.73,3.94 40.9,10.24 60.14,18.75"
             style="fill:none;stroke:#000000;stroke-width:15;stroke-linecap:round;stroke-linejoin:round;stroke-miterlimit:10;stroke-dasharray:none;stroke-opacity:1"
             id="path10483" />
        </g>
        <g
           id="g10485"
           transform="translate(465.1099,341.2305)">
          <path
             d="m 0,0 11.6,-116.051 c 3.36,-33.559 -22.99,-62.679 -56.71,-62.679 -31.77,0 -57,25.849 -57,56.91 0,1.91 0.1,3.83 0.29,5.769 l 8.73,87.321"
             style="fill:none;stroke:#000000;stroke-width:15;stroke-linecap:round;stroke-linejoin:round;stroke-miterlimit:10;stroke-dasharray:none;stroke-opacity:1"
             id="path10487" />
        </g>
        <g
           id="g10489"
           transform="translate(139.98,312.5)">
          <path
             d="m 0,0 8.73,-87.32 c 3.36,-33.56 -22.99,-62.68 -56.71,-62.68 -31.77,0 -57,25.85 -57,56.91 0,1.91 0.1,3.83 0.29,5.77 l 11.6,116.02"
             style="fill:none;stroke:#000000;stroke-width:15;stroke-linecap:round;stroke-linejoin:round;stroke-miterlimit:10;stroke-dasharray:none;stroke-opacity:1"
             id="path10491" />
        </g>
        <g
           id="g10493"
           transform="translate(285.9438,397.1748)">
          <path
             d="M 0,0 C -0.009,18.51 -13.419,20.242 -29.959,20.233 -46.5,20.226 -59.908,18.479 -59.899,-0.03 -59.89,-18.539 -46.473,-33.536 -29.933,-33.528 -13.392,-33.52 0.009,-18.509 0,0 Z"
             style="fill:none;stroke:#000000;stroke-width:15;stroke-linecap:round;stroke-linejoin:round;stroke-miterlimit:10;stroke-dasharray:none;stroke-opacity:1"
             id="path10495" />
        </g>
        <g
           id="g10497"
           transform="translate(205.5312,412.6113)">
          <path
             d="M 0,0 C -0.004,8.032 -6.518,14.54 -14.55,14.535 -22.582,14.531 -29.089,8.018 -29.085,-0.015"
             style="fill:none;stroke:#000000;stroke-width:15;stroke-linecap:round;stroke-linejoin:round;stroke-miterlimit:10;stroke-dasharray:none;stroke-opacity:1"
             id="path10499" />
        </g>
        <g
           id="g10501"
           transform="translate(306.4419,412.6621)">
          <path
             d="M 0,0 C -0.004,8.032 6.504,14.546 14.536,14.55 22.567,14.555 29.082,8.047 29.085,0.015"
             style="fill:none;stroke:#000000;stroke-width:15;stroke-linecap:round;stroke-linejoin:round;stroke-miterlimit:10;stroke-dasharray:none;stroke-opacity:1"
             id="path10503" />
        </g>
        <g
           id="g10505"
           transform="translate(420,36.0859)">
          <path
             d="m 0,0 c -18.41,0 -33.333,20.192 -33.333,39.917 0,23.518 16.422,43.622 26.213,53.519 3.925,3.967 10.315,3.967 14.24,0 C 16.911,83.539 33.333,63.435 33.333,39.917 33.333,20.192 18.41,0 0,0 Z"
             style="fill:none;stroke:#000000;stroke-width:15;stroke-linecap:round;stroke-linejoin:round;stroke-miterlimit:10;stroke-dasharray:none;stroke-opacity:1"
             id="path10507" />
        </g>
        <g
           id="g10509"
           transform="translate(92,36.0859)">
          <path
             d="m 0,0 c -18.41,0 -33.333,20.192 -33.333,39.917 0,23.518 16.422,43.622 26.213,53.519 3.925,3.967 10.315,3.967 14.24,0 C 16.911,83.539 33.333,63.435 33.333,39.917 33.333,20.192 18.41,0 0,0 Z"
             style="fill:none;stroke:#000000;stroke-width:15;stroke-linecap:round;stroke-linejoin:round;stroke-miterlimit:10;stroke-dasharray:none;stroke-opacity:1"
             id="path10511" />
        </g>
        <g
           id="g10513"
           transform="translate(255.9946,7.5)">
          <path
             d="m 0,0 c -18.41,0 -33.333,20.192 -33.333,39.917 0,23.518 16.422,43.622 26.213,53.519 3.925,3.967 10.314,3.967 14.24,0 C 16.911,83.539 33.333,63.435 33.333,39.917 33.333,20.192 18.409,0 0,0 Z"
             style="fill:none;stroke:#000000;stroke-width:15;stroke-linecap:round;stroke-linejoin:round;stroke-miterlimit:10;stroke-dasharray:none;stroke-opacity:1"
             id="path10515" />
        </g>
      </g>
    </g>
  </g>
</svg>
