<svg id="Layer_1" enable-background="new 0 0 450 450" viewBox="0 0 450 450" xmlns="http://www.w3.org/2000/svg"><g id="_x35_076_-_Desert_Hot_Weather"><g><g id="XMLID_14_"><g><g><path d="m366.14 336.04h39.15l8.35 19.25-12.84 15.4 39.15 19.26h1.05v17.97h-131.33l8.98-17.33-21.82-23.75 28.88-9.62-12.34-21.18z" fill="#f9ebc9"/></g><g><path d="m441 336.04v53.91h-1.05l-39.15-19.26 12.84-15.4-8.35-19.25h13.75z" fill="#f9ebc9"/></g><g><path d="m381.11 258.64c24.07 9.43 39.54 42.37 37.93 77.4h-13.75-39.15-52.77-63.38-63.86-12.26c.12-3.81.52-7.66 1.23-11.5 5.32-29.01 25.72-46.23 45.57-38.46 1.45.57 2.87 1.27 4.23 2.07 11.44-28.24 34.7-43.13 57.45-34.22 18.7 7.33 32.21 28.85 36.55 54.52 8.23-38.05 35.58-60.25 62.21-49.81z" fill="#c8866a"/></g><g><circle cx="307.4" cy="125.54" fill="#fed330" r="41.27"/></g><g><path d="m249.99 336.04h63.38l12.34 21.18-28.88 9.62 21.82 23.75-8.98 17.33h-219.16l8.98-17.33-21.82-23.75 28.88-9.62-12.34-21.18h52.77 26.89 12.26z" fill="#f9ebc9"/></g><g><path d="m120.92 196.5v32.5c0 4.98-4.08 9.06-9.06 9.06h-37.36v-18.12h28.3v-23.44c0-2.49 1.02-4.76 2.66-6.4s3.91-2.66 6.4-2.66c4.98 0 9.06 4.08 9.06 9.06z" fill="#56d280"/></g><g><path d="m30.82 336.04h24.65 19.03 19.71l12.34 21.18-28.88 9.62 21.82 23.75-8.98 17.33h-81.51v-71.88z" fill="#f9ebc9"/></g><g><path d="m74.5 238.06v97.98h-19.03v-57.68-18.11-83.03c0-2.62 1.07-4.99 2.79-6.72 1.73-1.72 4.1-2.79 6.72-2.79 5.24 0 9.52 4.28 9.52 9.51v42.72z" fill="#65f696"/></g><g><path d="m55.47 260.25v18.11h-.05-37.36c-4.98 0-9.06-4.07-9.06-9.05v-54.23c0-4.98 4.08-9.06 9.06-9.06 2.49 0 4.76 1.02 6.4 2.66s2.66 3.91 2.66 6.4v45.17h28.3z" fill="#56d280"/></g></g><g><g><path d="m74.5 341.04c-2.761 0-5-2.238-5-5v-158.82c0-2.487-2.028-4.51-4.52-4.51-1.194 0-2.329.475-3.195 1.336-.84.846-1.314 1.98-1.314 3.174v158.82c0 2.762-2.239 5-5 5s-5-2.238-5-5v-158.82c0-3.854 1.507-7.492 4.244-10.245 2.774-2.758 6.413-4.265 10.266-4.265 8.006 0 14.52 6.509 14.52 14.51v158.82c-.001 2.762-2.24 5-5.001 5z"/></g><g><path d="m111.86 243.06h-37.36c-2.761 0-5-2.238-5-5s2.239-5 5-5h37.36c2.201 0 4.06-1.859 4.06-4.06v-32.5c0-2.201-1.859-4.06-4.06-4.06-1.076 0-2.093.425-2.864 1.196s-1.196 1.788-1.196 2.864v23.44c0 2.761-2.239 5-5 5h-28.3c-2.761 0-5-2.239-5-5s2.239-5 5-5h23.3v-18.44c0-3.747 1.465-7.275 4.125-9.936 2.66-2.66 6.188-4.125 9.936-4.125 7.753 0 14.06 6.307 14.06 14.06v32.501c-.001 7.753-6.308 14.06-14.061 14.06z"/></g><g><path d="m55.42 283.36h-37.36c-7.753 0-14.06-6.303-14.06-14.051v-54.229c0-7.753 6.307-14.06 14.06-14.06 3.747 0 7.275 1.465 9.936 4.125 2.66 2.659 4.125 6.188 4.125 9.936v40.17h23.3c2.761 0 5 2.238 5 5s-2.239 5-5 5h-28.3c-2.761 0-5-2.238-5-5v-45.17c0-1.076-.424-2.093-1.195-2.864s-1.789-1.196-2.865-1.196c-2.201 0-4.06 1.859-4.06 4.06v54.229c0 2.233 1.821 4.051 4.06 4.051h37.36c2.761 0 5 2.238 5 5s-2.24 4.999-5.001 4.999z"/></g><g><path d="m441 412.92h-432c-2.761 0-5-2.238-5-5v-71.88c0-2.762 2.239-5 5-5h432c2.762 0 5 2.238 5 5v71.88c0 2.762-2.238 5-5 5zm-427-10h422v-61.88h-422z"/></g><g><path d="m307.4 171.81c-25.514 0-46.271-20.757-46.271-46.27s20.757-46.27 46.271-46.27c25.513 0 46.27 20.757 46.27 46.27s-20.757 46.27-46.27 46.27zm0-82.54c-20 0-36.271 16.271-36.271 36.27s16.271 36.27 36.271 36.27c19.999 0 36.27-16.271 36.27-36.27s-16.271-36.27-36.27-36.27z"/></g><g><path d="m307.4 67.38c-2.762 0-5-2.239-5-5v-20.3c0-2.761 2.238-5 5-5s5 2.239 5 5v20.3c0 2.761-2.238 5-5 5z"/></g><g><path d="m338.976 75.841c-.849 0-1.708-.216-2.496-.671-2.392-1.381-3.21-4.439-1.828-6.831l10.149-17.57c1.38-2.392 4.438-3.209 6.83-1.829 2.392 1.381 3.21 4.439 1.828 6.831l-10.149 17.57c-.926 1.603-2.607 2.5-4.334 2.5z"/></g><g><path d="m362.104 98.961c-1.728 0-3.408-.896-4.334-2.5-1.382-2.391-.563-5.449 1.828-6.831l17.57-10.15c2.389-1.382 5.449-.563 6.83 1.829 1.382 2.391.563 5.449-1.828 6.831l-17.57 10.15c-.787.455-1.647.671-2.496.671z"/></g><g><path d="m390.85 130.54h-20.29c-2.762 0-5-2.239-5-5s2.238-5 5-5h20.29c2.762 0 5 2.239 5 5s-2.239 5-5 5z"/></g><g><path d="m379.665 172.261c-.848 0-1.707-.216-2.494-.67l-17.57-10.14c-2.392-1.38-3.212-4.438-1.832-6.83 1.381-2.392 4.437-3.213 6.83-1.832l17.57 10.14c2.392 1.38 3.212 4.438 1.832 6.83-.927 1.604-2.607 2.502-4.336 2.502z"/></g><g><path d="m349.135 202.811c-1.729 0-3.409-.897-4.335-2.501l-10.149-17.58c-1.381-2.392-.562-5.45 1.83-6.83 2.391-1.382 5.449-.561 6.83 1.83l10.149 17.58c1.381 2.392.562 5.45-1.83 6.83-.787.455-1.648.671-2.495.671z"/></g><g><path d="m244.24 130.54h-20.29c-2.761 0-5-2.239-5-5s2.239-5 5-5h20.29c2.762 0 5 2.239 5 5s-2.238 5-5 5z"/></g><g><path d="m252.695 98.961c-.849 0-1.708-.216-2.496-.671l-17.57-10.15c-2.392-1.381-3.21-4.439-1.828-6.831 1.381-2.391 4.438-3.211 6.83-1.829l17.57 10.15c2.392 1.381 3.21 4.439 1.828 6.831-.925 1.603-2.606 2.5-4.334 2.5z"/></g><g><path d="m275.825 75.841c-1.729 0-3.409-.897-4.335-2.501l-10.14-17.57c-1.381-2.392-.561-5.45 1.831-6.83s5.449-.561 6.829 1.831l10.141 17.57c1.381 2.392.561 5.45-1.831 6.83-.788.454-1.647.67-2.495.67z"/></g><g><path d="m307.4 213.99c-2.762 0-5-2.239-5-5v-20.29c0-2.761 2.238-5 5-5s5 2.239 5 5v20.29c0 2.761-2.238 5-5 5z"/></g><g><path d="m265.675 202.811c-.848 0-1.706-.216-2.493-.67-2.393-1.38-3.213-4.438-1.833-6.829l10.141-17.58c1.379-2.392 4.437-3.214 6.829-1.833 2.393 1.38 3.213 4.438 1.833 6.829l-10.141 17.58c-.926 1.605-2.608 2.503-4.336 2.503z"/></g><g><path d="m235.135 172.261c-1.729 0-3.409-.897-4.336-2.502-1.38-2.392-.56-5.449 1.832-6.83l17.57-10.14c2.391-1.38 5.449-.561 6.83 1.832 1.38 2.392.56 5.449-1.832 6.83l-17.57 10.14c-.787.453-1.647.67-2.494.67z"/></g><g><path d="m26.33 396.23c-1.248 0-2.498-.465-3.468-1.398-1.989-1.916-2.049-5.081-.133-7.07l14.615-15.175-11.282-35.014c-.847-2.628.597-5.445 3.225-6.292 2.632-.847 5.446.598 6.292 3.226l12.2 37.86c.565 1.753.121 3.675-1.157 5.002l-16.69 17.33c-.982 1.019-2.291 1.531-3.602 1.531z"/></g><g><path d="m90.506 412.921c-.775 0-1.561-.181-2.296-.562-2.452-1.271-3.41-4.288-2.139-6.74l7.371-14.223-19.453-21.174c-1.147-1.249-1.583-2.993-1.159-4.635.425-1.642 1.652-2.956 3.261-3.492l23.042-7.675-9.243-15.864c-1.39-2.386-.583-5.446 1.803-6.837 2.387-1.39 5.447-.583 6.837 1.804l12.34 21.18c.758 1.301.889 2.873.358 4.282-.532 1.408-1.67 2.502-3.098 2.979l-21.554 7.18 16.596 18.063c1.421 1.547 1.724 3.818.757 5.684l-8.98 17.33c-.889 1.716-2.635 2.7-4.443 2.7z"/></g><g><path d="m153.404 391.741c-1.741 0-3.432-.91-4.353-2.533l-13.48-23.75c-.643-1.134-.818-2.474-.488-3.734l7.06-26.95c.699-2.672 3.432-4.271 6.104-3.57 2.671.7 4.27 3.433 3.57 6.104l-6.545 24.983 12.477 21.982c1.363 2.401.521 5.453-1.88 6.816-.78.442-1.628.652-2.465.652z"/></g><g><path d="m229.773 387.241c-.386 0-.778-.045-1.171-.139l-48.129-11.55c-1.681-.403-3.034-1.647-3.579-3.288s-.203-3.446.904-4.774l10.86-13.036-7.117-16.427c-1.098-2.533.066-5.478 2.6-6.575 2.533-1.097 5.478.066 6.576 2.601l8.34 19.25c.75 1.731.461 3.737-.747 5.188l-7.678 9.217 40.303 9.671c2.685.645 4.339 3.344 3.695 6.029-.549 2.292-2.598 3.833-4.857 3.833z"/></g><g><path d="m245.489 396.23c-1.248 0-2.497-.465-3.468-1.398-1.988-1.916-2.048-5.081-.133-7.07l14.615-15.176-11.273-35.014c-.846-2.629.599-5.445 3.228-6.292 2.625-.849 5.445.599 6.292 3.228l12.189 37.86c.564 1.753.119 3.674-1.158 5.001l-16.689 17.33c-.982 1.019-2.291 1.531-3.603 1.531z"/></g><g><path d="m309.666 412.921c-.775 0-1.562-.181-2.297-.562-2.451-1.271-3.409-4.288-2.139-6.74l7.371-14.223-19.453-21.174c-1.147-1.249-1.584-2.993-1.159-4.635s1.652-2.956 3.261-3.492l23.042-7.675-9.242-15.864c-1.39-2.386-.583-5.446 1.804-6.837 2.385-1.39 5.447-.583 6.837 1.804l12.34 21.18c.758 1.301.89 2.873.357 4.282-.531 1.408-1.669 2.502-3.098 2.979l-21.554 7.18 16.596 18.063c1.422 1.547 1.725 3.818.758 5.684l-8.98 17.33c-.89 1.716-2.635 2.7-4.444 2.7z"/></g><g><path d="m372.564 391.741c-1.742 0-3.434-.911-4.354-2.534l-13.47-23.75c-.643-1.133-.817-2.472-.487-3.732l7.05-26.95c.698-2.672 3.427-4.274 6.103-3.571 2.671.698 4.271 3.431 3.571 6.103l-6.535 24.984 12.468 21.983c1.362 2.402.519 5.454-1.883 6.816-.78.441-1.627.651-2.463.651z"/></g><g><path d="m439.946 394.951c-.741 0-1.493-.165-2.203-.515l-39.15-19.26c-1.376-.677-2.365-1.947-2.684-3.447s.068-3.063 1.05-4.241l10.868-13.034-7.124-16.425c-1.099-2.533.063-5.478 2.598-6.576 2.531-1.1 5.478.064 6.576 2.598l8.35 19.25c.752 1.732.463 3.74-.746 5.191l-8.77 10.518 33.446 16.454c2.478 1.219 3.498 4.216 2.279 6.693-.869 1.768-2.644 2.794-4.49 2.794z"/></g><g><path d="m419.044 341.04c-.077 0-.155-.002-.233-.005-2.759-.127-4.892-2.466-4.766-5.225 1.541-33.523-13.077-64.021-34.759-72.516-8.866-3.475-18.104-2.87-26.721 1.75-13.572 7.275-24.33 23.896-28.778 44.462-.506 2.343-2.611 4.02-5 3.942-2.396-.055-4.417-1.802-4.816-4.165-4.199-24.832-17.015-44.259-33.446-50.699-19.435-7.614-40.406 5.315-50.99 31.442-.546 1.348-1.651 2.392-3.029 2.858-1.375.465-2.889.312-4.142-.427-1.154-.68-2.34-1.261-3.523-1.726-6.166-2.416-12.594-1.927-18.584 1.408-9.854 5.488-17.42 17.938-20.237 33.301-.649 3.513-1.036 7.129-1.15 10.755-.087 2.761-2.397 4.926-5.155 4.84-2.76-.087-4.927-2.395-4.84-5.154.13-4.13.571-8.252 1.311-12.252 3.398-18.533 12.586-33.197 25.207-40.226 8.534-4.754 18.127-5.469 27.021-2.013 13.409-28.185 38.224-41.338 61.762-32.118 15.429 6.047 28.101 21.093 35.16 40.933 6.407-15.475 16.343-27.454 28.508-33.976 11.279-6.049 23.416-6.825 35.095-2.247 25.546 10.01 42.831 44.615 41.1 82.285-.128 2.683-2.34 4.773-4.995 4.773z"/></g></g></g></g></g></svg>