<svg id="Layer_1" viewBox="0 0 512 512" xmlns="http://www.w3.org/2000/svg" data-name="Layer 1"><circle cx="142.311" cy="131.166" fill="#ffe259" r="68.607"/><g fill-rule="evenodd"><path d="m135.11 199.397c-34.506-3.599-61.407-32.773-61.407-68.232s26.901-64.633 61.407-68.232c34.506 3.599 61.407 32.773 61.407 68.232s-26.901 64.633-61.407 68.232z" fill="#ffeb87"/><path d="m72.425 371.774c-33.785-.266-61.033-27.729-61.033-61.516s27.248-61.25 61.033-61.516c-8.218-32.576 13.1-66.716 43.53-73.902 18.415-4.348 39.781.594 55.203 14.593 3.989-48.839 46.544-85.368 95.423-81.912s85.87 45.61 82.947 94.524c46.675 0 84.864 38.189 84.864 84.864s-38.188 84.864-84.864 84.864h-277.103z" fill="#2dcffc"/><path d="m72.425 371.774c-33.785-.266-61.033-27.73-61.033-61.516s27.248-61.25 61.033-61.516c-6.013-23.836 3.789-48.507 21.401-62.846 24.384-13.573 59.414-3.76 76.145 19.925-.136-5.824.412-11.625 1.188-16.387 2.945-36.062 26.92-65.408 58.939-76.906 48.262-10.362 107.458 19.713 100.433 97.118 46.675 0 84.863 38.188 84.863 84.863 0 32.002-17.952 60.011-44.281 74.461-6.898 1.825-14.132 2.803-21.583 2.803h-277.105z" fill="#66deff"/><path d="m265.155 251.509-94.932 118.881c-1.42 1.779-1.815 3.968-1.103 6.13.71 2.162 2.327 3.69 4.525 4.279l38.072 10.202c3.484.933 5.563 4.535 4.63 8.019l-25.577 95.456c-.368 1.376.261 2.784 1.532 3.426s2.779.314 3.668-.799l94.932-118.882c1.42-1.778 1.814-3.968 1.104-6.13-.711-2.162-2.327-3.69-4.525-4.28l-38.072-10.201c-3.483-.933-5.563-4.535-4.63-8.019l25.577-95.456c.369-1.375-.262-2.784-1.533-3.426s-2.779-.314-3.667.799z" fill="#fcd433"/><path d="m256.544 262.293-86.32 108.097c-1.42 1.779-1.815 3.968-1.103 6.13.71 2.162 2.327 3.69 4.525 4.279l38.072 10.202c3.484.933 5.563 4.535 4.63 8.019l-22.613 84.392 86.321-108.098c1.421-1.778 1.814-3.968 1.104-6.13-.711-2.162-2.327-3.69-4.525-4.28l-38.072-10.201c-3.483-.933-5.563-4.535-4.63-8.019l22.613-84.392z" fill="#ffe259"/><path d="m477.131 272.752c14.23 11.899 23.285 29.782 23.285 49.783 0 35.824-29.041 64.865-64.865 64.865s-64.865-29.041-64.865-64.865c0-20.001 9.055-37.884 23.285-49.783v-207.184c0-22.869 18.711-41.58 41.58-41.58s41.58 18.71 41.58 41.58z" fill="#b6dbff"/><path d="m428.051 386.966c-32.29-3.718-57.365-31.145-57.365-64.431 0-20.001 9.055-37.884 23.285-49.783v-207.184c0-20.31 14.758-37.339 34.08-40.896 19.322 3.557 34.08 20.585 34.08 40.896v207.184c14.23 11.899 23.285 29.782 23.285 49.783 0 33.287-25.074 60.713-57.365 64.431z" fill="#cee7ff"/><path d="m477.131 272.752c14.23 11.899 23.285 29.782 23.285 49.783 0 35.824-29.041 64.865-64.865 64.865s-64.865-29.041-64.865-64.865c0-20.001 9.055-37.884 23.285-49.783v-193.05h83.16z" fill="#ff6b84"/><path d="m428.051 386.966c-32.29-3.718-57.365-31.145-57.365-64.431 0-20.001 9.055-37.884 23.285-49.783v-193.05h68.16v193.05c14.23 11.899 23.285 29.782 23.285 49.783 0 33.287-25.074 60.713-57.365 64.431z" fill="#ff8298"/></g><circle cx="435.551" cy="322.535" fill="#cf0034" r="27.443" transform="matrix(.707 -.707 .707 .707 -100.496 402.45)"/><path d="m431.201 349.633c-13.089-2.085-23.093-13.423-23.093-27.098s10.004-25.014 23.093-27.098c13.089 2.085 23.093 13.423 23.093 27.098s-10.004 25.014-23.093 27.098z" fill="#e80941" fill-rule="evenodd"/><path d="m34.23 78.011 17.651 10.188c1.249.728 2.628 1.07 3.988 1.07 2.763 0 5.448-1.432 6.933-3.997 2.208-3.828.897-8.722-2.922-10.93l-17.651-10.188c-3.828-2.208-8.717-.897-10.93 2.927-2.208 3.828-.897 8.722 2.931 10.93zm51.237-29.271c1.49 2.57 4.17 4.006 6.943 4.006 1.36 0 2.729-.347 3.987-1.075 3.833-2.208 5.14-7.102 2.931-10.93l-10.193-17.641c-2.208-3.828-7.097-5.14-10.916-2.931-3.833 2.208-5.14 7.102-2.931 10.93l10.178 17.641zm-63.339 90.426h20.38c4.412 0 7.999-3.583 7.999-7.999s-3.587-7.999-7.999-7.999h-20.38c-4.416 0-7.999 3.578-7.999 7.999s3.582 7.999 7.999 7.999zm29.753 34.97-17.651 10.187c-3.828 2.208-5.139 7.102-2.931 10.93 1.48 2.565 4.17 3.997 6.938 3.997 1.35 0 2.734-.347 3.992-1.07l17.651-10.188c3.819-2.208 5.13-7.102 2.922-10.93-2.213-3.823-7.102-5.135-10.921-2.927zm136.321-122.465c1.258.728 2.628 1.075 3.987 1.075 2.763 0 5.448-1.437 6.928-4.006l10.192-17.641c2.208-3.828.897-8.722-2.931-10.93-3.819-2.208-8.717-.897-10.93 2.931l-10.178 17.641c-2.213 3.828-.901 8.722 2.932 10.93zm-45.9-12.299c4.416 0 7.998-3.578 7.998-7.999v-20.375c0-4.416-3.582-7.999-7.998-7.999s-8.004 3.582-8.004 7.999v20.375c0 4.421 3.582 7.999 8.004 7.999zm86.428 49.897c1.36 0 2.729-.347 3.987-1.07l17.651-10.188c3.819-2.208 5.13-7.102 2.931-10.93-2.213-3.823-7.112-5.135-10.93-2.927l-17.651 10.188c-3.818 2.208-5.13 7.102-2.932 10.93 1.49 2.565 4.18 3.997 6.943 3.997zm-127.7 375.64c-3.833-2.208-8.722-.897-10.93 2.931l-16.841 29.155c-2.213 3.828-.901 8.722 2.927 10.93 1.263.728 2.642 1.075 3.992 1.075 2.772 0 5.463-1.437 6.943-4.002l16.827-29.16c2.208-3.828.901-8.722-2.917-10.93zm175.986 0c-3.818-2.208-8.707-.897-10.916 2.931l-16.841 29.155c-2.213 3.828-.902 8.722 2.926 10.93 1.263.728 2.632 1.075 3.992 1.075 2.758 0 5.453-1.437 6.943-4.002l16.827-29.16c2.208-3.828.901-8.722-2.932-10.93zm-119.378 0c-3.819-2.208-8.707-.897-10.92 2.931l-16.841 29.155c-2.208 3.828-.897 8.722 2.931 10.93 1.263.728 2.633 1.075 3.992 1.075 2.768 0 5.448-1.437 6.938-4.002l16.832-29.16c2.208-3.828.897-8.722-2.931-10.93zm176 0c-3.828-2.208-8.717-.897-10.93 2.931l-16.832 29.155c-2.208 3.828-.897 8.722 2.922 10.93 1.258.728 2.637 1.075 3.997 1.075 2.763 0 5.453-1.437 6.933-4.002l16.841-29.16c2.208-3.828.897-8.722-2.931-10.93zm56.618 0c-3.828-2.208-8.717-.897-10.93 2.931l-16.836 29.155c-2.213 3.828-.892 8.722 2.931 10.93 1.259.728 2.637 1.075 3.987 1.075 2.767 0 5.458-1.437 6.938-4.002l16.841-29.16c2.203-3.828.892-8.722-2.931-10.93zm-24.835-19.71c1.259.728 2.637 1.075 3.987 1.075 2.767 0 5.458-1.437 6.938-4.002l12.984-22.482c2.208-3.828.897-8.722-2.931-10.93-3.819-2.208-8.722-.897-10.93 2.932l-12.979 22.482c-2.213 3.823-.892 8.717 2.931 10.925zm-56.622 0c1.258.728 2.637 1.075 3.997 1.075 2.763 0 5.453-1.437 6.933-4.002l12.979-22.482c2.208-3.828.902-8.722-2.931-10.93-3.819-2.208-8.707-.897-10.916 2.932l-12.984 22.482c-2.208 3.823-.897 8.717 2.922 10.925zm-165.938-33.407-12.984 22.482c-2.208 3.823-.897 8.717 2.931 10.925 1.263.728 2.633 1.075 3.992 1.075 2.768 0 5.448-1.437 6.938-4.002l12.979-22.482c2.213-3.828.892-8.722-2.931-10.93-3.828-2.208-8.717-.897-10.925 2.932zm-98.453 53.117c-3.828-2.208-8.722-.897-10.93 2.931l-16.841 29.155c-2.199 3.828-.887 8.722 2.931 10.93 1.258.728 2.642 1.075 4.002 1.075 2.758 0 5.448-1.437 6.928-4.002l16.841-29.16c2.208-3.828.892-8.722-2.931-10.93zm-14.792-53.117-12.979 22.482c-2.199 3.823-.887 8.717 2.931 10.925 1.258.728 2.642 1.075 4.002 1.075 2.758 0 5.448-1.437 6.928-4.002l12.979-22.482c2.213-3.828.901-8.722-2.927-10.93-3.823-2.208-8.722-.897-10.935 2.932zm56.623 0-12.979 22.482c-2.213 3.823-.901 8.717 2.927 10.925 1.263.728 2.642 1.075 3.992 1.075 2.772 0 5.463-1.437 6.943-4.002l12.979-22.482c2.208-3.828.901-8.722-2.932-10.93-3.828-2.208-8.722-.897-10.93 2.932zm368.741-89.254c0-10.723-8.722-19.445-19.44-19.445s-19.44 8.722-19.44 19.445 8.717 19.44 19.44 19.44 19.44-8.722 19.44-19.44zm15.998 0c0 19.541-15.896 35.442-35.437 35.442s-35.437-15.901-35.437-35.442c0-16.793 11.735-30.886 27.439-34.526v-54.463c0-4.416 3.578-7.999 7.999-7.999s7.998 3.582 7.998 7.999v54.463c15.703 3.64 27.439 17.733 27.439 34.526zm21.421 0c0 31.354-25.51 56.864-56.859 56.864s-56.868-25.51-56.868-56.864c0-16.889 7.449-32.8 20.418-43.648 1.818-1.519 2.869-3.765 2.869-6.138v-185.05h67.162v17.68h-9.879c-4.421 0-8.004 3.582-8.004 7.998s3.582 7.999 8.004 7.999h9.879v23.919h-9.879c-4.421 0-8.004 3.582-8.004 7.999s3.582 7.999 8.004 7.999h9.879v23.919h-9.879c-4.421 0-8.004 3.582-8.004 7.999s3.582 7.999 8.004 7.999h9.879v71.54c0 2.372 1.046 4.619 2.869 6.138 12.97 10.848 20.409 26.759 20.409 43.648zm-90.44-250.833h67.162v-6.138c0-18.514-15.062-33.576-33.581-33.576s-33.581 15.062-33.581 33.576zm106.442 250.833c0 40.177-32.684 72.861-72.861 72.861s-72.871-32.684-72.871-72.861c0-20.366 8.442-39.612 23.292-53.397v-203.574c0-27.337 22.236-49.578 49.579-49.578s49.578 22.241 49.578 49.578v203.574c14.841 13.784 23.283 33.031 23.283 53.397zm-225.15 52.428-78.541 98.361 19.348-72.234c1.012-3.751.492-7.671-1.451-11.041-1.948-3.365-5.087-5.771-8.828-6.779l-35.929-9.624 78.55-98.361-19.363 72.234c-1.008 3.746-.487 7.666 1.461 11.036 1.943 3.365 5.082 5.776 8.833 6.779l35.919 9.628zm16.34-5.371c1.557 4.749.67 9.715-2.454 13.62l-94.929 118.881c-2.16 2.7-5.298 4.146-8.538 4.146-1.683 0-3.38-.391-4.99-1.2-4.682-2.368-7.01-7.565-5.651-12.637l25.201-94.051-36.672-9.826c-4.831-1.292-8.49-4.759-10.048-9.508-1.562-4.749-.67-9.715 2.449-13.62l94.929-118.881v-.005c3.279-4.103 8.842-5.313 13.529-2.946 4.691 2.367 7.01 7.565 5.651 12.642l-25.201 94.051 36.672 9.821c4.831 1.297 8.491 4.764 10.053 9.513zm12.179-185.296c.689 0 1.389-.087 2.078-.275 4.272-1.143 6.803-5.525 5.66-9.797-6.461-24.083-27.371-40.727-53.286-42.404-4.402-.275-8.225 3.062-8.5 7.468-.294 4.412 3.057 8.216 7.468 8.5 19.247 1.244 34.14 12.96 38.861 30.577.959 3.578 4.19 5.93 7.719 5.93zm-239.199 195.339c-38.06-.299-68.97-31.455-68.97-69.452 0-34.83 25.978-63.917 59.578-68.748-1.538-14.869 1.943-30.322 9.99-43.576 9.494-15.617 24.449-26.822 41.04-30.736 17.169-4.06 35.751-.94 51.083 8.124 4.561-20.308 15.477-38.552 31.547-52.336 19.57-16.803 44.521-25.057 70.252-23.235 25.732 1.818 49.27 13.5 66.29 32.887 15.211 17.342 23.639 39.063 24.15 61.878 5.761.506 11.451 1.552 17.01 3.129 4.253 1.2 6.721 5.626 5.511 9.874-1.2 4.252-5.622 6.721-9.869 5.516-6.74-1.909-13.741-2.874-20.79-2.874-2.213 0-4.31-.911-5.819-2.517-1.523-1.605-2.3-3.761-2.17-5.964 2.647-44.275-31.194-82.841-75.44-85.97-44.241-3.12-83.184 30.293-86.795 74.5-.236 3.037-2.199 5.67-5.029 6.788-2.84 1.119-6.06.53-8.317-1.518-12.96-11.764-31.33-16.634-47.93-12.714-12.454 2.941-23.769 11.499-31.04 23.475-7.531 12.396-9.913 27.193-6.533 40.611.603 2.377.082 4.903-1.417 6.846s-3.814 3.091-6.273 3.11c-29.237.231-53.031 24.208-53.031 53.45s23.794 53.223 53.031 53.455h74.881c4.421 0 7.999 3.582 7.999 7.998s-3.578 7.999-7.999 7.999h-74.939zm298.739-10.496c-.738-4.354-4.86-7.29-9.219-6.562-4.17.704-8.452 1.061-12.7 1.061h-35.51c-4.421 0-8.004 3.582-8.004 7.998s3.582 7.999 8.004 7.999h35.51c5.139 0 10.308-.429 15.351-1.278 4.359-.733 7.299-4.86 6.567-9.219zm-294.28-197.717c1.509 2.459 4.127 3.814 6.823 3.814 1.427 0 2.878-.386 4.175-1.186 3.77-2.314 4.942-7.237 2.633-11.002-5.829-9.488-8.929-20.52-8.973-31.913-.048-16.108 6.2-31.281 17.603-42.722 11.48-11.514 26.749-17.859 43.012-17.859 23.577 0 45.196 13.847 55.075 35.278 1.851 4.011 6.605 5.766 10.612 3.915 4.011-1.847 5.771-6.6 3.92-10.612-12.478-27.082-39.801-44.579-69.606-44.579-20.544 0-39.844 8.013-54.342 22.559-14.43 14.479-22.342 33.682-22.27 54.077.048 14.329 3.968 28.239 11.34 40.23z" fill-rule="evenodd"/></svg>