<svg id="Layer_1" height="512" viewBox="0 0 512 512" width="512" xmlns="http://www.w3.org/2000/svg"><g><g><path clip-rule="evenodd" d="m256 9.4 19 36.6c6 11.5 15.6 19 28.1 22.1 12.6 3.1 24.6.9 35.2-6.5l33.9-23.6-.1 41.2c0 12.9 5 24.1 14.6 32.7 9.7 8.6 21.3 12.2 34.2 10.6l40.9-5.1-19.3 36.5c-6 11.4-6.8 23.6-2.2 35.7s13.2 20.7 25.3 25.3l38.6 14.5-34 23.3c-10.7 7.3-17 17.8-18.6 30.6s2.1 24.5 10.7 34.1l27.4 30.8-41 4.8c-12.8 1.5-23.3 7.8-30.6 18.5-7.3 10.6-9.5 22.7-6.4 35.2l10 40-38.5-14.7c-12.1-4.6-24.3-3.9-35.7 2.1s-19 15.6-22 28.2l-9.7 40.1-27.2-31c-8.5-9.7-19.7-14.7-32.6-14.7s-24.1 5-32.6 14.7l-27.2 31-9.7-40.1c-3.1-12.6-10.6-22.2-22-28.2s-23.6-6.7-35.7-2.1l-38.5 14.7 10-40c3.1-12.5 1-24.6-6.4-35.2-7.3-10.6-17.8-16.9-30.7-18.5l-41-4.8 27.4-30.8c8.6-9.7 12.3-21.3 10.7-34.1s-7.9-23.3-18.6-30.6l-34-23.3 38.6-14.5c12.1-4.5 20.8-13.2 25.3-25.3 4.6-12.1 3.8-24.3-2.2-35.7l-19.3-36.5 40.9 5.1c12.8 1.6 24.5-2 34.2-10.6s14.7-19.7 14.6-32.7v-41.2l33.9 23.5c10.6 7.4 22.6 9.6 35.2 6.5 12.5-3 22.1-10.6 28.1-22.1z" fill="#f58634" fill-rule="evenodd"/></g><g><path clip-rule="evenodd" d="m267.9 429.4c86.4 0 156.9-70.5 156.9-156.9s-70.5-156.9-156.9-156.9-156.9 70.4-156.9 156.9c0 86.4 70.5 156.9 156.9 156.9z" fill="#cc712f" fill-rule="evenodd"/></g><g><path clip-rule="evenodd" d="m256 406.5c81.8 0 148.5-66.7 148.5-148.5s-66.7-148.5-148.5-148.5-148.5 66.7-148.5 148.5 66.7 148.5 148.5 148.5z" fill="#fca400" fill-rule="evenodd"/></g><g><path clip-rule="evenodd" d="m256 109.6c27.5 0 53.3 7.5 75.4 20.5 24.7 26.5 39.8 62.1 39.8 101.1 0 82-66.5 148.5-148.5 148.5-27.5 0-53.3-7.5-75.4-20.5-24.7-26.5-39.8-62.1-39.8-101.1 0-82.1 66.5-148.5 148.5-148.5z" fill="#ffb830" fill-rule="evenodd"/></g><g><path d="m256 414.2c-86.1 0-156.2-70.1-156.2-156.2 0-9.3.8-18.5 2.3-27.2.7-4.2 4.7-7 8.9-6.3s7 4.7 6.3 8.9c-1.4 7.9-2.1 16.1-2.1 24.6 0 77.6 63.1 140.7 140.7 140.7s140.7-63.1 140.7-140.7-63.1-140.7-140.7-140.7c-39.9 0-78.1 17-104.8 46.8-2.8 3.2-7.7 3.4-10.9.6s-3.4-7.7-.6-10.9c29.6-33 72-51.9 116.3-51.9 86.1 0 156.2 70.1 156.2 156.2.1 86-70 156.1-156.1 156.1z" fill="#02005c"/></g><g><path clip-rule="evenodd" d="m301.7 195.6h101.5 17.6v15.8c-15.5 0-17.6 19.2-17.6 30.7 0 29.9-22.9 54.4-50.8 54.4h-21.7c-75.7 0-53-65.2-75.8-64.6s.2 64.6-73.7 64.6h-21.7c-28 0-50.8-24.5-50.8-54.4 0-11.5-2-30.7-17.6-30.7v-15.8h17.6 101.5c14.1 0 28.6 6.6 43.2 6.6 16.2 0 32.4-6.6 48.3-6.6z" fill="#ff2442" fill-rule="evenodd"/></g><g><path clip-rule="evenodd" d="m364.4 220.6h-52.9c-5.8 0-10.6 5.1-10.6 11.3v5.6c0 18.7 14.3 34 31.8 34h15.8c14.6 0 26.5-12.8 26.5-28.3v-11.3c0-6.3-4.7-11.3-10.6-11.3z" fill="#3db2ff" fill-rule="evenodd"/></g><g><path clip-rule="evenodd" d="m345.2 220.6h-11.2l-23.7 41c2.3 2.4 4.9 4.5 7.7 6.1zm-13.6 0-22.7 39.4c-1.3-1.6-2.5-3.3-3.5-5.1l19.8-34.2h6.4z" fill="#e0f3ff" fill-rule="evenodd"/></g><g><path clip-rule="evenodd" d="m137 231.9v11.3c0 15.6 11.9 28.3 26.5 28.3h15.8c17.5 0 31.8-15.3 31.8-34v-5.6c0-6.2-4.8-11.3-10.6-11.3h-52.9c-5.9 0-10.6 5-10.6 11.3z" fill="#3db2ff" fill-rule="evenodd"/></g><g><path clip-rule="evenodd" d="m141.4 258.7c1.1 1.7 2.3 3.3 3.7 4.8l24.8-42.9h-6.5zm5.2 6.2 25.6-44.4h11.2l-28.5 49.4c-3.1-1.1-5.9-2.8-8.3-5z" fill="#e0f3ff" fill-rule="evenodd"/></g><g><path d="m256 364c-18.3 0-35.8-7.8-48.1-21.4-2.9-3.2-2.6-8 .6-10.9s8-2.6 10.9.6c9.3 10.4 22.7 16.3 36.6 16.3s27.3-5.9 36.6-16.3c2.9-3.2 7.7-3.4 10.9-.6 3.2 2.9 3.4 7.7.6 10.9-12.3 13.6-29.8 21.4-48.1 21.4z" fill="#02005c"/></g><g><path d="m352.4 304.2h-21.7c-54.6 0-64-32.4-69.7-51.8-2.2-7.5-3.9-12.8-5.9-12.8-2.3.1-3.9 5.3-6.1 13.4-5.4 19.2-14.3 51.2-67.8 51.2-4.3 0-7.7-3.5-7.7-7.7s3.5-7.7 7.7-7.7c41.7 0 47.7-21.2 52.9-39.9 3.2-11.4 6.8-24.3 20.6-24.7h.6c13.5 0 17.3 12.7 20.5 23.9 5.6 19.1 11.9 40.7 54.9 40.7h21.7c23.8 0 43.1-20.9 43.1-46.6 0-25.3 9.1-34.3 17.6-37.2v-9.3c0-4.3 3.5-7.7 7.7-7.7s7.7 3.5 7.7 7.7v15.8c0 4.3-3.5 7.7-7.7 7.7-8.1 0-9.8 12.5-9.8 23 0 34.1-26.3 62-58.6 62zm-192.8 0c-32.3 0-58.5-27.8-58.5-62.1 0-10.5-1.7-23-9.8-23-4.3 0-7.7-3.5-7.7-7.7v-15.8c0-4.3 3.5-7.7 7.7-7.7h119.1c7.8 0 15.5 1.7 22.9 3.4 7.1 1.6 13.8 3.1 20.3 3.1 4.3 0 7.7 3.5 7.7 7.7s-3.5 7.7-7.7 7.7c-8.3 0-16.1-1.8-23.8-3.5-6.9-1.6-13.4-3-19.5-3h-111.4v1.6c8.5 2.9 17.6 11.9 17.6 37.2 0 25.7 19.3 46.6 43.1 46.6 4.3 0 7.7 3.5 7.7 7.7s-3.5 7.8-7.7 7.8zm114.5-96.9c-3.6 0-6.8-2.5-7.6-6.2-.8-4.2 1.9-8.2 6.1-9.1l3.5-.7c8.3-1.7 16.8-3.4 25.6-3.4h101.5c4.3 0 7.7 3.5 7.7 7.7 0 4.3-3.5 7.7-7.7 7.7h-101.5c-7.2 0-14.6 1.5-22.5 3.1l-3.6.7c-.5.2-1 .2-1.5.2z" fill="#02005c"/></g><g><path d="m348.5 279.2h-15.8c-21.8 0-39.5-18.7-39.5-41.7v-5.6c0-10.5 8.2-19.1 18.3-19.1h52.9c10.1 0 18.3 8.5 18.3 19.1 0 4.3-3.5 7.7-7.7 7.7-4.3 0-7.7-3.5-7.7-7.7 0-2-1.3-3.6-2.9-3.6h-52.9c-1.5 0-2.9 1.7-2.9 3.6v5.6c0 14.5 10.8 26.3 24.1 26.3h15.8c7.9 0 15-5.5 17.7-13.8 1.3-4 5.7-6.2 9.7-4.9 4.1 1.3 6.3 5.7 4.9 9.7-4.7 14.6-17.7 24.4-32.3 24.4z" fill="#02005c"/></g><g><path d="m179.3 279.2h-15.8c-18.9 0-34.2-16.2-34.2-36.1 0-4.3 3.5-7.7 7.7-7.7s7.7 3.5 7.7 7.7c0 11.4 8.4 20.6 18.8 20.6h15.8c13.3 0 24.1-11.8 24.1-26.3v-5.6c0-1.9-1.3-3.6-2.9-3.6h-52.9c-4.3 0-7.7-3.5-7.7-7.7 0-4.3 3.5-7.7 7.7-7.7h52.9c10.1 0 18.3 8.5 18.3 19.1v5.6c0 23-17.7 41.7-39.5 41.7z" fill="#02005c"/></g><g><path d="m315.9 510c-2.2 0-4.3-.9-5.8-2.6l-27.2-31c-7.1-8-16.1-12.1-26.8-12.1s-19.7 4.1-26.8 12.1l-27.3 31c-1.9 2.2-4.9 3.1-7.6 2.4-2.8-.7-5-2.9-5.7-5.7l-9.7-40.1c-2.5-10.4-8.6-18.2-18.1-23.2s-19.4-5.6-29.4-1.7l-38.5 14.7c-4 1.5-8.4-.5-10-4.4-1.5-4 .5-8.4 4.5-10l38.5-14.7c14.1-5.4 28.7-4.6 42.1 2.5 13.4 7 22.4 18.5 25.9 33.2l6.2 25.7 17.5-19.8c10-11.4 23.3-17.4 38.4-17.4s28.4 6 38.4 17.4l17.5 19.8 6.2-25.7c3.6-14.7 12.5-26.2 25.9-33.2s27.9-7.9 42.1-2.5l24.7 9.4-6.4-25.6c-1.8-7-2.1-14-1-20.8.7-4.2 4.6-7.1 8.9-6.4 4.2.7 7.1 4.7 6.4 8.9-.8 4.7-.5 9.6.7 14.6l10 40c.7 2.8-.2 5.7-2.4 7.6s-5.2 2.5-7.9 1.4l-38.5-14.7c-10-3.8-19.9-3.3-29.4 1.7s-15.6 12.8-18.1 23.2l-9.7 40.1c-.7 2.8-2.9 5-5.7 5.7-.7.2-1.3.2-1.9.2zm-215.7-95.6c-.6 0-1.3-.1-1.9-.2-4.1-1-6.7-5.2-5.6-9.4 2.6-10.4.8-20.1-5.3-29-6.1-8.8-14.6-13.9-25.2-15.2l-41-4.8c-2.9-.3-5.3-2.2-6.3-4.9s-.5-5.7 1.5-7.9l27.4-30.8c7.1-8 10.1-17.4 8.8-28.1-1.3-10.6-6.4-19.1-15.3-25.1l-34-23.3c-2.4-1.6-3.6-4.4-3.3-7.3.3-2.9 2.3-5.3 4.9-6.3l38.6-14.5c10-3.8 17-10.8 20.8-20.8s3.2-19.9-1.8-29.4l-19.2-36.4c-1.3-2.5-1.2-5.6.5-8 1.6-2.4 4.4-3.6 7.3-3.3l40.9 5.1c10.7 1.3 20.1-1.6 28.1-8.7s12.1-16.1 12-26.9v-41.2c0-2.9 1.6-5.5 4.1-6.9 2.6-1.3 5.6-1.1 8 .5l33.8 23.6c3.5 2.4 4.4 7.2 1.9 10.7-2.4 3.5-7.2 4.4-10.7 1.9l-21.7-15.1.1 26.4c0 15.1-5.9 28.4-17.2 38.5-11.3 10-25.3 14.4-40.3 12.5l-26.2-3.3 12.4 23.4c7.1 13.4 8 27.9 2.6 42.1-5.4 14.1-15.7 24.4-29.8 29.8l-24.7 9.3 21.8 14.9c12.5 8.6 20 21 21.9 36 1.8 15-2.5 28.9-12.6 40.2l-17.6 19.7 26.2 3.1c15 1.8 27.5 9.3 36.1 21.7s11.2 26.8 7.5 41.5c-.9 3.6-4.1 5.9-7.5 5.9zm317-33.7c-1.4 0-2.8-.4-4.1-1.2-3.6-2.3-4.7-7.1-2.4-10.7.4-.6.8-1.2 1.2-1.7 2.4-3.5 7.2-4.4 10.7-2s4.4 7.2 2 10.7l-.8 1.3c-1.5 2.3-4 3.6-6.6 3.6zm16.5-15.4c-2.8 0-5.5-1.5-6.9-4.1-2-3.8-.5-8.4 3.3-10.4 5.4-2.8 11.4-4.7 17.9-5.4l26.2-3.1-17.6-19.7c-10.1-11.3-14.4-25.2-12.6-40.2s9.4-27.5 21.9-36l21.8-14.9-24.7-9.3c-14.2-5.3-24.5-15.6-29.8-29.8-5.4-14.1-4.5-28.7 2.6-42.1l12.4-23.4-26.2 3.3c-4.2.6-8.1-2.5-8.6-6.7s2.5-8.1 6.7-8.6l40.9-5.1c2.9-.3 5.7.9 7.3 3.3s1.8 5.4.5 8l-19.3 36.5c-5 9.5-5.6 19.3-1.8 29.4 3.8 10 10.8 17 20.8 20.8l38.6 14.5c2.7 1 4.6 3.4 4.9 6.3s-.9 5.7-3.3 7.3l-34 23.3c-8.8 6.1-14 14.5-15.3 25.1s1.7 20.1 8.8 28.1l27.4 30.8c1.9 2.1 2.5 5.2 1.5 7.9s-3.5 4.6-6.3 4.9l-41 4.8c-4.6.5-8.8 1.8-12.6 3.8-1.1.4-2.3.7-3.5.7zm-47-245.7c-1.8 0-3.6-.6-5.1-1.9-11.3-10-17.3-23.3-17.2-38.5l.1-26.4-21.7 15.1c-12.4 8.6-26.7 11.3-41.4 7.7s-26.1-12.6-33.1-26l-12.3-23.5-12.2 23.4c-7 13.4-18.4 22.4-33.1 26-4.1 1.1-8.3-1.5-9.3-5.6s1.5-8.3 5.6-9.3c10.4-2.6 18.2-8.7 23.1-18.2l19-36.6c2.7-5.1 11-5.1 13.7 0l19 36.6c4.9 9.5 12.7 15.6 23.1 18.2 10.4 2.5 20.1.8 28.9-5.4l33.9-23.5c2.4-1.6 5.4-1.8 8-.5 2.5 1.3 4.1 4 4.1 6.9l-.1 41.2c0 10.7 4 19.8 12 26.9 3.2 2.8 3.5 7.7.7 10.9-1.4 1.6-3.5 2.5-5.7 2.5z" fill="#02005c"/></g></g></svg>