<svg id="Capa_1" enable-background="new 0 0 512 512" height="512" viewBox="0 0 512 512" width="512" xmlns="http://www.w3.org/2000/svg"><g><g><path d="m487.246 454.8c.452-2.694.687-5.461.687-8.283 0-27.449-22.251-49.7-49.7-49.7-1.264 0-2.516.05-3.755.146-2.912.225-5.743-1.071-7.349-3.51-11.8-17.929-32.094-29.769-55.163-29.769h-231.933c-23.068 0-43.363 11.84-55.162 29.769-1.605 2.439-4.437 3.735-7.349 3.51-1.239-.096-2.491-.146-3.755-.146-27.449 0-49.7 22.251-49.7 49.7 0 2.822.235 5.59.687 8.283v5.533h461.996z" fill="#ddeafb"/><path d="m438.233 396.817c-1.264 0-2.516.05-3.755.146-2.912.225-5.744-1.071-7.349-3.51-11.8-17.929-32.094-29.769-55.163-29.769h-23c23.068 0 43.362 11.84 55.163 29.769 1.605 2.439 4.438 3.735 7.349 3.51 1.239-.096 2.491-.146 3.755-.146 27.448 0 49.7 22.251 49.7 49.7 0 2.822-.235 5.59-.687 8.283l-.496 5.533h23l.496-5.533c.452-2.694.687-5.461.687-8.283 0-27.449-22.251-49.7-49.7-49.7z" fill="#bed8fb"/><g><g><path d="m315.763 454.802c33.679-20.292 56.204-57.216 56.204-99.402 0-8.164-.844-16.132-2.449-23.819l-12.93-33.929c-5.315-9.239-11.867-17.676-19.429-25.086l-6.076-3.014h-151.083l-5.159 3.014c-7.562 7.41-14.113 15.847-19.428 25.085l-12.93 33.927c-1.605 7.688-2.449 15.656-2.449 23.822 0 42.183 22.523 79.106 56.199 99.399v5.535h119.531v-5.532z" fill="#f8fbff"/><path d="m369.518 331.581-12.93-33.929c-5.315-9.239-11.867-17.676-19.429-25.086l-6.076-3.014h-23l6.076 3.014c1.932 1.893 3.797 3.853 5.593 5.876 7.756 8.736 13.722 18.91 17.882 29.826l4.827 12.667c4.167 10.935 6.481 22.519 6.505 34.22v.245c0 42.185-22.525 79.11-56.204 99.402v5.532h23v-5.532c33.679-20.292 56.204-57.216 56.204-99.402.001-8.164-.843-16.132-2.448-23.819z" fill="#ecf4ff"/></g></g><path d="m488.5 454.8h-465c-8.837 0-16 7.163-16 16v17.7c0 8.837 7.163 16 16 16h465c8.837 0 16-7.163 16-16v-17.7c0-8.837-7.163-16-16-16z" fill="#ecf4ff"/><path d="m305.701 239.439c20.119-15.112 33.133-39.172 33.133-66.272 0-18.646-6.161-35.854-16.559-49.697l-.008-9.802h-132.535v9.794c-10.402 13.845-16.565 31.056-16.565 49.706 0 27.098 13.012 51.158 33.13 66.27v9.313h99.404z" fill="#f8fbff"/><path d="m322.275 123.469-.008-9.802h-23l.008 9.802c10.398 13.844 16.559 31.051 16.559 49.697 0 27.1-13.014 51.16-33.133 66.272v9.311h23v-9.311c20.119-15.112 33.133-39.172 33.133-66.272-.001-18.646-6.162-35.853-16.559-49.697z" fill="#ecf4ff"/><g><g><path d="m322.267 62.125h-132.534v-38.625c0-8.837 7.163-16 16-16h100.533c8.837 0 16 7.163 16 16v38.625z" fill="#5c545f"/><path d="m189.733 57.2h132.533v40.3h-132.533z" fill="#ff8086"/><path d="m299.267 57.2h23v40.3h-23z" fill="#e5646e"/></g><path d="m338.833 123.467c9.15 0 16.567-7.417 16.567-16.567 0-9.149-7.417-16.567-16.567-16.567h-165.666c-9.15 0-16.567 7.417-16.567 16.567s7.417 16.567 16.567 16.567z" fill="#b3e59f"/><path d="m338.833 123.467c9.15 0 16.567-7.417 16.567-16.567 0-9.149-7.417-16.567-16.567-16.567h-165.666c-9.15 0-16.567 7.417-16.567 16.567s7.417 16.567 16.567 16.567z" fill="#5c545f"/><g fill="#4b3f4e"><path d="m338.833 90.333h-23c9.15 0 16.567 7.417 16.567 16.567s-7.417 16.567-16.567 16.567h23c9.15 0 16.567-7.417 16.567-16.567 0-9.149-7.417-16.567-16.567-16.567z"/><path d="m306.267 7.5h-23c8.837 0 16 7.163 16 16v33.7h23v-33.7c0-8.837-7.164-16-16-16z"/></g></g><ellipse cx="256" cy="189.733" fill="#ebb560" rx="16.567" ry="16.567" transform="matrix(.984 -.177 .177 .984 -29.522 48.269)"/><ellipse cx="256" cy="322.267" fill="#5c545f" rx="16.567" ry="16.567" transform="matrix(.172 -.985 .985 .172 -105.473 519.064)"/><ellipse cx="256" cy="388.533" fill="#5c545f" rx="16.567" ry="16.567" transform="matrix(.98 -.2 .2 .98 -72.433 58.949)"/><path d="m337.16 272.567h-162.32l3.951-19.808c1.546-7.747 8.346-13.326 16.247-13.326h121.924c7.9 0 14.701 5.578 16.247 13.326z" fill="#ff8086"/><g fill="#ecf4ff"><ellipse cx="73.767" cy="106.9" rx="16.567" ry="16.567" transform="matrix(.113 -.994 .994 .113 -40.809 168.068)"/><ellipse cx="123.467" cy="24.067" rx="16.567" ry="16.567" transform="matrix(.31 -.951 .951 .31 62.278 133.972)"/><ellipse cx="438.233" cy="106.9" rx="16.567" ry="16.567" transform="matrix(.988 -.157 .157 .988 -11.337 69.986)"/><ellipse cx="388.533" cy="24.067" rx="16.567" ry="16.567" transform="matrix(.973 -.23 .23 .973 4.864 89.911)"/></g><path d="m488.5 454.8h-23c8.836 0 16 7.163 16 16v17.7c0 8.837-7.164 16-16 16h23c8.836 0 16-7.163 16-16v-17.7c0-8.837-7.164-16-16-16z" fill="#ddeafb"/><path d="m333.208 252.759c-1.546-7.747-8.347-13.326-16.247-13.326h-23.001c7.9 0 14.701 5.578 16.247 13.326l3.952 19.808h23.001z" fill="#e5646e"/><g><g><path d="m490.116 222.694-9.872-9.872c-.503-.503-.797-1.177-.824-1.888v-.003c-.025-.668.205-1.311.602-1.849 4.785-6.483 4.251-15.66-1.62-21.531l-11.714-11.714c-6.47-6.47-16.959-6.47-23.429 0l-37.461 37.461 58.572 58.572 25.746-25.746c6.469-6.471 6.469-16.96 0-23.43z" fill="#9dc6fb"/><path d="m490.116 222.694-9.872-9.872c-.503-.503-.797-1.177-.824-1.888v-.003c-.025-.668.205-1.311.602-1.849 4.785-6.483 4.251-15.66-1.62-21.531l-11.714-11.714c-6.401-6.401-16.73-6.458-23.214-.194.07.067.145.125.214.194l11.714 11.714c5.871 5.871 6.406 15.048 1.62 21.531-.397.538-.627 1.181-.602 1.849v.003c.027.711.321 1.385.824 1.888l9.872 9.872c6.47 6.47 6.47 16.959 0 23.429l-14.246 14.246 11.5 11.5 25.746-25.746c6.469-6.47 6.469-16.959 0-23.429z" fill="#80b4fb"/><path d="m437.601 287.324-47.258-47.258c-3.124-3.124-3.124-8.19 0-11.314l17.772-17.772 58.572 58.572z" fill="#b3e59f"/><path d="m455.169 258.034-23.553 23.305 5.985 5.985c3.124 3.124 8.189 3.124 11.314 0l17.772-17.772z" fill="#95d6a4"/></g></g><g><g><path d="m21.884 222.694 9.872-9.872c.503-.503.797-1.177.824-1.888v-.003c.025-.668-.205-1.311-.602-1.849-4.785-6.483-4.251-15.66 1.62-21.531l11.715-11.714c6.47-6.47 16.959-6.47 23.429 0l37.461 37.461-58.572 58.572-25.746-25.746c-6.47-6.471-6.47-16.96-.001-23.43z" fill="#9dc6fb"/><path d="m94.703 224.797 11.5-11.5-37.461-37.461c-6.401-6.401-16.73-6.458-23.214-.194.07.068.146.125.214.194z" fill="#80b4fb"/><path d="m121.657 228.752-17.772-17.772-58.572 58.572 17.772 17.772c3.124 3.124 8.19 3.124 11.314 0l47.258-47.258c3.124-3.125 3.124-8.19 0-11.314z" fill="#b3e59f"/><path d="m121.657 228.752-17.772-17.772-11.5 11.5 6.272 6.272c3.124 3.124 3.124 8.189 0 11.314l-41.415 41.415 5.843 5.843c3.124 3.124 8.19 3.124 11.314 0l47.258-47.258c3.124-3.125 3.124-8.19 0-11.314z" fill="#95d6a4"/></g></g></g><g><path d="m495.396 448.334c.019-.606.038-1.212.038-1.817 0-31.54-25.66-57.2-57.2-57.2-1.56 0-3.136.067-4.716.2-12.154-18.594-32.081-30.69-54.07-32.945.004-.391.019-.781.019-1.172 0-13.836-2.258-27.306-6.589-40.004l41.094-41.094 18.326 18.326c2.928 2.928 6.82 4.54 10.96 4.54 4.141 0 8.033-1.612 10.961-4.54l17.771-17.772 23.429-23.429c9.383-9.383 9.383-24.652 0-34.035l-7.249-7.25c1.69-3.33 2.584-7.034 2.584-10.876 0-6.429-2.504-12.473-7.049-17.018l-11.716-11.715c-9.383-9.383-24.65-9.381-34.035.001l-35.143 35.144c-.003.003-.006.007-.009.01l-17.763 17.762c-6.043 6.044-6.043 15.877 0 21.92l18.326 18.326-36.737 36.737c-5.727-11.496-13.294-22.132-22.555-31.55l-3.509-17.589c-1.777-8.907-8.407-15.857-16.787-18.35 14.498-16.338 22.556-37.341 22.556-59.776 0-14.923-3.581-29.28-10.437-42.2h2.937c13.27 0 24.067-10.796 24.067-24.067 0-13.27-10.797-24.066-24.067-24.066h-9.066v-59.335c0-12.958-10.542-23.5-23.5-23.5h-60.9c-4.142 0-7.5 3.358-7.5 7.5s3.358 7.5 7.5 7.5h60.9c4.686 0 8.5 3.813 8.5 8.5v26.2h-117.534v-26.2c0-4.687 3.813-8.5 8.5-8.5h9.633c4.142 0 7.5-3.358 7.5-7.5s-3.358-7.5-7.5-7.5h-9.633c-12.958 0-23.5 10.542-23.5 23.5v59.334h-9.067c-13.27 0-24.066 10.796-24.066 24.066 0 13.271 10.796 24.067 24.066 24.067h2.937c-6.856 12.92-10.437 27.277-10.437 42.2 0 22.435 8.058 43.438 22.556 59.776-8.379 2.492-15.009 9.442-16.786 18.349l-3.508 17.588c-9.262 9.419-16.83 20.056-22.557 31.552l-36.737-36.737 18.326-18.326c6.043-6.043 6.043-15.876 0-21.92l-17.772-17.772-35.143-35.144c-9.384-9.383-24.652-9.382-34.036.001l-11.714 11.714c-4.545 4.545-7.049 10.589-7.049 17.018 0 3.842.894 7.546 2.584 10.876l-7.25 7.25c-9.384 9.383-9.384 24.652 0 34.035l23.429 23.429 17.772 17.772c2.928 2.928 6.82 4.54 10.96 4.54s8.033-1.612 10.96-4.54l18.326-18.326 41.095 41.094c-4.331 12.698-6.589 26.168-6.589 40.004 0 .391.016.781.019 1.172-21.99 2.255-41.917 14.35-54.07 32.945-1.58-.133-3.155-.2-4.716-.2-31.54 0-57.2 25.66-57.2 57.2 0 .606.019 1.212.038 1.817-9.603 2.953-16.604 11.907-16.604 22.466v17.7c0 12.958 10.542 23.5 23.5 23.5h46.157c4.142 0 7.5-3.358 7.5-7.5s-3.358-7.5-7.5-7.5h-46.157c-4.687 0-8.5-3.813-8.5-8.5v-17.7c0-4.687 3.813-8.5 8.5-8.5h1.212c.011 0 .022.001.033.001.006 0 .012-.001.017-.001h462.475c.006 0 .012.001.018.001.011 0 .022-.001.033-.001h1.212c4.686 0 8.5 3.813 8.5 8.5v17.7c0 4.687-3.814 8.5-8.5 8.5h-388.843c-4.142 0-7.5 3.358-7.5 7.5s3.358 7.5 7.5 7.5h388.843c12.958 0 23.5-10.542 23.5-23.5v-17.7c0-10.559-7.001-19.512-16.604-22.466zm-46.836-267.194c3.536-3.535 9.288-3.536 12.822-.001l11.716 11.715c1.712 1.712 2.655 3.989 2.655 6.411s-.943 4.699-2.656 6.411c-.003.003-.006.007-.009.01l-11.705 11.704c-2.93 2.929-2.93 7.677-.001 10.606 1.465 1.465 3.384 2.197 5.304 2.197 1.919 0 3.839-.732 5.303-2.197l6.411-6.411 6.411 6.411c3.535 3.535 3.535 9.287 0 12.822l-18.125 18.125-47.965-47.965zm-52.913 52.915 12.468-12.469 47.965 47.965-12.469 12.469c-.036.036-.146.146-.353.146-.206 0-.316-.11-.353-.146l-47.259-47.258c-.195-.195-.195-.512.001-.707zm-368.46-6.057 6.411-6.411 6.411 6.411c1.464 1.464 3.384 2.197 5.303 2.197s3.839-.732 5.303-2.197c2.929-2.929 2.929-7.678 0-10.606l-11.714-11.714c-1.712-1.712-2.655-3.989-2.655-6.411s.943-4.699 2.655-6.411l11.714-11.714c1.768-1.768 4.089-2.651 6.412-2.651 2.321 0 4.644.884 6.411 2.651l29.84 29.84-47.966 47.965-18.125-18.127c-3.535-3.535-3.535-9.287 0-12.822zm41.909 54.023c-.036.036-.147.146-.354.146s-.317-.11-.354-.146l-12.469-12.469 47.966-47.965 12.469 12.469c.195.195.195.512 0 .707zm353.987 119.209c1.554 2.783 4.691 4.278 7.84 3.732 2.449-.428 4.909-.645 7.31-.645 23.27 0 42.2 18.931 42.2 42.2 0 .261-.012.522-.016.783h-141.971c9.691-8.703 18.004-18.915 24.541-30.235 8.087-14.003 13.314-29.5 15.422-45.518 18.652 2.072 35.387 13.045 44.674 29.683zm-225.85-336.53h117.533v18.133h-117.533zm-33.133 42.2c0-4.999 4.067-9.066 9.066-9.066h165.667c5 0 9.067 4.067 9.067 9.066s-4.067 9.067-9.067 9.067h-165.667c-4.999 0-9.066-4.068-9.066-9.067zm29.496 24.067h124.808c8.465 12.471 12.929 26.981 12.929 42.2 0 23.099-10.246 44.378-28.196 58.767h-94.273c-17.952-14.389-28.198-35.667-28.198-58.767 0-15.22 4.465-29.729 12.93-42.2zm-7.45 123.26c.843-4.226 4.583-7.294 8.892-7.294h121.924c4.31 0 8.048 3.067 8.891 7.293l2.163 10.841h-144.032zm-12.528 74.451-16.965-16.964c5.101-11.59 12.264-22.288 21.312-31.646h156.071c9.047 9.358 16.21 20.056 21.31 31.646l-16.965 16.965c-2.929 2.929-2.929 7.678 0 10.607 1.465 1.464 3.385 2.197 5.304 2.197s3.839-.732 5.304-2.197l11.856-11.856c2.384 9.008 3.622 18.389 3.622 27.972 0 37.706-18.974 71.901-50.849 91.9h-115.237c-31.874-19.999-50.848-54.194-50.848-91.9 0-9.583 1.237-18.963 3.622-27.972l11.856 11.856c1.464 1.464 3.384 2.197 5.303 2.197s3.839-.732 5.303-2.197c2.93-2.93 2.93-7.68.001-10.608zm-99.851 75.639c2.401 0 4.861.217 7.312.645 3.141.55 6.286-.949 7.839-3.733 9.286-16.637 26.022-27.61 44.674-29.683 2.107 16.019 7.334 31.515 15.421 45.518 6.538 11.32 14.85 21.533 24.542 30.236h-141.972c-.005-.261-.016-.522-.016-.783 0-23.269 18.931-42.2 42.2-42.2z"/><path d="m256 213.8c13.27 0 24.066-10.796 24.066-24.066 0-13.271-10.796-24.067-24.066-24.067-13.271 0-24.067 10.796-24.067 24.067 0 13.27 10.796 24.066 24.067 24.066zm0-33.133c4.999 0 9.066 4.067 9.066 9.067 0 4.999-4.067 9.066-9.066 9.066-5 0-9.067-4.067-9.067-9.066 0-5 4.067-9.067 9.067-9.067z"/><path d="m256 346.334c13.27 0 24.066-10.796 24.066-24.067s-10.796-24.066-24.066-24.066c-13.271 0-24.067 10.796-24.067 24.066s10.796 24.067 24.067 24.067zm0-33.134c4.999 0 9.066 4.067 9.066 9.066s-4.067 9.067-9.066 9.067c-5 0-9.067-4.067-9.067-9.067 0-4.998 4.067-9.066 9.067-9.066z"/><path d="m256 412.6c13.27 0 24.066-10.796 24.066-24.067 0-13.27-10.796-24.066-24.066-24.066-13.271 0-24.067 10.796-24.067 24.066 0 13.271 10.796 24.067 24.067 24.067zm0-33.133c4.999 0 9.066 4.067 9.066 9.066 0 5-4.067 9.067-9.066 9.067-5 0-9.067-4.067-9.067-9.067 0-4.999 4.067-9.066 9.067-9.066z"/><path d="m222.867 172.383c4.142 0 7.5-3.358 7.5-7.5v-8.283c0-4.142-3.358-7.5-7.5-7.5s-7.5 3.358-7.5 7.5v8.283c0 4.142 3.358 7.5 7.5 7.5z"/><path d="m289.134 172.383c4.143 0 7.5-3.358 7.5-7.5v-8.283c0-4.142-3.357-7.5-7.5-7.5s-7.5 3.358-7.5 7.5v8.283c0 4.142 3.357 7.5 7.5 7.5z"/><path d="m73.767 130.967c13.271 0 24.067-10.796 24.067-24.067 0-13.27-10.796-24.066-24.067-24.066s-24.067 10.796-24.067 24.066 10.796 24.067 24.067 24.067zm0-33.133c5 0 9.067 4.067 9.067 9.066s-4.067 9.067-9.067 9.067c-4.999 0-9.066-4.067-9.066-9.067-.001-4.999 4.067-9.066 9.066-9.066z"/><path d="m123.467 48.133c13.27 0 24.066-10.796 24.066-24.066 0-13.271-10.796-24.067-24.066-24.067s-24.067 10.796-24.067 24.067c0 13.27 10.796 24.066 24.067 24.066zm0-33.133c4.999 0 9.066 4.067 9.066 9.067 0 4.999-4.067 9.066-9.066 9.066-5 0-9.067-4.067-9.067-9.066 0-5 4.067-9.067 9.067-9.067z"/><path d="m438.233 130.967c13.271 0 24.066-10.796 24.066-24.067 0-13.27-10.796-24.066-24.066-24.066s-24.066 10.796-24.066 24.066 10.796 24.067 24.066 24.067zm0-33.133c4.999 0 9.066 4.067 9.066 9.066s-4.067 9.067-9.066 9.067-9.066-4.067-9.066-9.067c0-4.999 4.067-9.066 9.066-9.066z"/><path d="m388.533 48.133c13.271 0 24.066-10.796 24.066-24.066.001-13.271-10.795-24.067-24.066-24.067s-24.066 10.796-24.066 24.067c0 13.27 10.796 24.066 24.066 24.066zm0-33.133c4.999 0 9.066 4.067 9.066 9.067 0 4.999-4.067 9.066-9.066 9.066s-9.066-4.067-9.066-9.066c0-5 4.067-9.067 9.066-9.067z"/></g></g></svg>