<svg id="Capa_1" enable-background="new 0 0 512 512" height="512" viewBox="0 0 512 512" width="512" xmlns="http://www.w3.org/2000/svg"><g><g fill="#8c5e5e"><path d="m151.734 276.722-66.078-66.089c-2.972-2.973-7.792-2.972-10.764-.001-2.973 2.972-2.973 7.792-.001 10.764l15.519 15.521h-17.848c-4.204 0-7.612 3.407-7.612 7.611s3.408 7.611 7.612 7.611h33.068l35.339 35.345c1.486 1.487 3.435 2.23 5.383 2.23s3.895-.743 5.382-2.229c2.971-2.972 2.972-7.791 0-10.763z"/><path d="m275.168 365.85h-21.799c-1.603 0-3.165.506-4.464 1.446l-8.35 6.045 2.793-26.236c.445-4.18-2.583-7.93-6.763-8.375-4.173-.43-7.929 2.583-8.375 6.763l-4.244 39.857-59.422 43.021c-3.405 2.466-4.167 7.224-1.701 10.629 1.489 2.057 3.813 3.148 6.172 3.148 1.547 0 3.109-.471 4.457-1.447l40.35-29.213 44.86 6.208c.354.048.705.072 1.052.072 3.741 0 7.003-2.759 7.53-6.569.576-4.165-2.333-8.007-6.497-8.584l-29.125-4.03 24.192-17.515h19.333c4.204 0 7.612-3.407 7.612-7.611s-3.407-7.609-7.611-7.609z"/><path d="m257.109 292.279-27.519-4.05 1.362-.835c3.583-2.198 4.707-6.885 2.508-10.469-2.197-3.583-6.885-4.706-10.468-2.509l-68.847 42.23c-3.583 2.198-4.707 6.885-2.508 10.469 1.437 2.342 3.936 3.632 6.496 3.632 1.357 0 2.731-.362 3.972-1.124l47.255-28.985 45.532 6.702c.376.056.749.083 1.118.083 3.713 0 6.964-2.722 7.521-6.504.612-4.16-2.264-8.027-6.422-8.64z"/><path d="m141.447 384.594-27.478-16.851-14.128-48.545c-1.175-4.037-5.399-6.359-9.435-5.182-4.036 1.175-6.356 5.398-5.181 9.436l9.445 32.456-20.618-12.644c-1.197-.734-2.575-1.123-3.979-1.123h-29.897c-4.204 0-7.612 3.407-7.612 7.612 0 4.204 3.408 7.611 7.612 7.611h27.75l65.563 40.206c1.241.761 2.615 1.124 3.972 1.124 2.56 0 5.06-1.292 6.496-3.633 2.197-3.583 1.073-8.27-2.51-10.467z"/></g><path d="m386.812 15.989 19.626-15.037c2.561-1.962 6.293-.749 7.212 2.343l7.039 23.701c2.113 7.114 8.735 11.926 16.154 11.737l24.716-.63c3.225-.082 5.532 3.093 4.457 6.135l-8.237 23.312c-2.472 6.997.057 14.783 6.17 18.99l20.366 14.018c2.657 1.829 2.657 5.754 0 7.583l-20.366 14.018c-6.113 4.208-8.643 11.993-6.17 18.99l8.237 23.312c1.075 3.042-1.232 6.217-4.457 6.135l-24.716-.63c-7.419-.189-14.041 4.623-16.154 11.737l-7.039 23.701c-.918 3.093-4.651 4.305-7.212 2.343l-19.626-15.037c-5.891-4.513-14.077-4.513-19.967 0l-19.625 15.037c-2.561 1.962-6.293.749-7.212-2.343l-7.039-23.701c-2.113-7.114-8.735-11.926-16.154-11.737l-24.716.63c-3.225.082-5.532-3.093-4.457-6.135l8.237-23.312c2.472-6.997-.057-14.783-6.17-18.99l-20.366-14.018c-2.657-1.829-2.657-5.754 0-7.583l20.366-14.018c6.113-4.208 8.643-11.993 6.17-18.99l-8.237-23.312c-1.075-3.042 1.232-6.217 4.457-6.135l24.716.63c7.419.189 14.041-4.623 16.154-11.737l7.039-23.701c.918-3.093 4.651-4.305 7.212-2.343l19.625 15.037c5.89 4.513 14.076 4.513 19.967 0z" fill="#ecc52e"/><path d="m148.306 185.695-28.253 318.694h63.878l-28.253-318.694c-.398-4.499-6.973-4.499-7.372 0z" fill="#8c5e5e"/><path d="m155.679 185.695c-.399-4.499-6.974-4.499-7.373 0l-6.336 71.471 21.917 247.222h20.045z" fill="#785252"/><ellipse cx="376.828" cy="104.349" fill="#e69642" rx="51.402" ry="51.402" transform="matrix(.999 -.041 .041 .999 -3.94 15.447)"/><path d="m422.116 80.025c.056.986.092 1.977.092 2.976 0 28.388-23.013 51.402-51.402 51.402-19.588 0-36.613-10.959-45.288-27.078 1.543 27.002 23.921 48.425 51.31 48.425 28.388 0 51.402-23.013 51.402-51.401 0-8.8-2.216-17.082-6.114-24.324z" fill="#e27c48"/><path d="m481.177 512h-450.354c-4.204 0-7.611-3.407-7.611-7.612s3.408-7.611 7.611-7.611h450.354c4.204 0 7.611 3.407 7.611 7.611s-3.407 7.612-7.611 7.612z" fill="#e5936a"/><path d="m312.431 414.456c-1.59.001-3.192-.496-4.562-1.523-3.363-2.522-4.044-7.293-1.521-10.656l20.93-27.898-18.439-24.578c-3.484-4.645-3.484-11.133.001-15.776l18.438-24.574-18.438-24.574c-3.485-4.644-3.485-11.132 0-15.776l21.865-29.141c2.523-3.363 7.294-4.045 10.657-1.52 3.362 2.523 4.043 7.294 1.52 10.656l-20.929 27.893 18.438 24.574c3.485 4.644 3.485 11.133 0 15.777l-18.438 24.573 18.439 24.578c3.484 4.644 3.484 11.132 0 15.776l-21.866 29.146c-1.496 1.992-3.781 3.043-6.095 3.043z" fill="#e5936a"/><path d="m364.643 414.456c-1.59.001-3.192-.496-4.562-1.523-3.362-2.522-4.044-7.293-1.521-10.656l20.93-27.898-18.439-24.578c-3.485-4.644-3.484-11.132.001-15.776l18.438-24.574-18.438-24.574c-3.485-4.644-3.485-11.132 0-15.776l21.865-29.141c2.523-3.363 7.293-4.045 10.657-1.52 3.362 2.523 4.043 7.294 1.52 10.656l-20.929 27.893 18.438 24.574c3.486 4.645 3.485 11.134-.001 15.778l-18.437 24.572 18.439 24.578c3.485 4.644 3.485 11.132 0 15.776l-21.865 29.146c-1.496 1.992-3.782 3.043-6.096 3.043z" fill="#e5936a"/><path d="m416.856 414.456c-1.59.001-3.192-.496-4.562-1.523-3.362-2.522-4.044-7.293-1.521-10.656l20.93-27.898-18.439-24.578c-3.485-4.644-3.485-11.132 0-15.776l18.438-24.574-18.438-24.574c-3.485-4.644-3.485-11.132 0-15.776l21.865-29.141c2.523-3.363 7.293-4.045 10.657-1.52 3.362 2.523 4.043 7.294 1.52 10.656l-20.929 27.893 18.437 24.574c3.485 4.644 3.485 11.133 0 15.777l-18.438 24.573 18.439 24.578c3.485 4.644 3.485 11.132 0 15.776l-21.865 29.146c-1.495 1.992-3.781 3.043-6.094 3.043z" fill="#e5936a"/></g></svg>