<svg height="512" viewBox="0 0 60 60" width="512" xmlns="http://www.w3.org/2000/svg"><g id="Icons"><path d="m10.12 34.84c-1.47-.32-3.43.61-4.21.87.48-.91 2.24-3.41 1.31-5.04s-3.94-1.34-4.95-1.38c.75-.68 3.24-2.42 2.92-4.28s-3.25-2.63-4.19-3.01c.94-.38 3.87-1.15 4.19-3.01s-2.17-3.6-2.92-4.28c1.01-.04 4.02.26 4.95-1.38s-.83-4.13-1.31-5.04c.96.32 3.69 1.65 5.12.43s.61-4.17.47-5.19c.8.64 2.91 2.83 4.66 2.18s1.99-3.7 2.19-4.71c.54.87 1.79 3.67 3.65 3.67s3.11-2.8 3.65-3.67c.2 1.01.44 4.07 2.19 4.71s3.86-1.54 4.66-2.18c-.14 1.02-.95 3.98.47 5.19s4.16-.11 5.12-.43c-.48.91-2.24 3.41-1.31 5.04a2.822 2.822 0 0 0 1.97 1.21c0-.01.01 0 .01 0l-.76 20.46z" fill="#f9eab0"/><circle cx="22" cy="22" fill="#f0c419" r="13"/><path d="m55.25 43.99a9.385 9.385 0 0 0 3.75-7.32c0-4.61-3.67-8.48-8.68-9.68a8.326 8.326 0 0 0 1.12-4.18c0-4.86-4.22-8.81-9.44-8.81s-9.44 3.95-9.44 8.81a1.148 1.148 0 0 0 .01.19 7.354 7.354 0 0 0 -4.42-1.44c-3.83 0-6.93 2.81-6.93 6.29a5.839 5.839 0 0 0 .7 2.74 7.556 7.556 0 1 0 -1.09 12.82c1.06 2.65 4.49 4.59 8.58 4.59a11.892 11.892 0 0 0 3.59-.54z" fill="#b0d3f0"/><path d="m47.444 23.814a1 1 0 0 1 -1-1c0-2.103-1.993-3.814-4.444-3.814a1 1 0 0 1 0-2c3.553 0 6.444 2.608 6.444 5.814a1 1 0 0 1 -1 1z" fill="#fff"/><g fill="#f9eab0"><circle cx="18" cy="14" r="1"/><circle cx="14" cy="19" r="1"/><circle cx="19" cy="19" r="1"/></g><path d="m56 47.5a11.5 11.5 0 0 1 -23 0c0-4.849 6.7-14.826 9.874-19.274a2 2 0 0 1 3.252 0c3.174 4.448 9.874 14.425 9.874 19.274z" fill="#3b97d3"/><path d="m44.5 56a1 1 0 0 1 0-2 6.508 6.508 0 0 0 6.5-6.5 1 1 0 0 1 2 0 8.51 8.51 0 0 1 -8.5 8.5z" fill="#fff"/></g></svg>