<svg id="Capa_1" enable-background="new 0 0 512.111 512.111" height="512" viewBox="0 0 512.111 512.111" width="512" xmlns="http://www.w3.org/2000/svg"><g><g><circle cx="256" cy="256.111" fill="#ff1f3d" r="248.5"/><path d="m256 7.611c-3.856 0-7.687.101-11.5.274 131.903 6.01 237 114.839 237 248.226s-105.097 242.216-237 248.226c3.813.174 7.644.274 11.5.274 137.243 0 248.5-111.257 248.5-248.5s-111.257-248.5-248.5-248.5z" fill="#bd0410"/><path d="m40.634 256.108c.001-50.149 17.149-96.289 45.892-132.892 3.074-3.915 8.875-4.277 12.395-.757l290.731 290.731c3.52 3.52 3.158 9.32-.757 12.395-36.603 28.744-82.742 45.892-132.892 45.892-118.676.002-215.371-96.693-215.369-215.369z" fill="#fff5f5"/><path d="m413.08 389.762-290.731-290.731c-3.52-3.52-3.158-9.32.757-12.395 36.603-28.744 82.743-45.892 132.892-45.892 118.675-.001 215.371 96.694 215.369 215.369-.001 50.149-17.149 96.289-45.892 132.892-3.075 3.915-8.875 4.277-12.395.757z" fill="#fff5f5"/><path d="m389.652 413.19-290.732-290.731c-3.52-3.52-9.32-3.158-12.395.757-1.475 1.879-2.912 3.789-4.326 5.717l284.258 284.257c3.52 3.52 3.158 9.32-.757 12.395-33.771 26.52-75.665 43.157-121.332 45.575 3.854.206 7.732.318 11.635.317 50.149 0 96.289-17.148 132.892-45.892 3.914-3.074 4.276-8.875.757-12.395z" fill="#eceae7"/><path d="m255.998 40.744c-3.879 0-7.731.115-11.559.318 113.295 6.073 203.735 100.28 203.734 215.052-.001 47.575-15.441 91.536-41.566 127.174l6.475 6.474c3.52 3.52 9.32 3.158 12.395-.757 28.744-36.603 45.892-82.742 45.892-132.892-.001-118.675-96.696-215.37-215.371-215.369z" fill="#eceae7"/><path d="m136.014 399.526-23.429-23.429-23.829 23.829c-6.248 6.248-6.248 16.379 0 22.627l.801.801c6.248 6.248 16.379 6.248 22.627 0z" fill="#edf5ff"/><path d="m89.346 423.145.211.211c6.248 6.248 16.379 6.248 22.627 0l23.83-23.829-11.524-11.524z" fill="#cee8ff"/><g><path d="m111.596 358.488h49.7v34.355h-49.7z" fill="#cee8ff" transform="matrix(.707 .707 -.707 .707 305.599 13.548)"/><path d="m131.02 345.947-12.388 12.388 20.79 20.79c1.562 1.562 1.562 4.095 0 5.657l-9.076 9.076 11.524 11.524 24.293-24.293z" fill="#aedaff"/></g><g><path d="m322.808 274.505 15.193-6.68 70.286-70.286-93.715-93.715-70.286 70.286-8.887 14.162-14.542 9.267-88.748 88.748c-5.069 5.069-8.358 11.646-9.371 18.743l-1.952 13.667c-1.475 10.324 1.997 20.74 9.371 28.114l35.143 35.143c7.374 7.374 17.79 10.846 28.115 9.371l13.667-1.952c7.097-1.014 13.674-4.302 18.743-9.371l88.748-88.748z" fill="#edf5ff"/><path d="m322.808 274.505 15.193-6.68 70.286-70.286-93.715-93.715-12.701 12.701 79.362 79.363c1.562 1.562 1.562 4.095 0 5.657l-178.457 178.457c-5.069 5.069-11.646 8.358-18.743 9.371l-5.24.749c4.663 1.467 9.651 1.914 14.622 1.204l13.667-1.952c7.097-1.014 13.674-4.302 18.743-9.371l88.748-88.748z" fill="#cee8ff"/></g><g><path d="m369.81 73.857h87.188v49.7h-87.188z" fill="#cee8ff" transform="matrix(.707 -.707 .707 .707 51.287 321.231)"/><path d="m426.658 50.31-12.252 12.251 23.619 23.619-49.399 49.4 11.524 11.524 61.651-61.651z" fill="#aedaff"/></g><path d="m478.846 103.952-70.687-70.687c-3.124-3.124-3.124-8.19 0-11.314l12.115-12.115c3.124-3.124 8.189-3.124 11.314 0l70.687 70.687c3.124 3.124 3.124 8.19 0 11.314l-12.115 12.115c-3.125 3.125-8.19 3.125-11.314 0z" fill="#edf5ff"/><path d="m502.274 80.523-70.687-70.687c-3.124-3.124-8.19-3.124-11.314 0l-5.868 5.868 64.82 64.82c3.124 3.124 3.124 8.19 0 11.314l-6.248 6.248 5.867 5.868c3.124 3.124 8.189 3.124 11.314 0l12.115-12.115c3.126-3.126 3.126-8.191.001-11.316z" fill="#cee8ff"/><g><path d="m275.303 161.435h101.045v49.7h-101.045z" fill="#cee8ff" transform="matrix(.707 -.707 .707 .707 -36.291 284.955)"/><path d="m343.979 132.989-12.822 12.822 20.79 20.79c1.562 1.562 1.562 4.095 0 5.657l-55.799 55.798 11.524 11.524 71.449-71.45z" fill="#aedaff"/></g><g><path d="m268.741 290.228-62.441 62.44c-2.535 2.535-5.823 4.179-9.371 4.686-5.162.737-10.37-.999-14.057-4.686l-23.429-23.429c-3.687-3.687-5.423-8.895-4.686-14.057.507-3.548 2.151-6.837 4.686-9.372l62.441-62.441z" fill="#45f6ff"/><path d="m221.883 243.37-12.615 12.615 32.505 32.505c1.562 1.562 1.562 4.095 0 5.657l-58.521 58.521c-.062.062-.13.117-.192.177 4.824 4.675 12.132 6.094 18.571 3.111 1.828-.847 3.456-2.075 4.881-3.499l62.23-62.23z" fill="#5ecbf1"/></g><g><path d="m262.862 166.415h33.134v132.533h-33.134z" fill="#fff5f5" transform="matrix(.707 -.707 .707 .707 -82.688 265.737)"/><path d="m244.286 174.11-11.524 11.524 79.362 79.363c1.562 1.562 1.562 4.095 0 5.657l-9.076 9.076 11.524 11.524 23.429-23.429z" fill="#eceae7"/></g><path d="m430.539 175.287-29.286-29.286-23.429-11.714-11.714-23.429-29.286-29.286c-6.47-6.47-16.959-6.47-23.429 0s-6.47 16.959 0 23.429l93.715 93.715c6.47 6.47 16.959 6.47 23.429 0s6.47-16.959 0-23.429z" fill="#edf5ff"/><path d="m430.539 175.287-93.715-93.715c-6.409-6.409-16.756-6.459-23.239-.172.062.06.129.111.19.172l93.715 93.715c6.47 6.47 6.47 16.959 0 23.429-.061.061-.128.112-.19.172 6.483 6.288 16.83 6.237 23.239-.172 6.47-6.47 6.47-16.959 0-23.429z" fill="#cee8ff"/><path d="m296.543 320.082 23.428-23.429-101.835-101.834-23.338 23.338z" fill="#ff1f3d"/></g><path d="m461.074 96.787 12.469 12.468c3.022 3.022 6.991 4.533 10.961 4.533 3.969 0 7.938-1.511 10.96-4.533l12.115-12.115c6.043-6.044 6.043-15.877 0-21.92l-70.688-70.687c-6.044-6.043-15.875-6.044-21.921 0l-12.115 12.116c-6.042 6.043-6.042 15.876 0 21.92l12.469 12.469-2.631 2.631c-44.653-34.58-100.021-53.558-156.693-53.558-62.018 0-121.85 22.461-168.476 63.247-3.117 2.727-3.434 7.465-.706 10.583 1.482 1.695 3.56 2.562 5.647 2.562 1.752 0 3.513-.611 4.936-1.855 43.89-38.393 100.215-59.537 158.599-59.537 52.715 0 104.226 17.443 145.993 49.257l-13.039 13.039c-38.68-28.91-84.5-44.163-132.957-44.162-50.403 0-97.959 16.424-137.524 47.494-3.557 2.793-5.751 6.981-6.021 11.492-.271 4.503 1.403 8.915 4.593 12.104l290.732 290.731c2.967 2.966 6.989 4.622 11.16 4.622.314 0 .629-.009.943-.028 4.511-.27 8.7-2.465 11.493-6.021 31.07-39.565 47.493-87.12 47.494-137.525 0-48.456-15.253-94.276-44.162-132.957l13.038-13.038c31.815 41.767 49.257 93.277 49.257 145.992 0 132.888-108.112 241-241 241-62.205 0-118.979-23.691-161.778-62.522 2.132.625 4.364.953 6.648.953 5.784 0 11.246-2.08 15.542-5.879 39.525 31.844 88.817 49.315 139.589 49.314 50.405-.001 97.961-16.424 137.525-47.494 3.557-2.793 5.751-6.981 6.021-11.492.271-4.503-1.403-8.915-4.593-12.104l-290.73-290.731c-3.19-3.189-7.615-4.862-12.104-4.593-4.512.27-8.7 2.465-11.493 6.022-31.07 39.565-47.493 87.12-47.494 137.523 0 50.781 17.476 100.081 49.33 139.609-5.485 6.216-7.142 14.647-4.922 22.192-38.842-42.801-62.541-99.584-62.541-161.798 0-57.793 20.767-113.684 58.475-157.376 2.706-3.136 2.358-7.872-.777-10.578-3.137-2.706-7.87-2.359-10.578.777-40.059 46.416-62.12 105.787-62.12 167.177 0 65.874 24.722 127.943 69.761 175.633l-67.564 67.563c-2.929 2.929-2.929 7.678 0 10.606 1.465 1.465 3.384 2.197 5.304 2.197 1.919 0 3.839-.732 5.304-2.197l67.564-67.564c47.689 45.039 109.759 69.76 175.632 69.76 68.38 0 132.668-26.629 181.02-74.98 48.352-48.352 74.98-112.64 74.98-181.02 0-56.672-18.978-112.039-53.557-156.693zm-360.204 323.755c-2.271 0-4.404-.884-6.012-2.491l-.394-.394c-.002-.002-.003-.003-.005-.005s-.004-.003-.005-.005l-.396-.396c-3.314-3.314-3.314-8.707 0-12.021l18.526-18.526 12.822 12.822-18.525 18.525c-1.605 1.607-3.74 2.491-6.011 2.491zm109.38-176.146-56.11 56.111c-3.658 3.658-6.076 8.493-6.808 13.615-1.065 7.459 1.479 15.093 6.807 20.421l23.43 23.429c4.528 4.528 10.722 7.045 17.059 7.045 1.119 0 2.243-.079 3.363-.239 5.122-.732 9.956-3.15 13.613-6.807l56.111-56.111 12.822 12.822-60.016 60.016c-3.895 3.896-9.046 6.471-14.5 7.25l-13.667 1.953c-7.943 1.133-16.076-1.575-21.75-7.25l-35.144-35.144c-5.676-5.675-8.386-13.806-7.25-21.75l1.952-13.667c.779-5.455 3.354-10.605 7.25-14.501l60.016-60.016zm46.858 46.858-56.112 56.112c-1.378 1.377-3.199 2.288-5.128 2.564-2.807.406-5.686-.558-7.693-2.564l-23.429-23.429c-2.008-2.007-2.966-4.883-2.564-7.693.275-1.93 1.186-3.751 2.564-5.129l56.11-56.111zm-126.952 66.164 24.537 24.537-12.822 12.822-.549-.549c-.002-.002-.003-.003-.005-.005l-23.429-23.429c-.002-.002-.003-.003-.005-.005l-.549-.549zm254.419 61.676c-.015.242-.12.441-.312.593-36.897 28.975-81.249 44.29-128.262 44.291-46.791 0-92.237-15.913-128.879-44.953l8.892-8.892 6.41 6.41c1.465 1.464 3.385 2.197 5.304 2.197s3.839-.732 5.304-2.197c2.929-2.929 2.929-7.678 0-10.606l-.553-.553 13.329-13.329c6.754 4.599 14.799 7.099 22.99 7.099 1.889 0 3.788-.132 5.678-.402l13.667-1.953c8.646-1.235 16.81-5.317 22.986-11.493l60.016-60.016 93.204 93.204c.06.06.248.248.226.6zm-292.151-291.246c.152-.193.352-.298.594-.312.357-.023.538.165.599.227l93.205 93.204-60.016 60.016c-6.176 6.176-10.257 14.339-11.492 22.986l-1.952 13.667c-1.441 10.085 1.036 20.355 6.696 28.668l-13.329 13.329-.554-.554c-2.93-2.929-7.678-2.929-10.607 0s-2.929 7.678 0 10.607l6.411 6.411-8.893 8.892c-29.04-36.642-44.952-82.09-44.952-128.881 0-47.011 15.315-91.362 44.29-128.26zm321.038-100.593 12.115-12.115c.097-.097.225-.146.353-.146.129 0 .257.049.354.146l70.688 70.688c.195.195.195.512 0 .707l-12.115 12.115c-.192.193-.512.195-.706 0l-70.688-70.687c-.196-.196-.196-.514-.001-.708zm37.005 58.926-49.214 49.214-24.537-24.536 49.214-49.214zm-38.053 107.232-93.716-93.715c-3.535-3.535-3.535-9.287 0-12.822 1.768-1.767 4.089-2.651 6.41-2.651 2.322 0 4.644.884 6.411 2.651l93.717 93.716c1.712 1.712 2.655 3.989 2.655 6.411s-.943 4.699-2.656 6.411c-3.535 3.535-9.286 3.534-12.821-.001zm-180.95 4.126 12.822-12.822 83.109 83.108-12.822 12.822zm135.753-28.109-58.502 58.502-24.536-24.536 58.502-58.502zm-29.216 87.788-18.679-18.679 58.502-58.502 18.68 18.679zm-210.576-164.09c.015-.242.12-.441.312-.593 36.897-28.975 81.25-44.291 128.261-44.291 44.456-.001 86.537 13.762 122.238 39.881l-12.126 12.126-23.982-23.982c-9.384-9.383-24.65-9.385-34.036 0-4.545 4.545-7.049 10.589-7.049 17.018 0 3.841.9 7.542 2.59 10.87l-17.329 17.329c-2.929 2.929-2.929 7.678 0 10.606 2.93 2.929 7.678 2.929 10.607 0l16.484-16.485 18.679 18.679-58.502 58.502-18.679-18.679 17.269-17.269c2.929-2.929 2.929-7.678 0-10.607-2.93-2.929-7.678-2.929-10.607 0l-40.697 40.697-93.204-93.204c-.063-.059-.25-.246-.229-.598zm336.442 162.984c-.001 47.013-15.316 91.364-44.291 128.261-.151.193-.352.298-.594.312-.362.024-.537-.165-.599-.227l-93.205-93.204 82.775-82.775c3.329 1.689 7.029 2.589 10.87 2.589 6.429 0 12.473-2.503 17.019-7.049 4.545-4.545 7.049-10.589 7.049-17.018s-2.504-12.473-7.049-17.018l-23.983-23.983 12.126-12.126c26.12 35.703 39.882 77.784 39.882 122.238z"/></g></svg>