<svg height="512" viewBox="0 0 64 64" width="512" xmlns="http://www.w3.org/2000/svg"><g id="Layer_30" data-name="Layer 30"><circle cx="15" cy="15" fill="#7ed63e" r="10"/><path d="m47.46 26.44-4.72 4.72-16.49 16.49a2 2 0 0 1 -2.83 0l-1.41-1.41v-.01l-4.24-4.24h-.01l-1.41-1.41a2 2 0 0 1 0-2.83l21.21-21.21z" fill="#d1e7f8"/><path d="m16.474 42.528h3.997v6h-3.997z" fill="#57a4ff" transform="matrix(.707 -.707 .707 .707 -26.783 26.396)"/><path d="m19.885 41.114h.003v6h-.003z" fill="#9bc9ff" transform="matrix(.707 -.707 .707 .707 -25.369 26.982)"/><path d="m43.636 11.536h11.657v6h-11.657z" fill="#9bc9ff" transform="matrix(.707 -.707 .707 .707 4.21 39.234)"/><path d="m48.636 5.464 2.828 2.829 4.243 4.243 2.829 2.828 2.828-2.828-9.9-9.9z" fill="#2488ff"/><path d="m36.151 15.121 12.728 12.728 2.828-2.828-8.485-8.485-4.243-4.243z" fill="#57a4ff"/><path d="m17.059 49.77 1.414-1.415-2.828-2.828-1.415 1.414a2 2 0 1 0 2.829 2.829z" fill="#2488ff"/><path d="m54 41v-3h-5v3c-2.2 0-5 1.8-5 4v14c0 1.1 1.9 2 3 2h9a2.006 2.006 0 0 0 2-2v-14a4.012 4.012 0 0 0 -4-4z" fill="#d1e7f8"/><path d="m54 41v-3h-1v2.442a.993.993 0 0 0 .595.908 3.994 3.994 0 0 1 2.405 3.65v14a2.006 2.006 0 0 1 -2 2h2a2.006 2.006 0 0 0 2-2v-14a4.012 4.012 0 0 0 -4-4z" fill="#bddbff"/><path d="m47 34h8v4h-8z" fill="#ff5023"/><path d="m44 46h14v10h-14z" fill="#ffcd00"/><path d="m56 46h2v10h-2z" fill="#ebbf00"/><g fill="#231f20"><path d="m53 50h-1v-1a1 1 0 0 0 -2 0v1h-1a1 1 0 0 0 0 2h1v1a1 1 0 0 0 2 0v-1h1a1 1 0 0 0 0-2z"/><path d="m54 40v-1h1a1 1 0 0 0 1-1v-4a1 1 0 0 0 -1-1h-8a1 1 0 0 0 -1 1v4a1 1 0 0 0 1 1h1v1a5 5 0 0 0 -5 5v14a3.009 3.009 0 0 0 3 3h10a3.009 3.009 0 0 0 3-3v-14a5 5 0 0 0 -5-5zm-6-5h6v2h-6zm0 7h1a1 1 0 0 0 1-1v-2h2v2a1 1 0 0 0 1 1h1a3.01 3.01 0 0 1 2.82 2h-11.64a3.01 3.01 0 0 1 2.82-2zm9 17a1 1 0 0 1 -1 1h-10a1 1 0 0 1 -1-1v-1h12zm0-3h-12v-10h12z"/><path d="m15 26a11 11 0 1 0 -11-11 11.013 11.013 0 0 0 11 11zm0-20a9 9 0 1 1 -9 9 9.011 9.011 0 0 1 9-9z"/><path d="m62.07 11.83-9.9-9.9a1 1 0 0 0 -1.41 0l-2.83 2.83a.967.967 0 0 0 -.29.7.99.99 0 0 0 .29.71l2.12 2.12-6.83 6.83-3.53-3.53a1.008 1.008 0 0 0 -1.42 0l-2.83 2.82a1.052 1.052 0 0 0 -.29.71 1.033 1.033 0 0 0 .29.71l.71.71-20.51 20.5a3.006 3.006 0 0 0 0 4.25l.71.7-2.12 2.12a1.008 1.008 0 0 0 0 1.42l-.71.7a3 3 0 0 0 -.57 3.41l-10.66 10.65a1.008 1.008 0 0 0 0 1.42 1.014 1.014 0 0 0 1.42 0l10.65-10.66a2.906 2.906 0 0 0 1.29.3 3.024 3.024 0 0 0 2.12-.87l.7-.71a1.014 1.014 0 0 0 1.42 0l2.12-2.12.7.71a3.006 3.006 0 0 0 4.25 0l20.5-20.51.71.71a1.024 1.024 0 0 0 .71.29 1.042 1.042 0 0 0 .71-.29l2.82-2.83a1.008 1.008 0 0 0 0-1.42l-3.53-3.53 6.83-6.83 2.12 2.12a1 1 0 0 0 1.41 0l2.83-2.83a.967.967 0 0 0 .29-.7.99.99 0 0 0 -.29-.71zm-45.72 37.23a1.014 1.014 0 0 1 -1.41 0 .978.978 0 0 1 0-1.41l.7-.71 1.42 1.42zm2.83-1.41-2.83-2.83 1.41-1.41 2.83 2.83zm6.36-.71a1.014 1.014 0 0 1 -1.41 0l-7.07-7.07a.978.978 0 0 1 0-1.41l.71-.71 3.53 3.53a.992.992 0 0 0 .71.3 1.01 1.01 0 0 0 .71-.3 1 1 0 0 0 0-1.41l-3.54-3.54 1.41-1.41 3.54 3.54a1.024 1.024 0 0 0 .71.29 1 1 0 0 0 .7-1.71l-3.53-3.53 1.41-1.42 3.54 3.54a1 1 0 0 0 1.41-1.42l-3.53-3.53 1.41-1.42 3.54 3.54a1 1 0 0 0 1.41-1.42l-3.53-3.53 1.41-1.42 3.54 3.54a.96.96 0 0 0 .7.29.982.982 0 0 0 .71-.29 1 1 0 0 0 0-1.41l-3.54-3.54 1.42-1.41 3.53 3.53a1 1 0 1 0 1.42-1.41l-3.54-3.54 4.24-4.24 8.49 8.49zm24.75-21.92-1.41 1.42-11.32-11.32 1.42-1.41zm-2.83-5.66-2.82-2.82 6.82-6.83 2.83 2.83zm11.08-5.41-8.49-8.49 1.41-1.41 8.49 8.49z"/><path d="m12.293 19.707a1 1 0 0 0 1.414 0l7-7a1 1 0 0 0 -1.414-1.414l-6.293 6.293-2.293-2.293a1 1 0 0 0 -1.414 1.414z"/><path d="m24.275 5.079a28.038 28.038 0 0 1 7.725-1.079 27.7 27.7 0 0 1 12.551 2.964 1 1 0 1 0 .9-1.787 29.687 29.687 0 0 0 -13.451-3.177 30.045 30.045 0 0 0 -8.275 1.156 1 1 0 0 0 .55 1.923z"/><path d="m8.6 50.13a1 1 0 0 0 .8-1.591 28.066 28.066 0 0 1 -4.29-24.372 1 1 0 0 0 -1.921-.559 30.07 30.07 0 0 0 4.6 26.113 1 1 0 0 0 .811.409z"/><path d="m39.706 58.927a28.07 28.07 0 0 1 -24.193-4.293 1 1 0 1 0 -1.179 1.615 30.067 30.067 0 0 0 25.921 4.6 1 1 0 0 0 -.549-1.923z"/><path d="m62 32a30.438 30.438 0 0 1 -.88 7.26 1.009 1.009 0 0 1 -.97.76 1.068 1.068 0 0 1 -.25-.03 1.007 1.007 0 0 1 -.73-1.21 28.094 28.094 0 0 0 .83-6.78 27.663 27.663 0 0 0 -2.92-12.46 1 1 0 0 1 1.79-.89 29.637 29.637 0 0 1 3.13 13.35z"/></g></g></svg>