<svg height="512pt" viewBox="0 -2 512.00028 512" width="512pt" xmlns="http://www.w3.org/2000/svg"><path d="m406.917969 191.210938c-32.148438 18.128906-72.902344 6.769531-91.03125-25.375-18.128907-32.136719-6.761719-72.890626 25.375-91.019532 3.410156-1.925781 6.910156-3.511718 10.484375-4.773437 30.058594-10.707031 64.339844 1.414062 80.542968 30.148437 4.585938 8.125 7.285157 16.804688 8.226563 25.523438 2.820313 25.773437-9.589844 51.949218-33.597656 65.496094zm0 0" fill="#f29500"/><path d="m440.515625 125.714844c-30.058594 10.714844-64.339844-1.414063-80.542969-30.148438-4.585937-8.128906-7.285156-16.804687-8.226562-25.523437 30.058594-10.707031 64.339844 1.414062 80.542968 30.148437 4.585938 8.125 7.285157 16.804688 8.226563 25.523438zm0 0" fill="#ffb52d"/><path d="m504.476562 263.820312c-.574218 10.074219-9.238281 17.78125-19.320312 17.78125h-205.75c-15.4375 0-43.246094-17.339843-43.246094-48.152343 0-36.863281 38.855469-58.414063 69.410156-43.222657 3.65625 1.824219 8.066407-.078124 9.101563-4.027343 7.382813-28.210938 33.039063-49.03125 63.570313-49.03125 5.601562 0 11.046874.699219 16.246093 2.027343 21.449219 5.457032 38.691407 21.46875 45.855469 42.175782 1.015625 2.914062 3.953125 4.636718 7.011719 4.230468 29.640625-3.925781 53.21875 25.0625 44.226562 53.015626-.925781 2.878906.304688 6.050781 2.957031 7.484374 6.234376 3.339844 10.367188 10.066407 9.9375 17.71875zm0 0" fill="#5596fb"/><path d="m400.894531 165.765625c0 9.394531-2.171875 17.730469-5.730469 24.933594-10.261718 20.875-32.003906 32.253906-45.640624 32.253906h-45.011719c3.433593 4.5 6.265625 9.484375 8.339843 14.851563 1.425782 3.691406 5.085938 6.078124 9.023438 5.75 22.605469-1.921876 40.949219 16.824218 40.800781 38.046874h-83.269531c-15.441406 0-43.246094-17.339843-43.246094-48.152343 0-36.863281 38.855469-58.414063 69.40625-43.222657 3.660156 1.824219 8.070313-.078124 9.105469-4.027343 7.382813-28.210938 33.039063-49.027344 63.566406-49.027344 5.605469 0 11.050781.695313 16.25 2.023437 4.054688 7.730469 6.40625 16.6875 6.40625 26.570313zm0 0" fill="#2476ed"/><path d="m363.925781 334.636719c.441407 9.269531-6.941406 16.914062-16.113281 16.914062h-203.839844c-12.710937 0-35.597656-14.265625-35.597656-39.628906 0-22.695313 17.878906-38.335937 37.425781-39.550781 5.738281-.363282 11.617188.523437 17.234375 2.839844 4.34375 1.796874 9.359375-.574219 10.796875-5.058594 7.011719-21.75 27.410157-37.492188 51.5-37.492188 22.992188 0 42.628907 14.347656 50.453125 34.574219 1.273438 3.289063 4.535156 5.417969 8.046875 5.125 21.542969-1.835937 38.726563 17.378906 36.117188 37.835937-.609375 4.816407 3.09375 9.078126 7.9375 9.078126h19.464843c6.742188 0 12.761719 4.023437 15.300782 9.882812.742187 1.695312 1.183594 3.53125 1.273437 5.480469zm0 0" fill="#97bffd"/><path d="m362.652344 329.15625h-182.570313c-12.710937 0-35.597656-14.265625-35.597656-39.628906 0-5.289063.441406-11.15625 1.316406-17.15625 5.738281-.363282 11.617188.523437 17.234375 2.839844 4.34375 1.796874 9.359375-.574219 10.796875-5.058594 7.011719-21.75 27.410157-37.492188 51.5-37.492188 22.992188 0 42.628907 14.347656 50.453125 34.574219 1.273438 3.289063 4.535156 5.417969 8.046875 5.125 21.542969-1.835937 38.726563 17.378906 36.117188 37.835937-.609375 4.816407 3.09375 9.078126 7.9375 9.078126h19.464843c6.742188 0 12.761719 4.023437 15.300782 9.882812zm0 0" fill="#b9d3fd"/><path d="m336.324219 157.835938c0 8.378906-1.9375 15.8125-5.105469 22.234374-9.152344 18.609376-28.535156 28.753907-40.695312 28.753907h-261.730469c-11.253907 0-20.84375-8.742188-21.253907-19.988281-.433593-11.8125 9.015626-21.539063 20.742188-21.539063h34.8125c1.996094 0 3.402344-1.949219 2.785156-3.847656-9.964844-30.609375 16.992188-62.445313 49.84375-55.78125 1.496094.304687 2.972656-.566407 3.40625-2.03125 8.527344-28.773438 35.179688-49.773438 66.722656-49.773438 8.808594 0 17.238282 1.632813 24.992188 4.625 21.933594 8.441407 38.519531 27.679688 43.234375 51.203125.476563 2.375 3.152344 3.523438 5.230469 2.28125 32.808594-19.648437 77.015625 3.390625 77.015625 43.863282zm0 0" fill="#97bffd"/><path d="m336.324219 157.835938c0 8.378906-1.9375 15.8125-5.105469 22.234374h-218.007812c-11.253907 0-20.84375-8.742187-21.253907-19.988281-.433593-11.8125 9.015625-21.539062 20.742188-21.539062h34.8125c1.996093 0 3.402343-1.949219 2.785156-3.84375-9.957031-30.609375 16.992187-62.449219 49.84375-55.777344 1.488281.304687 2.96875-.558594 3.402344-2.019531 1.726562-5.828125 4.195312-11.335938 7.300781-16.414063 21.933594 8.441407 38.519531 27.679688 43.234375 51.203125.476563 2.375 3.152344 3.523438 5.230469 2.28125 32.808594-19.648437 77.015625 3.390625 77.015625 43.863282zm0 0" fill="#b9d3fd"/><path d="m499.03125 240.3125c4.5625-15.28125 1.300781-31.757812-9.183594-44.519531-10.625-12.910157-26.484375-19.242188-42.660156-17.394531-1.664062-4.652344-3.742188-9.007813-6.175781-13.058594 6.347656-13.117188 8.578125-27.511719 6.890625-41.351563-.511719-4.125-4.253906-7.0625-8.386719-6.550781-4.125.5-7.066406 4.253906-6.554687 8.378906 1.054687 8.851563.152343 17.574219-2.601563 25.851563-22.710937-22.859375-59.308594-29.101563-89.039063-11.636719-3.835937-12.671875-11.742187-23.007812-21.808593-30.164062 18.574219-43.640626 78.707031-49.011719 104.421875-8.953126 2.246094 3.488282 6.910156 4.503907 10.402344 2.257813 3.492187-2.25 4.503906-6.90625 2.257812-10.394531-31.835938-49.542969-106.253906-44.058594-130.386719 9.972656-14.410156-5.519531-30.988281-5.515625-45.992187 1.675781-9.050782-32.949219-39.261719-56.617187-74.367188-56.617187-32.9375 0-61.882812 20.769531-72.6875 51.296875-35.03125-4.230469-62.332031 27.824219-55.992187 60.140625h-28.886719c-15.597656 0-28.28125 12.691406-28.28125 28.28125 0 15.601562 12.683594 28.28125 28.28125 28.28125h86.695312c4.15625 0 7.527344-3.359375 7.527344-7.523438 0-4.152344-3.371094-7.523437-7.527344-7.523437h-86.695312c-7.300781 0-13.230469-5.929688-13.230469-13.234375 0-7.292969 5.929688-13.234375 13.230469-13.234375h39.050781c5.414063 0 9.046875-5.550781 6.910157-10.503907-11.558594-26.734374 12.863281-56.53125 42.230468-48.75 4.050782 1.085938 8.199219-1.382812 9.21875-5.417968 6.984375-27.53125 31.714844-46.761719 60.160156-46.761719 31.320313 0 57.800782 23.40625 61.601563 54.4375.6875 5.703125 7.308594 8.582031 11.960937 5.125 17.636719-13.152344 41.058594-10.410156 55.839844 3.203125 0-.003906.003906-.007812.003906-.011719 16.484376 15.21875 17.847657 40.976563 4.503907 58.132813.011719.011718.023437.023437.035156.039062-8.421875 11.054688-21.644531 16.976563-29.273437 16.976563-17.625 0-128.054688 0-145.445313 0-4.164063 0-7.527344 3.371093-7.527344 7.523437 0 4.164063 3.363281 7.523438 7.527344 7.523438h86.511719c-1.03125 3.082031-1.796875 6.273437-2.257813 9.5625-28.863281-1.558594-54.105469 16.949218-62.242187 43.261718-30.097656-12.835937-65.625 8.757813-65.625 43.433594 0 28.785156 25.542968 47.15625 43.121094 47.15625h59.875c4.164062 0 7.527343-3.371094 7.527343-7.527344 0-4.152343-3.363281-7.523437-7.527343-7.523437h-59.875c-8.386719 0-28.074219-10.925781-28.074219-32.105469 0-27.136718 30.714843-41.0625 51.257812-25.773437 4.613281 3.449219 11.269531.605469 11.960938-5.117188 2.878906-23.515625 23.453125-42.242187 49.382812-40.746093v.011718c5.65625.382813 11.066407 1.777344 16.042969 4.011719v.011719c12.921875 5.824218 22.476562 17.238281 25.933594 30.941406 1.019531 4.050781 5.160156 6.496094 9.222656 5.425781 21.539062-5.660156 39.265625 16.105469 30.851562 35.609375-2.136718 4.953125 1.5 10.503906 6.910157 10.503906h30.351562c4.753907 0 8.617188 3.863282 8.617188 8.609376 0 4.753906-3.863281 8.617187-8.617188 8.617187h-113.863281c-4.15625 0-7.527344 3.371094-7.527344 7.523437 0 4.15625 3.371094 7.527344 7.527344 7.527344h113.863281c13.050781 0 23.667969-10.617187 23.667969-23.667968 0-13.042969-10.617188-23.660157-23.667969-23.660157h-20.46875c1.054688-7.285156.082031-15.128906-3.269531-22.460937h160.957031c26.769531 0 36.445313-35.503906 13.386719-49.121094zm-13.386719 34.070312h-172.457031c-8.191406-6.820312-18.570312-10.339843-29.617188-9.359374-6.78125-17.929688-21.46875-31.476563-39.417968-37.003907.589844-4.324219 1.835937-8.425781 3.691406-12.210937h42.679688c14.222656 0 29.882812-8.671875 40.535156-22.199219.011718.007813.023437.019531.039062.027344 3.191406-4.011719 5.988282-8.746094 7.824219-12.910157-.007813-.007812-.015625-.015624-.027344-.023437 3.339844-7.4375 5.214844-15.679687 4.945313-24.359375 25.523437-18.734375 60.359375-13.277344 79.367187 9.851562 0 .003907-.003906.007813-.007812.011719 3.445312 4.175781 6.347656 8.957031 8.457031 13.824219 3.757812 8.679688 2.382812 11.042969 6.484375 13.476562 1.734375 1.011719 3.800781 1.304688 5.746094.78125 28.160156-7.445312 50.957031 21.765626 38.679687 46.964844-2.171875 4.445313.476563 9.722656 5.296875 10.675782 5.285157 1.042968 9.121094 5.71875 9.121094 11.117187 0 6.25-5.089844 11.335937-11.339844 11.335937zm0 0"/><path d="m402.578125 307.207031c-3.695313-1.894531-8.230469-.429687-10.125 3.269531l-13.640625 26.632813c-1.894531 3.699219-.429688 8.230469 3.265625 10.125 3.730469 1.910156 8.25.402344 10.128906-3.265625l13.640625-26.632812c1.894532-3.699219.429688-8.234376-3.269531-10.128907zm0 0"/><path d="m465.273438 307.214844c-3.695313-1.902344-8.230469-.449219-10.132813 3.246094l-13.71875 26.628906c-2.597656 5.046875 1.128906 10.972656 6.683594 10.972656 2.730469 0 5.359375-1.488281 6.695312-4.078125l13.71875-26.632813c1.902344-3.695312.449219-8.234374-3.246093-10.136718zm0 0"/><path d="m236.65625 387.230469c-3.703125-1.878907-8.234375-.394531-10.109375 3.3125l-13.488281 26.632812c-1.878906 3.707031-.394532 8.234375 3.3125 10.113281 3.714844 1.882813 8.238281.382813 10.113281-3.316406l13.488281-26.632812c1.875-3.707032.390625-8.234375-3.316406-10.109375zm0 0"/><path d="m299.121094 387.238281c-3.699219-1.886719-8.234375-.414062-10.117188 3.289063l-13.566406 26.632812c-2.570312 5.046875 1.160156 10.941406 6.699219 10.941406 2.742187 0 5.382812-1.503906 6.710937-4.113281l13.566406-26.632812c1.882813-3.699219.410157-8.230469-3.292968-10.117188zm0 0"/><path d="m361.585938 387.246094c-3.695313-1.894532-8.230469-.433594-10.125 3.265625l-13.640626 26.632812c-1.894531 3.699219-.429687 8.234375 3.265626 10.128907 3.730468 1.910156 8.25.398437 10.128906-3.269532l13.640625-26.632812c1.894531-3.699219.429687-8.230469-3.269531-10.125zm0 0"/><path d="m424.054688 387.253906c-3.695313-1.902344-8.234376-.449218-10.136719 3.242188l-13.714844 26.632812c-2.601563 5.046875 1.125 10.972656 6.679687 10.972656 2.730469 0 5.363282-1.488281 6.699219-4.082031l13.714844-26.632812c1.902344-3.691407.453125-8.230469-3.242187-10.132813zm0 0"/><path d="m487.558594 387.253906c-3.695313-1.902344-8.230469-.449218-10.132813 3.242188l-13.71875 26.632812c-2.597656 5.046875 1.128907 10.972656 6.683594 10.972656 2.730469 0 5.359375-1.488281 6.695313-4.082031l13.71875-26.632812c1.902343-3.691407.449218-8.230469-3.246094-10.132813zm0 0"/><path d="m196.125 467.265625c-3.703125-1.878906-8.234375-.394531-10.109375 3.3125l-13.488281 26.632813c-1.878906 3.707031-.394532 8.238281 3.3125 10.113281 3.714844 1.882812 8.238281.386719 10.113281-3.3125l13.488281-26.632813c1.875-3.707031.390625-8.234375-3.316406-10.113281zm0 0"/><path d="m173.0625 387.230469c-3.707031-1.878907-8.234375-.394531-10.113281 3.3125l-13.484375 26.632812c-2.554688 5.039063 1.160156 10.925781 6.707031 10.925781 2.746094 0 5.390625-1.507812 6.71875-4.125l13.484375-26.632812c1.878906-3.710938.394531-8.238281-3.3125-10.113281zm0 0"/><path d="m132.53125 467.265625c-3.707031-1.878906-8.234375-.394531-10.113281 3.3125l-13.484375 26.632813c-2.554688 5.039062 1.160156 10.925781 6.707031 10.925781 2.746094 0 5.390625-1.507813 6.71875-4.125l13.484375-26.632813c1.878906-3.707031.394531-8.234375-3.3125-10.113281zm0 0"/><path d="m258.363281 467.273438c-3.703125-1.886719-8.238281-.414063-10.121093 3.289062l-13.5625 26.632812c-1.886719 3.703126-.414063 8.234376 3.289062 10.121094 3.726562 1.898438 8.246094.390625 10.121094-3.289062l13.5625-26.632813c1.886718-3.703125.414062-8.234375-3.289063-10.121093zm0 0"/><path d="m320.597656 467.28125c-3.699218-1.894531-8.234375-.429688-10.128906 3.269531l-13.636719 26.628907c-1.894531 3.699218-.433593 8.234374 3.265625 10.128906 1.097656.5625 2.269532.828125 3.421875.828125 2.734375 0 5.375-1.496094 6.703125-4.097657l13.640625-26.628906c1.894531-3.699218.433594-8.234375-3.265625-10.128906zm0 0"/><path d="m382.832031 467.289062c-3.695312-1.902343-8.230469-.449218-10.132812 3.246094l-13.71875 26.632813c-1.902344 3.695312-.449219 8.230469 3.242187 10.132812 3.71875 1.917969 8.246094.425781 10.136719-3.242187l13.71875-26.632813c1.902344-3.695312.449219-8.234375-3.246094-10.136719zm0 0"/><path d="m67.917969 227.15625c-3.707031-1.878906-8.234375-.394531-10.109375 3.3125l-13.488282 26.632812c-1.878906 3.707032-.394531 8.234376 3.3125 10.113282 3.71875 1.882812 8.242188.382812 10.113282-3.316406l13.488281-26.628907c1.875-3.710937.394531-8.238281-3.316406-10.113281zm0 0"/><path d="m120.34375 263.917969 13.5625-26.632813c1.886719-3.703125.414062-8.234375-3.292969-10.121094-3.703125-1.886718-8.230469-.414062-10.117187 3.292969l-13.5625 26.628907c-1.886719 3.703124-.414063 8.234374 3.289062 10.121093 3.710938 1.890625 8.238282.402344 10.121094-3.289062zm0 0"/><path d="m27.386719 307.191406c-3.703125-1.878906-8.234375-.394531-10.109375 3.316406l-13.488282 26.632813c-1.878906 3.707031-.394531 8.234375 3.3125 10.109375 3.71875 1.882812 8.242188.386719 10.113282-3.3125l13.488281-26.632812c1.875-3.707032.394531-8.234376-3.316406-10.113282zm0 0"/><path d="m89.855469 307.199219c-3.703125-1.886719-8.238281-.414063-10.121094 3.289062l-13.5625 26.632813c-1.886719 3.703125-.414063 8.234375 3.289063 10.121094 3.726562 1.898437 8.246093.390624 10.121093-3.289063l13.5625-26.632813c1.886719-3.703124.414063-8.234374-3.289062-10.121093zm0 0"/><path d="m49.09375 387.238281c-3.703125-1.886719-8.234375-.414062-10.121094 3.289063l-13.5625 26.632812c-1.886718 3.703125-.414062 8.234375 3.289063 10.121094 3.726562 1.894531 8.246093.386719 10.121093-3.292969l13.5625-26.628906c1.886719-3.703125.414063-8.234375-3.289062-10.121094zm0 0"/><path d="m111.328125 387.246094c-3.699219-1.894532-8.230469-.433594-10.125 3.265625l-13.640625 26.632812c-2.574219 5.027344 1.113281 10.957031 6.691406 10.957031 2.734375 0 5.371094-1.496093 6.703125-4.097656l13.636719-26.632812c1.894531-3.699219.433594-8.230469-3.265625-10.125zm0 0"/><path d="m374.089844 45.421875c4.152344 0 7.523437-3.367187 7.523437-7.523437v-30.375c0-4.152344-3.371093-7.523438-7.523437-7.523438-4.15625 0-7.527344 3.371094-7.527344 7.523438v30.375c0 4.15625 3.371094 7.523437 7.527344 7.523437zm0 0"/><path d="m320.011719 54.402344c1.394531 2.414062 3.925781 3.765625 6.523437 3.765625 5.726563 0 9.425782-6.242188 6.511719-11.289063l-15.1875-26.304687c-2.078125-3.597657-6.679687-4.832031-10.277344-2.753907-3.601562 2.078126-4.832031 6.679688-2.753906 10.277344zm0 0"/><path d="m261.648438 76.785156c27.011718 15.199219 26.511718 16.199219 30.058593 16.199219 7.679688 0 10.417969-10.207031 3.769531-14.042969l-26.304687-15.1875c-3.597656-2.082031-8.199219-.847656-10.277344 2.753906-2.078125 3.601563-.847656 8.203126 2.753907 10.277344zm0 0"/><path d="m461.679688 133.015625c0 4.15625 3.371093 7.523437 7.527343 7.523437h30.371094c4.15625 0 7.523437-3.367187 7.523437-7.523437s-3.367187-7.523437-7.523437-7.523437h-30.371094c-4.160156 0-7.527343 3.367187-7.527343 7.523437zm0 0"/><path d="m456.46875 92.984375c3.546875 0 3.078125-1.015625 30.058594-16.195313 3.601562-2.078124 4.832031-6.679687 2.753906-10.28125-2.078125-3.597656-6.679688-4.832031-10.277344-2.753906l-26.304687 15.1875c-6.648438 3.835938-3.90625 14.042969 3.769531 14.042969zm0 0"/><path d="m421.640625 58.167969c2.597656 0 5.128906-1.351563 6.523437-3.761719l15.183594-26.304688c2.078125-3.601562.847656-8.203124-2.753906-10.28125-3.597656-2.078124-8.199219-.84375-10.277344 2.753907l-15.1875 26.304687c-2.910156 5.039063.777344 11.289063 6.511719 11.289063zm0 0"/></svg>