<svg height="512" viewBox="0 0 48 48" width="512" xmlns="http://www.w3.org/2000/svg"><g id="Layer_31" data-name="Layer 31"><g fill="#4e93d1"><path d="m9.6 46a1.036 1.036 0 0 1 -.289-.042 1 1 0 0 1 -.67-1.246l.6-2a1 1 0 0 1 1.916.576l-.6 2a1 1 0 0 1 -.957.712z"/><path d="m11.4 40a1.029 1.029 0 0 1 -.288-.042 1 1 0 0 1 -.67-1.246l.6-2a1 1 0 0 1 1.916.576l-.6 2a1 1 0 0 1 -.958.712z"/><path d="m13.2 34a.989.989 0 0 1 -.288-.042 1 1 0 0 1 -.671-1.245l.6-2a1 1 0 0 1 1.916.574l-.6 2a1 1 0 0 1 -.957.713z"/><path d="m21.6 46a1.036 1.036 0 0 1 -.289-.042 1 1 0 0 1 -.67-1.246l.6-2a1 1 0 1 1 1.916.576l-.6 2a1 1 0 0 1 -.957.712z"/><path d="m23.4 40a1.029 1.029 0 0 1 -.288-.042 1 1 0 0 1 -.67-1.246l.6-2a1 1 0 0 1 1.916.576l-.6 2a1 1 0 0 1 -.958.712z"/><path d="m25.2 34a.989.989 0 0 1 -.288-.042 1 1 0 0 1 -.671-1.245l.6-2a1 1 0 0 1 1.916.574l-.6 2a1 1 0 0 1 -.957.713z"/><path d="m15 48a1.035 1.035 0 0 1 -.288-.042 1 1 0 0 1 -.67-1.246l.6-2a1 1 0 0 1 1.916.576l-.6 2a1 1 0 0 1 -.958.712z"/><path d="m16.8 42a1.029 1.029 0 0 1 -.288-.042 1 1 0 0 1 -.67-1.246l.6-2a1 1 0 1 1 1.916.576l-.6 2a1 1 0 0 1 -.958.712z"/><path d="m18.6 36a1.036 1.036 0 0 1 -.289-.042 1 1 0 0 1 -.67-1.246l.6-2a1 1 0 0 1 1.916.576l-.6 2a1 1 0 0 1 -.957.712z"/><path d="m20.4 30a1.029 1.029 0 0 1 -.288-.042 1 1 0 0 1 -.67-1.246l.6-2a1 1 0 1 1 1.916.576l-.6 2a1 1 0 0 1 -.958.712z"/></g><path d="m23 7a5.975 5.975 0 0 0 -2.215.428 5.993 5.993 0 0 0 -11.57 0 6 6 0 1 0 -2.215 11.572h16a6 6 0 0 0 0-12z" fill="#848484"/><path d="m26 16h-16a5.993 5.993 0 0 1 -5.466-8.466 6 6 0 0 0 2.466 11.466h16a6 6 0 0 0 5.466-3.534 5.974 5.974 0 0 1 -2.466.534z" fill="#6a6a6a"/><path d="m38 9c-.067 0-.132.009-.2.01a10 10 0 0 0 -19.6 0c-.067 0-.132-.01-.2-.01a9 9 0 0 0 0 18h20a9 9 0 0 0 0-18z" fill="#848484"/><path d="m41 24h-20a8.986 8.986 0 0 1 -7.678-13.678 8.993 8.993 0 0 0 4.678 16.678h20a8.986 8.986 0 0 0 7.678-4.322 8.944 8.944 0 0 1 -4.678 1.322z" fill="#6a6a6a"/><path d="m32 27h7l-3 6h3l-6 14 1-10h-3z" fill="#f8ce11"/></g></svg>