<svg id="Flat" height="512" viewBox="0 0 64 64" width="512" xmlns="http://www.w3.org/2000/svg"><path d="m60 32-6.183 5.848 2.434 8.156-8.284 1.963-1.963 8.284-8.156-2.434-5.848 6.183-5.848-6.183-8.156 2.434-1.963-8.284-8.284-1.963 2.434-8.156-6.183-5.848 6.183-5.848-2.434-8.156 8.284-1.963 1.963-8.284 8.156 2.434 5.848-6.183 5.848 6.183 8.156-2.434 1.963 8.284 8.284 1.963-2.434 8.156z" fill="#f2cf7d"/><g fill="#edbc49"><path d="m51.817 24.152 2.025 1.915 2.409-8.071-2.425-.575z"/><path d="m60 32-2.057-1.946-6.126 5.794 2.434 8.156-8.284 1.963-1.963 8.284-8.156-2.434-5.794 6.126 1.946 2.057 5.848-6.183 8.156 2.434 1.963-8.284 8.284-1.963-2.434-8.156z"/><path d="m24.152 51.817-6.731 2.009.575 2.425 8.072-2.409z"/><circle cx="32" cy="32" r="18"/></g><path d="m38 27.5h-12a1 1 0 0 1 0-2h12a1 1 0 0 1 0 2z" fill="#db3c28"/><path d="m38 24h10a3 3 0 0 1 3 3v3a8 8 0 0 1 -8 8 8 8 0 0 1 -8-8v-3a3 3 0 0 1 3-3z" fill="#495059"/><path d="m43 35a1 1 0 0 1 -.707-1.707l4-4a1 1 0 0 1 1.414 1.414l-4 4a.9967.9967 0 0 1 -.707.293z" fill="#636971"/><path d="m39 33a1 1 0 0 1 -.707-1.707l4-4a1 1 0 0 1 1.414 1.414l-4 4a.9967.9967 0 0 1 -.707.293z" fill="#636971"/><path d="m16 24h10a3 3 0 0 1 3 3v3a8 8 0 0 1 -8 8 8 8 0 0 1 -8-8v-3a3 3 0 0 1 3-3z" fill="#495059"/><path d="m21 35a1 1 0 0 1 -.707-1.707l4-4a1 1 0 0 1 1.414 1.414l-4 4a.9967.9967 0 0 1 -.707.293z" fill="#636971"/><path d="m17 33a1 1 0 0 1 -.707-1.707l4-4a1 1 0 0 1 1.414 1.414l-4 4a.9967.9967 0 0 1 -.707.293z" fill="#636971"/><g fill="#e1503c"><path d="m43 39a9.01 9.01 0 0 1 -9-9v-3a4.0042 4.0042 0 0 1 4-4h10a4.0042 4.0042 0 0 1 4 4v3a9.01 9.01 0 0 1 -9 9zm-5-14a2.0023 2.0023 0 0 0 -2 2v3a7 7 0 0 0 14 0v-3a2.0023 2.0023 0 0 0 -2-2z"/><path d="m21 39a9.01 9.01 0 0 1 -9-9v-3a4.0042 4.0042 0 0 1 4-4h10a4.0042 4.0042 0 0 1 4 4v3a9.01 9.01 0 0 1 -9 9zm-5-14a2.0023 2.0023 0 0 0 -2 2v3a7 7 0 0 0 14 0v-3a2.0023 2.0023 0 0 0 -2-2z"/></g></svg>