<svg id="Capa_1" enable-background="new 0 0 512 512" height="512" viewBox="0 0 512 512" width="512" xmlns="http://www.w3.org/2000/svg"><g><g><path d="m446.46 301.57-7.53 5.704c-3.349 2.547-7.317 4.273-11.509 4.932l-42.756 7.023c-64.84 10.646-115.137 62.414-123.875 127.528l-1.39 10.413c-.812 5.998-6.657 9.946-12.534 8.494-114.751-28.315-177.216-91.338-210.585-158.492-.071-.142-.142-.274-.213-.416-1.177-2.385-2.314-4.77-3.43-7.155 2.821.68 4.841 1.187 6.343 1.685 37.246 6.373 90.465 5.399 133.861-34.759 32.567-30.152 71.802-27.554 109.737-25.047 51.109 3.379 95.255 6.302 118.191-70.868.02-.081.041-.152.071-.233l.548-1.664 6.668 4.059 6.607 4.019-.477.548c-11.823 19.181-11.935 43.436-.213 57.888 2.771 3.42 5.298 6.444 7.733 9.357 15.548 18.612 23.819 28.517 24.753 56.984z" fill="#fff2e3"/><path d="m446.46 301.57-7.53 5.704c-3.349 2.547-7.317 4.262-11.509 4.932l-42.756 7.013c-64.84 10.656-115.137 62.424-123.875 127.538l-1.4 10.402c-.802 5.988-6.627 9.956-12.483 8.515-13.356-3.298-26.001-7.053-37.976-11.245l1.685-12.564v-.01c1.045-7.642-3.177-15.03-10.291-18.014-12.026-5.064-23.585-10.676-34.648-16.837l-9.631 9.631c-3.775 3.775-9.895 3.775-13.68 0l-84.406-84.406c-3.785-3.785-3.785-9.905 0-13.691l4.252-4.252c-12.138-17.222-22.672-35.845-31.512-55.767-23.992-54.072-29.127-103.039-30.213-123.712-.294-5.592 4.202-10.25 9.804-10.169l14.573.203c5.074.081 9.225 4.049 9.519 9.113 1.096 18.552 5.998 63.449 27.797 112.031 6.992 15.578 15.142 30.253 24.377 43.954l14.411-14.411c3.785-3.775 9.905-3.775 13.68 0l84.417 84.406c3.775 3.786 3.775 9.905 0 13.691l-8.352 8.342c9.844 5.085 20.094 9.722 30.751 13.894 20.094-50.814 65.672-88.679 121.388-97.833l45.223-7.419c4.435-.71 8.636-2.527 12.178-5.227l33.409-25.311c.061-.051.132-.102.193-.152 7.754 11.022 11.955 21.841 12.605 41.651z" fill="#fee7c9"/><path d="m408.062 172.776c-42.105 141.678-157.226 31.927-230.048 99.331-45.752 42.347-101.557 43.43-140.972 36.571-.252-.493-.503-.997-.764-1.509-.068-.135-.135-.271-.213-.416-33.619-67.947-37.522-140.07-35.695-184.741.222-5.439 4.724-9.721 10.168-9.705l79.048.224 161.202-42.434 46.11 7.488c8.707 1.412 16.08 7.159 19.659 15.199l7.509 17.035c4.629 10.501 12.365 19.331 22.166 25.3z" fill="#3f5959"/><path d="m137.825 298.694c-26.461 11.736-53.686 14.27-77.592 12.751-11.31-16.428-21.178-34.094-29.537-52.931-23.985-54.062-29.122-103.017-30.206-123.702-.068-1.219-.126-5.437-.184-11.281.018-.498.037-.993.057-1.485.222-5.455 4.712-9.755 10.171-9.739l24.223.069c-.213 10.991-.484 19.862-.377 21.575 1.103 18.556 6.008 63.448 27.805 112.035 6.985 15.577 15.141 30.244 24.371 43.963l14.416-14.425c3.773-3.773 9.907-3.773 13.68 0z" fill="#384848"/><path d="m156.465 203.947h-31.082c-11.908 0-21.562-9.654-21.562-21.562v-46.512c0-11.908 9.654-21.562 21.562-21.562h31.082c11.908 0 21.562 9.654 21.562 21.562v46.512c0 11.908-9.654 21.562-21.562 21.562z" fill="#384848"/><path d="m480.836 231.746v30.856c0 8.151-3.838 15.827-10.328 20.743l-31.567 23.934c0-34.651-9.101-40.416-30.877-67.253-14.774-18.207-12.894-46.79 0-67.253l60.266 36.699c7.763 4.744 12.506 13.175 12.506 22.274z" fill="#fcac8d"/><path d="m480.833 231.749v30.852c0 8.149-3.836 15.832-10.321 20.744l-31.573 23.931c0-21.292-3.44-31.684-11.143-42.756l5.866-4.445c6.871-5.196 10.92-13.315 10.92-21.941v-32.648c0-4.303-1.005-8.474-2.862-12.209h.01l26.6 16.197c7.764 4.738 12.503 13.172 12.503 22.275z" fill="#fb946d"/><g><g><path d="m222.814 50.928c14.972 22.366 16.634 49.754 6.823 72.789-3.949 9.273-13.11 15.401-23.187 15.516-25.045.287-49.725-11.674-64.698-34.043-14.974-22.369-16.625-49.745-6.814-72.79 3.948-9.273 13.105-15.406 23.183-15.523 25.035-.292 49.721 11.684 64.693 34.051z" fill="#3f5959"/><path d="m229.634 123.717c-3.948 9.276-13.102 15.406-23.18 15.517-6.952.081-13.883-.781-20.581-2.568 5.815-2.578 10.615-7.287 13.193-13.345 9.814-23.037 8.149-50.419-6.82-72.786-10.808-16.157-26.681-26.884-44.096-31.481 3.095-1.37 6.475-2.141 9.966-2.182 25.037-.284 49.728 11.691 64.698 34.059 14.969 22.367 16.633 49.748 6.82 72.786z" fill="#384848"/></g><g><path d="m156.465 173.762h-31.082c-11.908 0-21.562-9.654-21.562-21.562v-46.512c0-11.908 9.654-21.562 21.562-21.562h31.082c11.908 0 21.562 9.654 21.562 21.562v46.512c0 11.908-9.654 21.562-21.562 21.562z" fill="#fcc16d"/><path d="m178.017 105.694v46.51c0 11.902-9.638 21.562-21.562 21.562h-26.234c-1.014 0-2.027-.065-2.997-.216 10.479-1.466 18.543-10.479 18.543-21.347v-46.51c0-10.889-8.064-19.88-18.543-21.347.97-.151 1.984-.216 2.997-.216h26.234c11.923.001 21.562 9.64 21.562 21.564z" fill="#fca62f"/></g></g><g><g><g><path d="m481.269 433.339c14.777-15.197 14.777-40.065 0-55.262-14.777-15.197-38.958-15.197-53.735 0l-4.771 4.906c-3.985 4.098-10.567 4.098-14.552 0l-4.771-4.906c-11.822-12.158-32.875-14.302-46.786-4.764l-1.252.859c-20.866 14.306-23.429 40.931-5.697 59.168l56.069 57.66c5.343 5.494 14.085 5.494 19.428 0z" fill="#fb6a3b"/></g><g><path d="m481.275 433.345-56.077 57.656c-5.358 5.51-14.053 5.51-19.425 0l-9.012-9.268 52.793-54.279c14.837-15.258 14.837-40.01 0-55.268-1.539-1.582-3.187-3.009-4.904-4.238 3.201-.876 6.47-1.314 9.754-1.314 9.726 0 19.452 3.815 26.871 11.444 14.837 15.257 14.837 39.995 0 55.267z" fill="#fb5532"/></g></g><g><g><path d="m419.984 463.468c-.169 0-.34-.006-.51-.017-3.197-.214-5.918-2.406-6.806-5.486l-6.721-23.299-9.495 15.359c-1.388 2.244-3.837 3.609-6.475 3.609h-57.749c-4.204 0-7.612-3.407-7.612-7.611s3.407-7.612 7.612-7.612h53.506l16.292-26.356c1.584-2.562 4.531-3.947 7.51-3.539 2.982.41 5.443 2.539 6.278 5.432l5.656 19.61 1.855-4.219c1.215-2.764 3.948-4.548 6.967-4.548h74.094c4.204 0 7.612 3.407 7.612 7.611s-3.407 7.612-7.612 7.612h-69.126l-8.314 18.906c-1.219 2.777-3.961 4.548-6.962 4.548z" fill="#d53e2d"/></g></g></g><g><path d="m278.556 412.371c-1.345 5.24-6.735 8.389-11.943 6.923-54.758-15.412-101.635-40.628-139.453-75.035-32.089-29.196-57.649-64.938-75.97-106.234-23.983-54.061-29.127-103.022-30.209-123.701-.292-5.59 4.202-10.257 9.799-10.178l14.577.207c5.071.072 9.221 4.041 9.52 9.104 1.098 18.557 6 63.453 27.8 112.035 16.479 36.725 39.316 68.442 67.877 94.269 33.687 30.463 75.644 52.918 124.825 66.822 5.071 1.434 8.096 6.62 6.786 11.724z" fill="#fc7d4b"/></g><path d="m229.736 370.317-25.541 25.542c-22.513-10.855-43.208-23.79-61.958-38.757l24.11-24.11c18.952 14.686 40.13 27.167 63.389 37.325z" fill="#fb5532"/><g><g><path d="m162.861 396.143-84.411-84.411c-3.778-3.778-3.778-9.904 0-13.682l43.015-43.015c3.778-3.778 9.904-3.778 13.682 0l84.411 84.411c3.778 3.778 3.778 9.904 0 13.682l-43.015 43.015c-3.778 3.778-9.904 3.778-13.682 0z" fill="#a9d3d8"/><path d="m219.554 353.129-43.01 43.01c-3.783 3.783-9.906 3.776-13.682 0l-20.934-20.934c3.783 3.783 9.899 3.783 13.682 0l43.01-43.01c3.783-3.783 3.783-9.899 0-13.682l20.934 20.934c3.776 3.776 3.783 9.899 0 13.682z" fill="#90bac4"/></g><g><path d="m170.985 336.787c-1.948 0-3.896-.743-5.383-2.229l-39.146-39.145c-2.972-2.973-2.972-7.792 0-10.765 2.973-2.971 7.792-2.971 10.765 0l39.146 39.145c2.972 2.973 2.972 7.792 0 10.765-1.486 1.486-3.434 2.229-5.382 2.229z" fill="#31a7fb"/></g><g id="XMLID_52_"><path d="m151.554 356.289c-1.965 0-3.931-.756-5.419-2.268-2.952-2.993-2.953-7.847.04-10.799 2.992-2.953 7.778-2.955 10.728.04l.07.071c2.952 2.993 2.919 7.812-.075 10.763-1.483 1.463-3.413 2.193-5.344 2.193z" fill="#fb5532"/></g><g id="XMLID_94_"><path d="m168.23 372.965c-1.965 0-3.931-.756-5.419-2.268-2.952-2.993-2.953-7.847.04-10.799 2.992-2.952 7.778-2.954 10.728.04l.07.071c2.952 2.993 2.919 7.812-.075 10.763-1.483 1.463-3.413 2.193-5.344 2.193z" fill="#158f5e"/></g></g></g><g><path d="m294.847 166.253c-3.557 0-6.735-2.504-7.457-6.126-.963-4.833-5.247-8.342-10.185-8.342-4.94 0-9.223 3.508-10.186 8.342-.822 4.124-4.827 6.802-8.951 5.978-4.123-.822-6.8-4.83-5.978-8.951 2.377-11.932 12.94-20.592 25.116-20.592 12.175 0 22.738 8.66 25.115 20.592.822 4.122-1.855 8.13-5.978 8.951-.503.1-1.003.148-1.496.148z" fill="#384848"/></g><g><path d="m444.576 233.742c-1.289 0-2.597-.328-3.794-1.018l-7.933-4.572c-3.642-2.099-4.893-6.753-2.794-10.395 2.099-3.643 6.752-4.892 10.395-2.794l7.933 4.572c3.642 2.099 4.893 6.753 2.794 10.395-1.409 2.445-3.969 3.812-6.601 3.812z" fill="#3f5959"/></g></g></svg>