<?xml version="1.0" encoding="iso-8859-1"?>
<!-- Generator: Adobe Illustrator 19.0.0, SVG Export Plug-In . SVG Version: 6.00 Build 0)  -->
<svg version="1.1" id="Capa_1" xmlns="http://www.w3.org/2000/svg" xmlns:xlink="http://www.w3.org/1999/xlink" x="0px" y="0px"
	 viewBox="0 0 512 512" style="enable-background:new 0 0 512 512;" xml:space="preserve">
<path style="fill:#424242;" d="M121.069,118.312C85.063,80.325,40.697,89.197,8.033,96.706
	c-32.664,7.508,40.65,107.983,105.399,69.202l18.921-8.065L121.069,118.312z"/>
<path style="fill:#EF999A;" d="M119.688,137.299c-15.499-13.527-33.094-19.44-54.798-18.529c-5.173,0.217-10.379,0.805-15.579,1.649
	c-5.866,0.953-8.235,8.085-4.129,12.381c2.335,2.443,4.953,4.947,7.874,7.453c15.624,13.411,32.983,20.751,47.626,20.138h0.003
	c7.859-0.33,15.092-2.843,22.112-7.684l1.459-1.006L119.688,137.299z"/>
<path style="fill:#424242;" d="M390.931,118.312c36.007-37.987,80.372-29.114,113.036-21.606
	c32.664,7.508-40.65,107.983-105.399,69.202l-18.921-8.065L390.931,118.312z"/>
<path style="fill:#EF999A;" d="M392.311,137.299c15.499-13.527,33.094-19.44,54.798-18.529c5.173,0.217,10.379,0.805,15.579,1.649
	c5.866,0.953,8.235,8.085,4.129,12.381c-2.335,2.443-4.953,4.947-7.874,7.453c-15.624,13.411-32.983,20.751-47.626,20.138h-0.004
	c-7.859-0.33-15.092-2.843-22.112-7.684l-1.459-1.006L392.311,137.299z"/>
<path style="fill:#E6E1D7;" d="M374.844,326.729c-0.006-0.011-0.013-0.023-0.02-0.035l0.025-0.021L343.548,59.842
	C321.786,46.696,293.029,38.969,256,38.969c-36.46,0-64.894,7.499-86.533,20.279l-1.015,0.594l0.826,0.964l-32.123,265.923h0.001
	v0.001c0.801,9.146,1.366,17.76,1.932,25.885h233.819c0.001,0,0.002,0.001,0.004,0.002l0.019-0.278
	c0.561-8.059,1.123-16.601,1.919-25.664C374.848,326.693,374.846,326.712,374.844,326.729z"/>
<path style="opacity:0.1;enable-background:new    ;" d="M132.353,157.842l-11.284-39.531c-8.208-8.66-16.852-14.878-25.692-19.239
	c-4.783,11.001-8.437,22.855-10.898,35.479c-2.494,12.794-3.746,26.259-3.778,40.199c10.792,0.23,21.881-2.344,32.731-8.842
	L132.353,157.842z"/>
<path style="fill:#424242;" d="M122.647,247.036c8.94,30.171,12.484,56.599,14.509,79.693
	c26.203-48.167,71.533-50.531,75.271-100.194c4.895-65.032-55.242-69.228-29.369-149.644l-14.605-17.049
	C107.625,96.585,101.51,175.699,122.647,247.036z"/>
<path style="fill:#212121;" d="M159.577,200.272c-4.029-0.415-7.913,0.356-11.326,2.035c-2.025,0.996-3.479,2.928-3.714,5.174
	l-0.003,0.034c-1.237,12.019,7.244,22.738,18.943,23.942c4.029,0.415,7.913-0.356,11.326-2.035c2.026-0.996,3.479-2.928,3.714-5.174
	l0.003-0.034C179.757,212.196,171.276,201.477,159.577,200.272z"/>
<path style="fill:#D98B8C;" d="M341.82,435.375c5.758,39.369-12.375,56.873-85.822,56.873h0.004
	c-73.448,0-91.58-17.503-85.822-56.873H341.82z"/>
<path style="fill:#EF999A;" d="M341.82,435.374c25.849-18.752,28.497-45.536,31.092-82.758
	c-30.026-14.916-71.327-24.128-116.914-24.128c-45.586,0-86.883,9.211-116.91,24.126c2.595,37.222,5.243,64.006,31.092,82.76
	c34.977,19.731,85.819,18.834,85.819,18.834S306.842,455.105,341.82,435.374z"/>
<ellipse transform="matrix(-0.2746 -0.9616 0.9616 -0.2746 -118.2428 680.5587)" style="fill:#212121;" cx="197.588" cy="384.881" rx="28.929" ry="19.677"/>
<path style="opacity:0.1;enable-background:new    ;" d="M427.521,134.552c-2.461-12.625-6.115-24.478-10.898-35.479
	c-8.84,4.361-17.483,10.579-25.692,19.239l-11.284,39.531l18.921,8.066c10.85,6.498,21.939,9.072,32.731,8.842
	C431.267,160.811,430.015,147.346,427.521,134.552z"/>
<path style="fill:#424242;" d="M389.353,247.036c-8.94,30.171-12.484,56.599-14.509,79.693
	c-26.203-48.167-71.533-50.531-75.271-100.194c-4.895-65.032,55.242-69.228,29.369-149.644l14.605-17.049
	C404.375,96.585,410.49,175.699,389.353,247.036z"/>
<g>
	<path style="fill:#212121;" d="M352.423,200.272c4.029-0.415,7.913,0.356,11.326,2.035c2.025,0.996,3.479,2.928,3.714,5.174
		l0.003,0.034c1.237,12.019-7.244,22.738-18.943,23.942c-4.029,0.415-7.913-0.356-11.326-2.035
		c-2.026-0.996-3.479-2.928-3.714-5.174l-0.003-0.034C332.242,212.196,340.724,201.477,352.423,200.272z"/>
	
		<ellipse transform="matrix(-0.2746 0.9616 -0.9616 -0.2746 770.7471 188.2237)" style="fill:#212121;" cx="314.375" cy="384.841" rx="28.929" ry="19.677"/>
</g>
<path style="fill:#FFCC80;" d="M204.042,81.052c-4.03,14.912-22.223,21.171-34.653,12.001
	c-13.392-9.882-16.718-29.972-15.826-45.507c0.545-9.495,5.341-31.416,19.083-27.28c17.11,5.15,17.535,32.964,27.522,45.136
	C204.74,70.972,205.312,76.353,204.042,81.052z"/>
<path style="opacity:0.1;enable-background:new    ;" d="M179.69,72.449c-13.392-9.881-16.718-29.972-15.826-45.507
	c0.095-1.648,0.321-3.675,0.696-5.87c-7.625,4.457-10.578,19.153-10.998,26.474c-0.892,15.535,2.433,35.627,15.826,45.507
	c12.43,9.171,30.622,2.911,34.652-12.001c0.635-2.347,0.809-4.862,0.255-7.488C196.954,77.888,187.257,78.031,179.69,72.449z"/>
<path style="fill:#FFCC80;" d="M307.958,81.052c4.03,14.912,22.223,21.171,34.653,12.001c13.392-9.882,16.718-29.972,15.826-45.507
	c-0.545-9.495-5.341-31.416-19.083-27.28c-17.11,5.15-17.535,32.964-27.522,45.136C307.259,70.972,306.688,76.353,307.958,81.052z"
	/>
<path style="opacity:0.1;enable-background:new    ;" d="M332.308,72.449c13.392-9.881,16.718-29.972,15.826-45.507
	c-0.095-1.648-0.321-3.675-0.696-5.87c7.625,4.457,10.578,19.153,10.998,26.474c0.892,15.535-2.433,35.627-15.826,45.507
	c-12.43,9.171-30.622,2.911-34.652-12.001c-0.635-2.347-0.809-4.862-0.255-7.488C315.045,77.888,324.743,78.031,332.308,72.449z"/>
<g>
</g>
<g>
</g>
<g>
</g>
<g>
</g>
<g>
</g>
<g>
</g>
<g>
</g>
<g>
</g>
<g>
</g>
<g>
</g>
<g>
</g>
<g>
</g>
<g>
</g>
<g>
</g>
<g>
</g>
</svg>
