<svg id="Filled_Expand" viewBox="0 0 64 64" xmlns="http://www.w3.org/2000/svg" data-name="Filled Expand"><path d="m24 39-.219 1.533a12.129 12.129 0 0 1 -5.417 8.467l.636 7h-4l-1-11" fill="#e6f3ff"/><path d="m15 59h6l-2-3h-4z" fill="#b26552"/><path d="m41 59h6l-2-3h-4z" fill="#b26552"/><path d="m47.346 38-4.346 11 2 7h-4l-2-7v-9z" fill="#e6f3ff"/><path d="m17 42h25a10 10 0 0 0 10-10v-18l-2.285 1.143a30 30 0 0 1 -20.288 2.369l-4.807-1.131a14.354 14.354 0 0 0 -3.284-.381 14.335 14.335 0 0 0 -14.336 14.336 31.762 31.762 0 0 0 1.34 9.131l1.66 5.533" fill="#f8fbff"/><path d="m39 18.181v3.819h3.848a6.159 6.159 0 0 0 6.152-6.152v-.367a29.969 29.969 0 0 1 -10 2.7z" fill="#e6f3ff"/><path d="m49.715 15.143a30.059 30.059 0 0 1 -6.266 2.3l1.551 7.757v1.8a5.006 5.006 0 0 0 5 5h2v-18z" fill="#e6f3ff"/><g fill="#4a5c7c"><path d="m30.24 17.685a3.825 3.825 0 0 0 -.24 1.315 4 4 0 0 0 4 4 3 3 0 1 0 3.819-2.873 3.961 3.961 0 0 0 .181-1.127 3.762 3.762 0 0 0 -.082-.741 30 30 0 0 1 -7.678-.574z"/><path d="m46.012 5a6.1 6.1 0 0 0 4.1 11.276 10.814 10.814 0 0 1 -4.1-11.276z"/><path d="m57.988 5a6.1 6.1 0 0 1 -4.1 11.276 10.814 10.814 0 0 0 4.1-11.276z"/></g><path d="m45.153 14h1.847a0 0 0 0 1 0 0v1.847a4.153 4.153 0 0 1 -4.153 4.153h-1.847a0 0 0 0 1 0 0v-1.847a4.153 4.153 0 0 1 4.153-4.153z" fill="#f8fbff"/><path d="m57 14h1.848a4.153 4.153 0 0 1 4.152 4.153v1.847a0 0 0 0 1 0 0h-1.847a4.153 4.153 0 0 1 -4.153-4.153v-1.847a0 0 0 0 1 0 0z" fill="#e6f3ff"/><path d="m57 25 1.8-9.019a5 5 0 0 0 -4.9-5.981h-3.8a5 5 0 0 0 -4.9 5.981l1.8 9.019z" fill="#f8fbff"/><path d="m57 25a7.25 7.25 0 0 0 -10 0v2a3 3 0 0 0 3 3h4a3 3 0 0 0 3-3z" fill="#ffdcbd"/><path d="m32 40a3.961 3.961 0 0 0 -.181-1.127 2.994 2.994 0 1 0 -3.819-2.873 4 4 0 0 0 -4 4 3.955 3.955 0 0 0 .555 2h6.89a3.955 3.955 0 0 0 .555-2z" fill="#4a5c7c"/><path d="m21 23a5 5 0 0 0 5-5 4.932 4.932 0 0 0 -.206-1.343l-1.174-.276a14.256 14.256 0 0 0 -8.52.619 5 5 0 0 0 4.9 6z" fill="#4a5c7c"/><path d="m12.907 29.155a3.965 3.965 0 0 0 -5.307-2.888 14.315 14.315 0 0 0 -.6 4.069 31.787 31.787 0 0 0 .182 3.208 3.773 3.773 0 0 0 2.537.383 2.99 2.99 0 1 0 3.188-4.772z" fill="#4a5c7c"/><path d="m21.266 40.745.219-1.533a.75.75 0 1 0 -1.485-.212l-.219 1.533a12.068 12.068 0 0 1 -.314 1.467h1.552c.1-.413.186-.831.247-1.255z" fill="#d0e7f7"/><path d="m20 39-.219 1.533a12.129 12.129 0 0 1 -5.417 8.467l.636 7h-4l-1-11" fill="#f8fbff"/><path d="m11 59h6l-2-3h-4z" fill="#be7864"/><path d="m37 59h6l-2-3h-4z" fill="#be7864"/><path d="m35 42v-1.25a.75.75 0 0 0 -.75-.75.75.75 0 0 0 -.75.75v1.25z" fill="#d0e7f7"/><path d="m35 40v9l2 7h4l-2-7 3.556-9" fill="#f8fbff"/><path d="m1 40c0-1.657.672-2 1.5-2s1.5.343 1.5 2-.672 4-1.5 4-1.5-2.343-1.5-4z" fill="#4a5c7c"/><circle cx="53.5" cy="27" r=".75"/><circle cx="50.5" cy="27" r=".75"/><path d="m49 15.25a.75.75 0 0 0 -.75.75v1a.75.75 0 0 0 1.5 0v-1a.75.75 0 0 0 -.75-.75z"/><path d="m55 15.25a.75.75 0 0 0 -.75.75v1a.75.75 0 0 0 1.5 0v-1a.75.75 0 0 0 -.75-.75z"/><path d="m60.807 13.712a6.72 6.72 0 0 0 .533-1.112 6.849 6.849 0 0 0 -2.972-8.251.75.75 0 0 0 -1.108.824 9.983 9.983 0 0 1 -.1 5.094 5.722 5.722 0 0 0 -3.26-1.017h-3.8a5.722 5.722 0 0 0 -3.259 1.021 9.983 9.983 0 0 1 -.1-5.094.75.75 0 0 0 -1.108-.824 6.848 6.848 0 0 0 -2.971 8.252 6.653 6.653 0 0 0 .521 1.091 4.884 4.884 0 0 0 -2.849 3.575 29.093 29.093 0 0 1 -10.734-.489l-4.809-1.131a15 15 0 0 0 -12.548 2.676 11.676 11.676 0 0 0 -10.493 11.673v7.353c-.791.23-1.5.917-1.5 2.647 0 1.268.533 4.75 2.25 4.75s2.25-3.482 2.25-4.75c0-1.73-.709-2.417-1.5-2.647v-7.353a10.168 10.168 0 0 1 6.8-9.641 15 15 0 0 0 -3.8 9.977 32.549 32.549 0 0 0 1.371 9.347l1.639 5.46.99 10.857v3a.75.75 0 0 0 .75.75h10a.75.75 0 0 0 .624-1.166l-1.895-2.842-.579-6.367a12.843 12.843 0 0 0 4.872-6.625h10.228v6.15a.739.739 0 0 0 .028.2l1.972 7v2.9a.75.75 0 0 0 .75.75h10a.75.75 0 0 0 .624-1.166l-1.935-2.9-1.9-6.642 2.919-7.391a10.752 10.752 0 0 0 6.042-9.651v-1.25h1.25a3.755 3.755 0 0 0 3.75-3.75v-1.926l1-4.978a4.86 4.86 0 0 0 2.406.654h1.844a.75.75 0 0 0 .75-.75v-1.848a4.847 4.847 0 0 0 -2.943-4.44zm-58.307 29.433a6.626 6.626 0 0 1 -.75-3.145c0-1.25.364-1.25.75-1.25s.75 0 .75 1.25a6.626 6.626 0 0 1 -.75 3.145zm42.476-36.295a11.519 11.519 0 0 0 .654 4.538 5.719 5.719 0 0 0 -.976 1.813 5.229 5.229 0 0 1 -.584-1.109 5.347 5.347 0 0 1 .906-5.242zm-3.226 11.3a3.4 3.4 0 0 1 2.6-3.3 5.756 5.756 0 0 0 .111 1.271l.477 2.384a3.361 3.361 0 0 1 -2.09.739h-1.1zm-10.96.408a30.5 30.5 0 0 0 6.457.472 3.246 3.246 0 0 1 -.146.883.749.749 0 0 0 .513.934 2.244 2.244 0 1 1 -2.864 2.153.75.75 0 0 0 -.75-.75 3.254 3.254 0 0 1 -3.25-3.25 2.974 2.974 0 0 1 .04-.44zm-13.99-1.017a13.489 13.489 0 0 1 7.651-.43l.719.169a3.787 3.787 0 0 1 .084.72 4.25 4.25 0 0 1 -8.5 0 4.486 4.486 0 0 1 .046-.459zm-9.05 12.795a13.5 13.5 0 0 1 .463-3.457 3.211 3.211 0 0 1 3.96 2.434.748.748 0 0 0 .505.556 2.241 2.241 0 1 1 -2.388 3.573.749.749 0 0 0 -.708-.253 3.174 3.174 0 0 1 -1.7-.166c-.082-.892-.132-1.788-.132-2.687zm4 27.914v-1.5h2.85l1 1.5zm7.85 0h-2.2l-1-1.5h2.2zm-1.643-9.88a.752.752 0 0 0 -.34.7l.563 6.182h-2.495l-.535-5.875a12.868 12.868 0 0 0 4.872-6.625h2.424a11.355 11.355 0 0 1 -4.49 5.618zm13.657-10.219a.749.749 0 0 0 -.513.934 3.23 3.23 0 0 1 .149.915 3.126 3.126 0 0 1 -.265 1.25h-5.97a3.126 3.126 0 0 1 -.265-1.25 3.254 3.254 0 0 1 3.25-3.25.75.75 0 0 0 .75-.75 2.25 2.25 0 1 1 2.863 2.151zm6.136 20.1v-1.5h2.886l.983 1.5zm7.849 0h-2.199l-1-1.5h2.23zm-3.3-9.525a.755.755 0 0 0 -.023.481l1.727 6.044h-2.44l-1.775-6.211 2.492-6.309a10.785 10.785 0 0 0 2.532-.367zm8.951-16.726a9.26 9.26 0 0 1 -8.364 9.2l.367-.93a.749.749 0 0 0 -.422-.972.749.749 0 0 0 -.973.421l-3.556 9a.755.755 0 0 0 -.023.481l1.727 6.044h-2.467l-1.789-6.344v-8.9a.75.75 0 0 0 -1.5 0v1.25h-1.676a4.542 4.542 0 0 0 .176-1.25 4.054 4.054 0 0 0 -.056-.669 3.744 3.744 0 1 0 -5.379-4.031 4.758 4.758 0 0 0 -4.065 4.7 4.542 4.542 0 0 0 .176 1.25h-3.026c.039-.2.09-.4.119-.611l.219-1.533a.75.75 0 1 0 -1.484-.212l-.219 1.533a11.373 11.373 0 0 1 -5.083 7.943.752.752 0 0 0 -.34.7l.563 6.182h-2.49l-.931-10.244a.791.791 0 0 0 -.028-.145l-1.667-5.611a30.989 30.989 0 0 1 -1-4.6 4.374 4.374 0 0 0 1.385.071 3.739 3.739 0 1 0 4.09-6.134 4.776 4.776 0 0 0 -4.794-3.319 13.678 13.678 0 0 1 6.52-7.077 5.747 5.747 0 0 0 11.49-.193c0-.116-.019-.236-.027-.354l2.533.6.062.013a4.383 4.383 0 0 0 -.068.741 4.758 4.758 0 0 0 4.065 4.7 3.749 3.749 0 1 0 5.379-4.032 4.2 4.2 0 0 0 .056-.668c0-.017 0-.035 0-.052.5-.041 1-.1 1.5-.166v1.218a.75.75 0 0 0 .75.75h1.848a4.86 4.86 0 0 0 2.406-.654l1 4.978v1.926a3.755 3.755 0 0 0 3.746 3.75h1.25zm5-5a2.253 2.253 0 0 1 -2.25 2.25h-4a2.253 2.253 0 0 1 -2.25-2.25v-1.651a6.448 6.448 0 0 1 8.5 0zm1.818-11.167-1.563 7.82a7.934 7.934 0 0 0 -9.01 0l-1.563-7.82a4.249 4.249 0 0 1 4.168-5.083h3.8a4.251 4.251 0 0 1 4.167 5.083zm.3-4.445a11.519 11.519 0 0 0 .654-4.538 5.349 5.349 0 0 1 .907 5.241 5.262 5.262 0 0 1 -.585 1.11 5.739 5.739 0 0 0 -.974-1.813zm3.88 7.862h-1.1a3.361 3.361 0 0 1 -2.09-.739l.477-2.384a5.756 5.756 0 0 0 .111-1.271 3.4 3.4 0 0 1 2.6 3.3z"/></svg>