<svg id="Capa_1" enable-background="new 0 0 511.943 511.943" height="512" viewBox="0 0 511.943 511.943" width="512" xmlns="http://www.w3.org/2000/svg"><g><g><path d="m482.367 504.442h-453.006c-12.073 0-21.861-9.787-21.861-21.861 0-8.936 5.456-16.939 13.74-20.292 25.528-10.332 35.796-26.353 65.101-33.034v-.006c.919-.203 1.848-.405 2.799-.588 24.309-4.733 56.488 3.809 85.697 1.372 26.159-2.188 52.467-15.944 81.286-15.944s55.127 13.757 81.286 15.944c29.174 2.451 61.337-6.112 85.697-1.372 30.908 6.019 41.793 22.942 67.558 33.55 8.236 3.391 13.636 11.391 13.636 20.298 0 12.113-9.82 21.933-21.933 21.933z" fill="#acd980"/><path d="m158.089 67.736s-5.642 7.53-75.294 37.647c-69.652 30.118-15.059 75.294-15.059 75.294l-32.634 15.059s-54.174-75.294 15.478-105.412 77.391-45.177 77.391-45.177z" fill="#7a8fa5"/><path d="m246.691 340.741-43.87 4.77c-4.06.45-7.09 3.25-7.09 6.55l.005 84.616 30.118 9.643 30.118-9.643v-89.396c-.001-4.211-4.653-7.054-9.281-6.54z" fill="#d4d4ff"/><path d="m236.246 472.868c-4.614-2.307-9.579-5.603-16.488-2.148l-4.297 2.148c-9.062 4.531-19.725-2.059-19.725-12.191v-24h60.235v24c0 10.132-10.662 16.722-19.725 12.191z" fill="#5b778f"/><path d="m120.441 347.281c0-1.91-1.02-3.72-2.8-4.97-3.733-2.642-2.251-2.03-50.35 3.2-4.06.45-7.09 3.25-7.08 6.55l-.005 84.616 30.118 13.596 30.118-13.596z" fill="#bdbdff"/><path d="m100.717 472.868c-4.614-2.307-9.579-5.603-16.488-2.148l-4.297 2.148c-9.062 4.531-19.725-2.059-19.725-12.191v-24h60.235v23.999c0 10.133-10.663 16.723-19.725 12.192z" fill="#5b778f"/><path d="m391.501 210.791c-2.99 25.42-8.68 51.44-17.94 75.31l-30.77 31.84-17.95 40.76c-13 11.33-20.87 27.51-22.18 44.77l-1.51 33.21-27.06 13.59-33.18-13.59v-41.91c0-5.97-4.14-11.17-8.67-14.26-9.04-6.21-14.6-.69-46.31-1-123.39-66.66-86.69-146.83-53.35-189.11l20.05-12.97 23.84-15.42c135.94 6.82 24.95-32.01 199.97-3.92 1.69 1.43 15.32 50.51 15.06 52.7z" fill="#efedff"/><path d="m185.931 379.511c-31.93-.24-34.08-8.58-47.14-15-5.97-2.94-13.11-2.23-18.35 1.9l-33.69 29.73c-7.3 6.45-11.49 15.73-11.49 25.48v15.06l-28.56 11.36-31.67-11.36c7.53-90.86-3.74-128.91-6.53-166.03l124.08-80.25 20.05-12.97c-21.37 47.54-44.46 135.5 33.3 202.08z" fill="#d4d4ff"/><path d="m281.423 472.868c-4.614-2.307-9.579-5.603-16.488-2.148l-4.297 2.148c-9.062 4.531-19.725-2.059-19.725-12.191v-23.999h60.235v24c0 10.131-10.663 16.721-19.725 12.19z" fill="#7a8fa5"/><path d="m373.561 286.1c-13.41 34.8-31.06 57.42-45.79 70.12-.55.48-1.09.93-1.63 1.38-.44.36-.87.73-1.3 1.1-15.3-19.09-28.53-36.32-21.98-57.54 3.57-11.59 10.48-15.05 21.75-15.05 17.64-.03 33.11-.01 48.95-.01z" fill="#7a8fa5"/><path d="m112.89 38.798c10.209-4.75 33.13-.363 47.172 3.058 6.219 1.515 9.418 8.391 6.572 14.124-6.428 12.945-17.835 33.303-28.044 38.053-15.253 7.097-33.37.485-40.467-14.768-7.098-15.253-.486-33.37 14.767-40.467z" fill="#d4d4ff"/><path d="m55.54 472.868c-4.821-2.41-9.679-5.553-16.488-2.148l-4.297 2.149c-9.062 4.531-19.725-2.059-19.725-12.191v-24h60.235v24c0 10.131-10.662 16.721-19.725 12.19z" fill="#7a8fa5"/><path d="m264.756 53.873c-17.193 29.679-31.282 38.558-53.491 49.137-42.26 20.128-19.982 68.2 14.93 62.074 13.466-2.363 31.424-5.541 40.744-24.213 11.721-23.486 4.377-61.613-2.183-86.998z" fill="#9ea2e3"/><path d="m427.892 53.873c17.193 29.679 31.282 38.558 53.491 49.137 10.66 5.077 17.21 11.939 20.486 19.262 9.732 21.754-9.382 47.381-35.416 42.812-13.466-2.363-31.424-5.541-40.744-24.213-11.72-23.486-4.377-61.613 2.183-86.998z" fill="#bdbdff"/><path d="m414.089 45.718c9.634-.577 20.542-7.077 30.37-14.163 5.92-4.268 11.45-10.05 16.074-17.746 5.374-8.944 18.331-8.228 22.862 1.199 13.66 28.417 4.361 58.991-30.306 67.787z" fill="#7a8fa5"/><path d="m278.56 45.718c-9.634-.577-20.542-7.077-30.37-14.163-5.92-4.268-11.45-10.05-16.074-17.746-5.374-8.944-18.331-8.228-22.862 1.199-13.66 28.417-4.361 58.991 30.306 67.787z" fill="#516980"/><path d="m460.441 167.632c-16.506 41.305-61.119 61.306-105.83 63.3-176.23-70.64-14.66-208.22-14.66-208.22 88.258-4.187 147.697 76.769 120.49 144.92z" fill="#efedff"/><path d="m354.611 230.931c-90.831 4.646-148.586-58.208-123.02-131.41 14.838-42.587 57.153-74.353 108.36-76.81-20.9 29.99-80.78 132.41 14.66 208.22z" fill="#d4d4ff"/><path d="m422.431 222.511c-7.75 12-21.66 21.81-39.08 27.64-119.81-5.27-80.64-102.64-80.15-103.86.01-.01.01-.01.01-.01 70.473-37.301 149.028 29.932 119.22 76.23z" fill="#ffb3c2"/><path d="m383.351 250.152c-58.073 18.886-119.85-10.274-119.85-49.51 0-22.548 19.183-43.469 39.71-54.36 4.73 35.859 26.09 73.209 80.14 103.87z" fill="#ff9eb1"/><path d="m328.251 204.761c-28.47-.24-14.84-23.81-14.84-23.81 13.353-2.643 23.069 12.839 14.84 23.81z" fill="#ff9eb1"/><path d="m328.251 204.761c-8.644 11.547-27.1 5.394-27.1-9.03 0-7.35 5.28-13.48 12.26-14.78 3.8 8.02 8.69 15.99 14.84 23.81z" fill="#ff758f"/><circle cx="376.442" cy="195.736" fill="#ff9eb1" r="15.059"/><path d="m180.631 182.831c-1.105 23.711-20.863 42.117-42.29 42.93-.64.04-1.28.11-1.91.21-19.16-42.28 24.22-64.89 24.22-64.89 5.31.36 10.64.64 15.96.84 2.89 6.32 4.37 13.43 4.02 20.91z" fill="#7a8fa5"/><path d="m160.651 161.081c-7.91 14.84-18.38 37.91-24.22 64.89-8.35 1.31-15 7.66-16.98 16.04-6.033 25.518-35.88 37.236-57.65 22.62-6.86-4.6-15.72-4.95-22.71-.54-9.231 5.822-20.077 7.983-30.47 6.49-.87-11.431-1.001-21.677.29-33.6 5.119-51.166 46.978-84.468 97.26-80.73 14.646 1.047 31.52 3.324 54.48 4.83z" fill="#5b778f"/><path d="m221.121 377.561c-1.763 0-15.553 1.95-35.29 1.95-49.39-9.59-48.49-73.69-48.49-73.69 4.44-12.09 16.41-20.54 30.23-19.67 15.197.959 27.879 13.566 28.16 29.58.12 7.87 4.8 14.87 12.02 18.02 17.009 7.425 23.313 28.278 13.37 43.81z" fill="#7a8fa5"/><path d="m185.931 379.511c-31.109 0-34.965-9.021-47.14-15-5.093-2.497-11.207-2.308-15.59.13-.01 0-.01 0-.02 0-.536.298-1.201.625-2.36 1.48-1.585-9.403 1.585-19.632 9.15-26.71 4.93-4.62 7.14-11.35 5.98-18.01-.888-5.004-.486-10.473 1.39-15.58 7.06 25.42 21.87 50.82 48.59 73.69z" fill="#5b778f"/></g><g><path d="m493.528 455.278c-9.646-3.973-16.989-8.846-24.763-14.005-34.538-22.92-50.741-23.389-90.895-19.954-35.278 3.019-43.721 2.172-68.512-4.644.909-20.672 3.727-38.692 21.595-53.311 31.22-26.016 50.314-68.674 60.137-108.108 20.028-7.851 38.95-22.592 44.191-43.456 14.054-10.615 24.565-23.941 31.118-39.141 43.384 6.403 67.333-53.012 18.218-76.418-7.016-3.341-13.045-6.447-18.504-10.011 30.194-13.327 38.162-45.108 24.05-74.465-7.09-14.757-27.579-15.934-36.049-1.815-3.81 6.341-8.527 11.561-14.027 15.519-7.897 5.694-14.426 9.414-19.848 11.309-28.267-18.594-63.165-25.731-97.913-19.637-4.08.716-6.807 4.603-6.091 8.683s4.606 6.805 8.683 6.091c69.022-12.111 134.386 35.87 134.386 101.497 0 22.874-8.081 42.715-23.526 58.151-3.989-20.835-22.742-44.962-53.803-56.912-57.488-22.113-117.207 14.977-124.926 56.985-45.075-45.31-23.162-122.896 39.607-151.071 3.779-1.696 5.467-6.135 3.771-9.913s-6.134-5.468-9.914-3.771c-6.345 2.848-12.371 6.17-18.041 9.904-5.42-1.883-11.961-5.605-19.887-11.321-5.492-3.952-10.214-9.174-14.03-15.511-8.538-14.229-29.024-12.817-36.051 1.81-14.225 29.593-6.07 60.971 24.095 74.444-16.971 11.104-33.849 13.298-42.65 33.001-5.223 11.667-3.889 24.744 2.498 35.137-71.969-1.193-91.796-13.935-128.327 2.154-14.881-30.696 24.372-42.441 52.587-55.263 9.752 4.207 20.965 4.295 31.059-.401 9.477-4.409 20.107-18.377 31.599-41.518 4.985-10.04-.624-22.094-11.515-24.747-25.1-6.114-42.634-6.979-52.11-2.57-13.115 6.102-21.105 18.792-21.878 32.313-11.308 6.035-24.815 12.457-40.248 19.126-44.869 19.407-49.301 59.778-27 102.629-25.456 33.522-21.532 72.933-16.267 114.694 11.954 94.83 3.193 111.955 3.193 135.916 0 26.11-.047 24.519.12 26.17-16.885 18.447-4.088 49.094 21.712 49.094h453.01c32.054.001 40.945-44.406 11.146-56.664zm-22.212-297.194c3.994-15.988 4.119-34.012-.465-51.894 2.339 1.193 4.769 2.381 7.314 3.593 32.654 15.561 17.613 49.406-6.849 48.301zm-37.438-110.977c17.684-9.278 26.767-18.902 33.095-29.436 2.295-3.824 7.717-3.473 9.669.591 11.042 22.969 5.15 46.441-19.794 55.536-6.173-9.8-13.885-18.808-22.97-26.691zm-290.531 272.985c-2.535-14.275 8.986-27.389 23.763-26.455 11.474.724 20.925 10.172 21.133 22.208.164 10.747 6.648 20.473 16.519 24.779 11.267 4.919 16.777 18.233 11.701 29.792-60.715 5.115-55.924-3.563-74.351-12.635-4.243-2.086-8.852-2.868-13.336-2.442 1.094-3.956 3.254-7.573 6.334-10.456 6.759-6.331 9.839-15.591 8.237-24.791zm90.075 109.09h-30.18v-42.674c19.343-1.154 20.572-2.691 24.784.2 2.489 1.698 5.396 4.829 5.396 8.064zm-120.47 0h-30.18c0-23.071 1.869-21.155 30.18-46.181zm-90.083 33.526c-.453-1.318-.329-.823-.329-18.525h45.235v16.496c0 4.556-4.795 7.521-8.87 5.483-12.391-6.203-15.849-5.823-27.494 0-3.196 1.597-7.107.219-8.542-3.454zm59.907-18.526h30.176v16.5c0 4.555-4.793 7.52-8.866 5.481-6.768-3.384-12.898-6.418-21.466-2.934.224-1.881.156-1.217.156-19.047zm45.176-73.409c5.34-1.831 9.525 1.308 14.99 4.946 8.411 5.6 17.11 11.364 45.299 11.288v33.322c-21.544 4.538-34.876 2.363-60.29.43v-49.986zm75.29 73.409h30.182c0 18.074-.057 17.313.161 19.101-15.268-6.137-20.465 6.915-27.435 2.61-.874-.54-2.908-2.13-2.908-5.211zm45.181 16.496v-16.496h45.235v16.496c0 3.084-2.033 4.674-2.907 5.214-2.87 1.773-5.156.692-7.192-.36-12.001-6.199-16.896-4.056-26.264.628-4.076 2.039-8.872-.925-8.872-5.482zm77.335-112.925c-12.877-16.609-20.312-29.502-15.719-44.384 3.687-11.968 6.483-9.791 52.258-9.77-9.099 20.629-20.253 38.561-36.539 54.154zm50.829-199.101c17.048 6.558 31.817 18.733 39.507 32.569 26.341 47.382-48.029 80.613-104.316 61.846-15.914-5.304-28.43-14.047-35.245-24.621-24.153-37.461 39.004-93.283 100.054-69.794zm-119.02 63.27c10.068 40.901 69.745 58.968 116.643 48.461-1.778 6.253-3.752 12.329-5.893 18.216l-43.695.012c-9.724 0-23.302 2.109-28.917 20.338-7.115 23.05 5.681 42.128 18.986 59.033-19.6 20.413-19.923 44.514-20.756 71.197h-45.513v-34.406c0-10.107-7.745-19.294-16.538-23.002 5.284-18.299-4.076-37.451-21.122-44.892-4.563-1.991-7.445-6.305-7.521-11.274-.349-20.067-16.166-35.736-35.188-36.936-22.246-1.393-40.04 16.348-40.04 37.545 0 6.176 2.861 12.086-3.154 17.723-8.035 7.518-12.309 18.036-11.861 29.006l-31.202 27.581c-8.912 7.875-14.023 19.21-14.023 31.1v7.556h-44.53c6.394-67.6-2.173-108.827-6.419-150.677 9.332-.314 18.383-3.085 26.281-8.066 4.349-2.743 10.053-2.577 14.527.424 22.604 15.181 52.798 6.547 64.938-16.099 1.88-3.501 3.29-7.21 4.191-11.023 1.318-5.575 5.511-10.007 12.997-10.548 31.25-2.487 54.138-32.087 47.178-63.833 5.094.08 10.63.126 16.642.134 7.627 3.575 14.618 4.145 22.589 3.118 6.61 15.21 17.223 28.647 31.4 39.312zm-41.545-193.662c1.953-4.064 7.374-4.413 9.675-.579 6.324 10.503 15.422 20.176 33.168 29.462-8.976 7.841-16.695 16.846-22.924 26.698-24.721-8.955-31.147-32.223-19.919-55.581zm-18.382 107.071c4.563-10.214 12.653-13.34 24.203-19.205-4.704 17.935-4.721 35.704-.644 51.887-17.446.983-30.64-16.863-23.559-32.682zm-81.576-79.732c4.6-2.138 18.11-2.331 42.232 3.545 1.55.377 2.339 2.073 1.63 3.502-11.043 22.239-19.892 32.449-24.491 34.589-5.559 2.586-11.795 2.854-17.557.751-19.168-6.995-20.237-33.815-1.814-42.387zm-62.497 51.608c13.767-5.95 26.074-11.726 36.736-17.236 1.489 3.888 3.564 7.532 6.559 11.046-20.438 9.121-48.382 18.681-55.493 42.654-2.795 9.425-1.561 19.655 3.539 29.939-4.807 3.097-9.32 6.616-13.489 10.514-15.763-33.472-12.357-61.993 22.148-76.917zm5.359 75.573c32.259-17.11 54.045-5.837 112.407-3.809 7.52 22.905-8.364 47.714-33.451 49.307-12.456.783-22.792 9.628-25.719 22.01-4.843 20.495-28.857 29.741-46.174 18.116-9.402-6.305-21.526-6.561-30.888-.655-5.818 3.669-12.519 5.645-19.416 5.761-1.857-40.712 7.674-69.774 43.241-90.73zm423.456 324.163h-453.01c-10.838 0-16.652-10.849-13.459-19.431 6.572 4.961 15.061 5.638 22.206 2.066 7.236-3.618 6.157-3.965 14.077-.001 4.908 2.454 10.419 2.887 15.502 1.353 7.756 2.492 13.272-.187 19.903-3.503 3.092-1.551 4.807-.333 9.774 2.153 14.048 7.023 30.575-3.193 30.575-18.898v-24.878c24.129 1.868 38.571 3.971 60.29-.164v25.042c0 15.705 16.538 25.922 30.584 18.898 6.802-3.401 6.353-3.886 11.901-1.086 5.909 2.981 11.039 4.656 17.791 2.441 8.761 2.634 14.665-.949 19.781-3.507 5.549-2.773 8.915 4.398 19.242 4.398 11.238 0 21.117-9.073 21.117-21.149 0-28.582-.063-21.277.188-28.599 26.783 7.165 38.568 6.9 70.303 4.186 37.118-3.178 50.056-3.24 81.322 17.507 8.034 5.332 16.341 10.844 27.348 15.378 14.657 6.029 10.272 27.794-5.435 27.794z"/><path d="m276.501 115.972v12c0 4.142 3.358 7.5 7.5 7.5s7.5-3.358 7.5-7.5v-12c0-4.142-3.358-7.5-7.5-7.5s-7.5 3.358-7.5 7.5z"/><path d="m416.398 127.972v-12c0-4.142-3.358-7.5-7.5-7.5s-7.5 3.358-7.5 7.5v12c0 4.142 3.358 7.5 7.5 7.5s7.5-3.357 7.5-7.5z"/><path d="m316.217 218.296c12.439 0 22.559-10.12 22.559-22.559s-10.12-22.559-22.559-22.559-22.559 10.12-22.559 22.559 10.12 22.559 22.559 22.559zm0-30.117c4.168 0 7.559 3.391 7.559 7.559s-3.391 7.559-7.559 7.559-7.559-3.391-7.559-7.559c0-4.169 3.391-7.559 7.559-7.559z"/><path d="m376.453 218.296c12.439 0 22.559-10.12 22.559-22.559s-10.12-22.559-22.559-22.559-22.559 10.12-22.559 22.559 10.12 22.559 22.559 22.559zm0-30.117c4.168 0 7.559 3.391 7.559 7.559s-3.391 7.559-7.559 7.559-7.559-3.391-7.559-7.559c0-4.169 3.391-7.559 7.559-7.559z"/></g></g></svg>