<svg id="Capa_1" enable-background="new 0 0 512.406 512.406" height="512" viewBox="0 0 512.406 512.406" width="512" xmlns="http://www.w3.org/2000/svg"><g id="XMLID_117_"><path id="XMLID_54_" d="m380.572 20.76-14.936-20.286-10.718 22.798c-.314.67-32.737 66.948-77.91 67.021h-.084l.011 30h.011.008.079l108.423-.077 4.5-5.803c7.168-9.245 27.678-43.319-9.384-93.653z" fill="#ffb64c"/><path id="XMLID_43_" d="m234.86 90.293c-45.676-.073-77.603-66.37-77.91-67.021l-10.717-22.798-14.937 20.286c-37.061 50.334-16.551 84.408-9.382 93.653l4.5 5.803 108.423.077h.079.008.011l.011-30z" fill="#ffde8d"/><path id="XMLID_601_" d="m297.061 90.221 113.481 124.674h6.63c52.513 0 95.234-42.589 95.234-94.938v-29.736z" fill="#40383f"/><path id="XMLID_27_" d="m0 90.221v29.736c0 52.349 42.589 94.938 94.938 94.938h6.614l113.873-124.674z" fill="#68544f"/><path id="XMLID_19_" d="m280.56 89.293h-85.464c-18.125 0-37.651 5.033-52.925 12.519-38.285 18.764-62.342 194.031-62.342 194.031v39.919c0 9.712 1.226 21.313 2.372 28.931l1.921 12.763 343.789.126 1.881-12.829c1.098-7.491 2.38-19.579 2.38-28.99v-133.719c-9.469-61.724-88.054-112.751-151.612-112.751z" fill="#dae2e9"/><path id="XMLID_1116_" d="m280.56 89.293h-24.625v288.225l171.977.063 1.881-12.829c1.098-7.491 2.38-19.579 2.38-28.99v-133.718c-7.803-61.557-88.055-112.751-151.613-112.751z" fill="#c4d2dc"/><path id="XMLID_14_" d="m214.313 143.263c-31.979-21.86-63.45-37.227-64.773-37.87l-7.369-3.581-6.995 4.265c-16.574 10.104-30.441 24.341-40.103 41.171-9.971 17.368-15.24 37.188-15.24 57.316v91.279l130.229.03c.878.022 1.751.033 2.62.033 21.251 0 39.804-6.709 52.479-19.037 12.137-11.805 18.552-28.122 18.552-47.186 0-26.228-22.701-54.496-69.4-86.42z" fill="#876d67"/><path id="XMLID_1121_" d="m255.935 176.864v107.314c3.334-2.161 6.431-4.59 9.227-7.309 12.137-11.805 18.552-28.122 18.552-47.186-.001-16.646-9.16-34.116-27.779-52.819z" fill="#68544f"/><path id="XMLID_59_" d="m141.442 237.815c-.103-22.038 17.742-40.051 39.78-40.154h.188c21.953 0 39.864 17.807 39.967 39.781l-30 .141c-.025-5.48-4.493-9.922-9.969-9.922-.016 0-.03 0-.046 0-2.662.013-5.16 1.061-7.033 2.952-1.874 1.892-2.899 4.399-2.887 7.062z" fill="#68544f"/><path id="XMLID_58_" d="m297.479 237.815c-.103-22.038 17.742-40.051 39.78-40.154h.188c21.953 0 39.864 17.807 39.967 39.781l-30 .141c-.025-5.48-4.493-9.922-9.969-9.922-.016 0-.03 0-.046 0-2.662.013-5.16 1.061-7.033 2.952-1.874 1.892-2.899 4.399-2.887 7.062z" fill="#40383f"/><path id="XMLID_65_" d="m357.568 323.068h-203.267c-52.069 0-94.432 42.362-94.432 94.433 0 52.069 42.362 94.432 94.432 94.432h203.268c52.069 0 94.432-42.362 94.432-94.432-.001-52.07-42.363-94.433-94.433-94.433z" fill="#ffc9d0"/><path id="XMLID_1136_" d="m357.568 323.068h-101.633v188.864h101.634c52.069 0 94.432-42.362 94.432-94.432-.001-52.069-42.363-94.432-94.433-94.432z" fill="#ffa8b4"/><path id="XMLID_40_" d="m225.882 427.501h-30c0-5.514-4.486-10-10-10s-10 4.486-10 10h-30c0-22.056 17.944-40 40-40s40 17.944 40 40z" fill="#ffa8b4"/><path id="XMLID_37_" d="m367.205 427.501h-30c0-5.514-4.486-10-10-10s-10 4.486-10 10h-30c0-22.056 17.944-40 40-40s40 17.944 40 40z" fill="#ff8597"/><path id="XMLID_403_" d="m431.235 192.66c-1.437-14.397-5.345-28.489-12.006-41.332-19.361-37.33-58.273-62.034-102.326-62.034h-36.343l-4.183 8.153c-6.639 12.938-13.234 42.126 9.315 59.986 14.5 11.48 25.325 10.903 34.019 10.443 6.919-.369 12.898-.686 25.427 6.008 1.424.761 3.507 2.729 5.713 4.812 9.842 9.298 24.716 23.348 64.792 23.348h16.529z" fill="#68544f"/></g></svg>