<svg height="512" viewBox="0 0 96 96" width="512" xmlns="http://www.w3.org/2000/svg"><g id="Cow_udder" data-name="Cow udder"><path d="m53.05 49.6-4.7 16h-16.74c.62-3.58 2.67-15.79 2.84-17z" fill="#b09482"/><path d="m69.88 31.65a22.13 22.13 0 0 1 -9.81 18.35l1.8 3a2.94 2.94 0 1 1 -5.08 3c-2.18-3.78-2-3.41-1.9-3.45a21.87 21.87 0 0 1 -9.79 1l-.51 2.92a2.94 2.94 0 1 1 -5.79-1l.58-3.41a22.15 22.15 0 0 1 -8.69-6.41l-2.36 1.36a2.94 2.94 0 1 1 -2.87-5.14l2.13-1.19a22.12 22.12 0 1 1 42.29-9.1z" fill="#d1384c"/><path d="m69.8 29.77a22 22 0 0 1 -5.25 16.23 23.85 23.85 0 0 1 -24.06-.63 3.58 3.58 0 0 0 -3-.27 2.09 2.09 0 0 1 -2.74-2 4.69 4.69 0 0 0 -.75-3.58 23.85 23.85 0 0 1 -3.66-21.52 22.13 22.13 0 0 1 39.46 11.77z" fill="#ef6f83"/><path d="m5.48 0h52.41v32.03h-52.41z" fill="#eddcd2"/><path d="m57.89 20.59v11.41h-52.41v-4.7h26.42a19.37 19.37 0 0 0 13.69-5.67l2-2z" fill="#ddbea9"/><path d="m5.48 23.48h10.16a.9.9 0 0 0 .64-1.48l-.7-.71a5.31 5.31 0 0 0 -3.73-1.54h-6.37z" fill="#ddbea9"/><path d="m90.59 0a15.65 15.65 0 0 1 -.9 4.9c-4.33 11.42-4.09 10.73-4.4 11.79a14.26 14.26 0 0 0 .44 8.78c2.82 7.44 2.39 6.3 2.94 7.77a15.12 15.12 0 0 1 .33 9.63c-14.12 48.54-12.06 41.49-14.88 51.13h-13.79c2-11.19 7.09-39.35 7.82-43.33a14 14 0 0 0 -3.89-12.24l-12-12a24.24 24.24 0 0 1 -7.06-17.1v-9.33z" fill="#eddcd2"/><path d="m61.71 86.39h14.63l-2.22 7.61h-13.79z" fill="#495a83"/><path d="m89 42.87c-6.62 22.68-6 20.66-12.7 43.53-15.77 0-14.64 0-14.62-.08 6.39-35.22 6.32-34.32 6.23-34.32a8.14 8.14 0 0 0 7.75-5.63l9.63-29.66a14.26 14.26 0 0 0 .44 8.78c2.82 7.44 2.39 6.3 2.94 7.77a15.12 15.12 0 0 1 .33 9.61z" fill="#ddbea9"/><path d="m87.78 96h-79.6a1 1 0 0 1 0-2h79.6a1 1 0 0 1 0 2z" fill="#06d6a0"/><path d="m54.31 42.17a2.45 2.45 0 0 0 -2.31-1.75h-4.25c.24 1.32 1.53 5.43 1.33 4.78a3.06 3.06 0 0 0 3.56 2.17 2.94 2.94 0 0 0 2.12-3.7z" fill="#d1384c"/><path d="m59.38 0v13.11a11.58 11.58 0 0 1 -2.34 7l-4.77 6.29a24.24 24.24 0 0 1 -7.06-17.1v-9.3z" fill="#cb997e"/><path d="m22.9 70.89 3.55 23.11h25.13l3.55-23.11z" fill="#c2c2c2"/><path d="m25.76 89.48h26.48l-.66 4.52h-25.13z" fill="#d6d6d6"/><rect fill="#d6d6d6" height="5.32" rx="1.09" width="37.19" x="20.42" y="65.57"/><rect fill="#ebebeb" height="5.32" rx="1.09" width="17.97" x="30.03" y="65.57"/><path d="m78.9 68.23-1.43 3.77a16.08 16.08 0 0 1 -15 10.41l-.71 4h14.58l4.75-16.28z" fill="#c9a090"/><path d="m89 42.87-8.4 28.93-2.24-4.7a13.07 13.07 0 0 1 -.89-8.79l4-16.36a13.3 13.3 0 0 1 3-5.65l3.74-4.13.4 1.07a15.12 15.12 0 0 1 .39 9.63z" fill="#cb997e"/><path d="m50 59.9-1.67 5.67h-16.72c.22-1.28.42-2.47.61-3.57 12.7 0 9.4.44 17.78-2.1z" fill="#a1856e"/><path d="m51.32 70.89-2.32 10.65a6.14 6.14 0 0 1 -6 4.86h-5.36a13 13 0 0 0 -8.4 3.08h23l2.89-18.59z" fill="#a8a8a8"/><path d="m23.49 74.75h14.17a2.51 2.51 0 0 1 2.44 3.07l-.63 2.69a2.5 2.5 0 0 1 -2.47 1.93h-2.86a5.19 5.19 0 0 0 -3.46 1.33l-5.1 4.58z" fill="#d6d6d6"/><path d="m19.89 88.35a1 1 0 0 1 -.71-1.7l19.13-19.13a1 1 0 0 1 1.41 0 1 1 0 0 1 0 1.42l-19.12 19.12a1 1 0 0 1 -.71.29z" fill="#3d405b"/><path d="m34.13 76.68h2.7a1.1 1.1 0 0 1 1.07 1.37l-.23.89a1.06 1.06 0 0 1 -1 .8h-1a1.61 1.61 0 0 1 -1.14-.47c-.91-.91-1.06-1-1.07-1.37v-.45a.76.76 0 0 1 .67-.77z" fill="#ebebeb"/><path d="m76.71 24.42-3 8.33a3.32 3.32 0 0 1 -3.11 2.25h-1.33a3.33 3.33 0 0 1 -3.19-4.26l.76-2.58a8.07 8.07 0 0 1 3.64-4.7l2.91-1.73a2.28 2.28 0 0 1 3.32 2.69z" fill="#ddbea9"/><path d="m90.59 0a15.82 15.82 0 0 1 -.7 4.31h-21.38a12.9 12.9 0 0 0 -9.13 3.78v-8.09z" fill="#fff1e6"/></g></svg>