<svg id="Flat" viewBox="0 0 512 512" xmlns="http://www.w3.org/2000/svg"><path d="m495.98 279.08a5.439 5.439 0 0 0 -8.343-.26c-7.424 8.355-13.373 23.758-8.823 28.871 5.069 5.7 2.876 18.434 9.191 18.891s13.961-6.3 15.7-19.993a36.851 36.851 0 0 0 -7.725-27.509z" fill="#493e42"/><path d="m491.858 281.5c-.067 0-.135 0-.2 0a4.5 4.5 0 0 1 -4.3-4.7l.083-1.851c2.4-53.583 4.674-104.195-38.15-124.893a4.5 4.5 0 0 1 3.916-8.1c21.8 10.535 35.135 28.608 40.776 55.252 4.913 23.2 3.717 49.892 2.45 78.149l-.083 1.85a4.5 4.5 0 0 1 -4.492 4.293z" fill="#493e42"/><path d="m488.612 331.1c-.312 0-.622-.012-.932-.034-6.907-.5-8.375-7.416-9.448-12.466-.628-2.954-1.338-6.3-2.779-7.922-7.379-8.291 1.677-26.812 8.82-34.851a9.939 9.939 0 0 1 15.259.485 41.658 41.658 0 0 1 8.636 30.84c-2.022 15.93-11.199 23.948-19.556 23.948zm-.043-9h.024c3.57 0 9.236-4.964 10.647-16.081a32.2 32.2 0 0 0 -6.811-24.178.886.886 0 0 0 -.693-.346.9.9 0 0 0 -.735.311c-7.534 8.479-10.625 20.868-8.825 22.89 3.026 3.4 4 7.988 4.86 12.035.364 1.703.948 4.469 1.533 5.369z" fill="#493e42"/><path d="m194.785 254.864-.163.473c.447-.102.529-.256.163-.473z" fill="#eae7dc"/><path d="m453.34 309.78c-2.28 9.84-19.26 58.35-21.36 95.06-1.18 20.66-6.13 29.4-8.64 32.32a4 4 0 0 1 -3.03 1.39h-23.01a4 4 0 0 1 -2.78-6.88l7.5-7.23a3.992 3.992 0 0 0 1.17-3.48c-1.13-7.36-5.21-33.14-9.5-44.94-1.6-4.4-7.93-12.83-15.8-22.26a1.5 1.5 0 0 0 -1.71-.45 1.512 1.512 0 0 0 -1 1.28c-1.74 15.92-13.25 37.25-13.98 49.97-1.18 20.65-5.9 29.68-8.41 32.6a4.019 4.019 0 0 1 -3.04 1.39h-23.01a4 4 0 0 1 -2.77-6.88l7.55-7.29a3.989 3.989 0 0 0 1.2-3.35c-.78-6.49-3.71-28.13-7.53-38.64-1.5-4.15-12.19-11.89-17.97-21.44-7.17-.97-8.54-11.35-8.54-11.35a71.32 71.32 0 0 1 -18.52.96c-9.19-.6-18.75-2.47-28.26-4.58-5.84 19.31-11.65 41.2-12.64 58.58-1.19 20.65-6.13 29.68-8.64 32.6a4.019 4.019 0 0 1 -3.04 1.39h-23.01a4 4 0 0 1 -2.77-6.88l7.45-7.19a4 4 0 0 0 1.17-3.56c-1.34-7.74-6.04-35.71-8.05-46.93-1.02-5.67-11.44-14.87-23.21-25.97 0 10.11 1.2 29.51-2.34 57.32-2.51 19.69-6.54 28.16-8.67 31.43a4 4 0 0 1 -3.35 1.8h-22.66a4 4 0 0 1 -2.78-6.88l7.46-7.19a3.993 3.993 0 0 0 1.16-3.56c-1.33-7.74-6.04-34.95-8.05-46.17-2.36-13.14-55.21-45.22-58.32-76.1-2.65-26.45-18-30.32-24.02-56.82a95.447 95.447 0 0 1 -2.06-14.31c-.15-.19-.3-.39-.44-.59-14.21-18.99-20.02-51.93-20.38-92.57h-.02c-23.97-1.52-29.65-33.38-25.41-37.24a37.58 37.58 0 0 1 36.82-8.51c9.28-9.49 23.34-12.65 36.2-14.46 19.69-2.68 41.19 1.7 55.72 16.56 0 0 20.06-8.92 37.11 5.27a4.049 4.049 0 0 1 1.49 2.81 39.324 39.324 0 0 1 -3.57 18.48c.03.01.05.02.08.03q4.56 1.53 8.71 2.62c36.73 9.71 50.76-4.65 77.38-1.06 22.03 2.98 97.31-5.01 146.68.27a70.836 70.836 0 0 1 58.06 42.97c16.97 40.99 3.3 87.53-10.62 147.66z" fill="#f2eee9"/><path d="m248.388 249.9-.055-.9c-.461.1-.414.415.055.9z" fill="#eae7dc"/><g fill="#493e42"><path d="m128.23 82.86-.7 14.33c-1.14 9.5-11.84 19.6-16.97 25.5-9.35 10.75-3.92 39.545-2.67 52.67.321 3.37.431 13.534.431 13.534-10.521-4.52-23.581-6.924-36.251-2.394 0 0 2.241-8.326 2.82-11.14 2.659-12.913 6.69-41.92-2.66-52.67-5.14-5.9-15.84-16-16.97-25.5l-.97-14.81c8.39-4.81 18.53-6.88 28.01-8.21 15.64-2.13 32.41.2 45.93 8.69z"/><path d="m390.89 144.2c-6 1.51-10 14.49-20.96 22.49s-22.54-8.5-36.54-9.5-.5 20-25.75 25.75-44.75-46.8-58.25-64.3l1.09-.35a64.685 64.685 0 0 1 8.74.59c22.03 2.98 97.31-5.01 146.68.27 17.17 9.06-9.01 23.54-15.01 25.05z"/><path d="m469.05 237.12-.53 1.32c-30.54-25.64-18.43-66.93-.77-65.32 5.53 19.68 4.93 40.74 1.3 64z"/><path d="m397.893 216.751c20.291-14.824 32.423 26.609 15.545 37.942s-37.545 13.667-40.211-6.667 16.438-25.264 24.666-31.275z"/><path d="m124.062 145.365a4.5 4.5 0 0 1 -3.278-1.414 6.339 6.339 0 0 0 -3.418-.693 4.5 4.5 0 0 1 0-9c6.866 0 9.723 3.182 10.227 3.82a4.5 4.5 0 0 1 -3.531 7.287z"/><path d="m58.386 145.365a4.5 4.5 0 0 1 -3.531-7.287c.5-.638 3.361-3.82 10.228-3.82a4.5 4.5 0 0 1 0 9 6.344 6.344 0 0 0 -3.419.693 4.493 4.493 0 0 1 -3.278 1.414z"/></g><path d="m161.665 334.8a4.487 4.487 0 0 1 -.85-.081c-17-3.248-32.038-9.371-44.7-18.2-11.35-7.911-14.472-18.173-17.226-27.228-1.906-6.267-3.707-12.186-7.964-17.444a4.5 4.5 0 0 1 7-5.663c5.361 6.623 7.5 13.671 9.578 20.487 2.667 8.766 4.969 16.336 13.762 22.464 11.622 8.1 25.5 13.734 41.247 16.743a4.5 4.5 0 0 1 -.839 8.921z" fill="#bfb8af"/><path d="m179.163 352.519a4.483 4.483 0 0 1 -3.088-1.228c-16.664-15.728-34.6-34.086-36.5-52.95a4.5 4.5 0 0 1 8.955-.9c1.588 15.782 18.239 32.693 33.722 47.306a4.5 4.5 0 0 1 -3.089 7.773z" fill="#bfb8af"/><path d="m173.05 117.29a21.125 21.125 0 0 1 -3.4 5.05 15.871 15.871 0 0 1 -12.19 5c-.1 0-.6.05-.75.08a4.869 4.869 0 0 0 -2.991 1.752 5.329 5.329 0 0 0 -.749 2.358c-.058.564-2.8 50.379-20.9 83.062-7.357 13.29-20.79 30.169-41.614 30.169-13.756-.11-25.986-7.331-33.406-16.971-.67-.87-1.67-.44-1.52-.25a95.447 95.447 0 0 0 2.06 14.31c8.46 7.47 19.32 11.3 32.38 11.41h.45c17.624 0 30.34-8.4 39.34-18.818.269-.21 2.177-2.584 2.872-3.544a98.282 98.282 0 0 0 13.919-26.7c9.674-25.2 13.516-53.3 14.821-65.685a3.4 3.4 0 0 1 2.631-2.93 24.416 24.416 0 0 0 12.187-7.061 30.8 30.8 0 0 0 5.65-8.58c-2.77-.732-5.75-1.632-8.79-2.652z" fill="#bfb8af"/><path d="m122.82 199.88.1.157a27.481 27.481 0 0 1 -7.578 36.771 41.855 41.855 0 0 1 -25.332 7.952c-15.276-.126-26.836-6.712-35.336-18.379-8.874-12.181-5.634-29.491 7.367-37.117 19.769-11.597 52.067-3.188 60.779 10.616z" fill="#ff8376"/><path d="m97.784 218.07a4.5 4.5 0 0 1 -4.057-6.443 15.429 15.429 0 0 1 14.953-8.689 4.5 4.5 0 0 1 -.718 8.972 6.529 6.529 0 0 0 -6.116 3.6 4.5 4.5 0 0 1 -4.062 2.56z" fill="#e54a4a"/><path d="m76.562 218.07a4.5 4.5 0 0 1 -4.062-2.56 6.539 6.539 0 0 0 -6.174-3.6 4.471 4.471 0 0 1 -4.815-4.129 4.524 4.524 0 0 1 4.156-4.847 15.433 15.433 0 0 1 14.952 8.689 4.5 4.5 0 0 1 -4.057 6.443z" fill="#e54a4a"/><path d="m134.56 239.57c-1.41-1.32-3.17-2.82-5.02-4.88a36.146 36.146 0 0 1 -5.44-7.97.536.536 0 0 0 -.05-.11s.33-.32.93-1.01a.647.647 0 0 1 .08-.09c2.78-3.26 10.79-13.97 16.89-35.72.01-.01.01-.01.01-.02s0-.01.01-.02c6.86-19.52 10.35-47.77 11.24-58.33.19-2.31 1.84-4.1 4.04-3.37a78.611 78.611 0 0 1 12.17 5.55c1.92 1.03 3.66 1.98 5.14 2.68 15.35 7.26 34.09 27.41 28.21 41.91s11.43 29.75 17.62 44.5c10.5 25-47.35 52.96-85.83 16.88z" fill="#493e42"/><path d="m169.42 133.6a24.545 24.545 0 0 1 -5.42 1.98 3.4 3.4 0 0 0 -2.63 2.93c-1.3 12.38-5.14 40.48-14.82 65.69a98.126 98.126 0 0 1 -13.92 26.7c-.69.96-2.6 3.33-2.87 3.54l-.22.25a36.146 36.146 0 0 1 -5.44-7.97c.3-.37.6-.75.88-1.12a.647.647 0 0 1 .08-.09 81.184 81.184 0 0 0 7.01-10.92 149.776 149.776 0 0 0 9.88-24.8c.01-.01.01-.01.01-.02s0-.01.01-.02c6.86-19.52 10.35-47.77 11.24-58.33.19-2.31 1.84-4.1 4.04-3.37a78.611 78.611 0 0 1 12.17 5.55z" fill="#332a30"/><path d="m376.18 353.31a1.512 1.512 0 0 0 -1 1.28c-.09.81-.2 1.63-.35 2.47-2.53 15.6-12.94 35.43-13.63 47.5-1.18 20.65-5.9 29.68-8.41 32.6a4.019 4.019 0 0 1 -3.04 1.39h-23.01a4 4 0 0 1 -2.77-6.88l7.55-7.29a3.989 3.989 0 0 0 1.2-3.35c-.78-6.49-3.71-28.13-7.53-38.64-1.5-4.15-12.19-11.89-17.97-21.44-7.17-.97-8.54-11.35-8.54-11.35-5.9 1.17-17.01-10.27-17.01-10.27l71.33-19.83a97.627 97.627 0 0 1 12.11 12.76c6.43 8.17 9.96 15.72 11.07 21.05z" fill="#e5dfd8"/><path d="m384 312.33v.288a14.742 14.742 0 0 1 -4.9 11.007c-7.135 6.367-16.915 12.149-24 14.408a1.8 1.8 0 0 0 -1.192 2.19c4.387 16.582-13.045 17.526-17.208 5.358a1.808 1.808 0 0 0 -2.081-1.206 87.411 87.411 0 0 1 -15.209 1.8 1.8 1.8 0 0 0 -1.748 1.625c-.835 8.73-1.064 12.648-8.694 13.2-6.663.483-9.152-6.476-9.951-9.749a1.8 1.8 0 0 0 -2.063-1.335c-13.955 2.311-29.561-.5-45.046-3.936 5.31-17.53 10.64-32.94 12.42-40.91 9-16.5 49.85-8.89 63.5-14.95 21.423-9.517 41.522 3.233 50.8 10.8a14.708 14.708 0 0 1 5.372 11.41z" fill="#ff8376"/></svg>