<?xml version="1.0" encoding="UTF-8" standalone="no"?>
<!-- Created with Inkscape (http://www.inkscape.org/) -->

<svg
   version="1.1"
   id="svg7281"
   xml:space="preserve"
   width="682.66669"
   height="682.66669"
   viewBox="0 0 682.66669 682.66669"
   xmlns="http://www.w3.org/2000/svg"
   xmlns:svg="http://www.w3.org/2000/svg"><defs
     id="defs7285"><clipPath
       clipPathUnits="userSpaceOnUse"
       id="clipPath7299"><path
         d="M 0,512 H 512 V 0 H 0 Z"
         id="path7297" /></clipPath></defs><g
     id="g7287"
     transform="matrix(1.3333333,0,0,-1.3333333,0,682.66667)"><g
       id="g7289"
       transform="translate(205.6968,203.8096)"><path
         d="m 0,0 -55.537,-42.183 -1.591,-29.649 -3.103,-57.999 H -92.214 V -24.364 L -76.848,0 Z"
         style="fill:#ffe7c7;fill-opacity:1;fill-rule:nonzero;stroke:none"
         id="path7291" /></g><g
       id="g7293"><g
         id="g7295"
         clip-path="url(#clipPath7299)"><g
           id="g7301"
           transform="translate(205.6968,203.8096)"><path
             d="m 0,0 -55.537,-42.183 -1.591,-29.649 c -12.793,2.912 -24.795,8.728 -35.086,17.107 v 30.361 L -76.848,0 Z"
             style="fill:#ffd693;fill-opacity:1;fill-rule:nonzero;stroke:none"
             id="path7303" /></g><g
           id="g7305"
           transform="translate(128.8472,203.8076)"><path
             d="M 0,0 -15.367,-24.362 V -129.829 H 16.614 L 21.312,-42.178 76.851,0 Z"
             style="fill:none;stroke:#000000;stroke-width:15;stroke-linecap:round;stroke-linejoin:round;stroke-miterlimit:10;stroke-dasharray:none;stroke-opacity:1"
             id="path7307" /></g><g
           id="g7309"
           transform="translate(102.0239,209.4736)"><path
             d="m 0,0 c 3.213,-33.456 31.394,-59.619 65.692,-59.619 34.298,0 62.478,26.163 65.691,59.619 z"
             style="fill:#feac8a;fill-opacity:1;fill-rule:nonzero;stroke:none"
             id="path7311" /></g><g
           id="g7313"
           transform="translate(102.0215,209.4756)"><path
             d="m 0,0 c 1.622,-16.887 9.6,-31.912 21.522,-42.653 l 6.11,4.638 c 5.571,4.228 12.327,6.745 19.321,6.773 4.147,0.016 8.204,-0.784 12.037,-2.362 2.373,-0.981 4.784,-1.828 7.226,-2.541 5.199,-1.516 6.436,-8.379 2.008,-11.496 -6.069,-4.27 -12.888,-7.543 -20.225,-9.577 5.626,-1.561 11.562,-2.402 17.698,-2.402 34.295,0 62.473,26.166 65.686,59.62 z"
             style="fill:#fd9468;fill-opacity:1;fill-rule:nonzero;stroke:none"
             id="path7315" /></g><g
           id="g7317"
           transform="translate(102.0239,209.4736)"><path
             d="m 0,0 c 3.213,-33.456 31.394,-59.619 65.692,-59.619 34.298,0 62.478,26.163 65.691,59.619"
             style="fill:none;stroke:#000000;stroke-width:15;stroke-linecap:round;stroke-linejoin:round;stroke-miterlimit:10;stroke-dasharray:none;stroke-opacity:1"
             id="path7319" /></g><g
           id="g7321"
           transform="translate(327.6089,210.1562)"><path
             d="M 0,0 -17.788,-136.178 H -51.156 L -38.097,0 Z"
             style="fill:#ffe7c7;fill-opacity:1;fill-rule:nonzero;stroke:none"
             id="path7323" /></g><g
           id="g7325"
           transform="translate(327.6104,210.1562)"><path
             d="m 0,0 -8.479,-64.905 -1.771,23.584 c -0.361,4.795 -4.405,8.548 -9.2,8.548 -0.19,0 -0.38,0 -0.571,-0.01 L -41.362,-34.034 -38.099,0 Z"
             style="fill:#ffd693;fill-opacity:1;fill-rule:nonzero;stroke:none"
             id="path7327" /></g><g
           id="g7329"
           transform="translate(282.9204,141.4189)"><path
             d="M 0,0 -6.467,-67.44 H 26.9 L 44.688,68.737 H 6.592 L 3.43,35.763"
             style="fill:none;stroke:#000000;stroke-width:15;stroke-linecap:round;stroke-linejoin:round;stroke-miterlimit:10;stroke-dasharray:none;stroke-opacity:1"
             id="path7331" /></g><g
           id="g7333"
           transform="translate(504.5,328.748)"><path
             d="m 0,0 v -11.12 c 0,-2.95 -1.38,-5.72 -3.72,-7.49 l -11.38,-8.63 c -1.22,-0.92 -2.65,-1.53 -4.16,-1.78 l -15.42,-2.53 c -23.38,-3.84 -41.51,-22.5 -44.67,-45.99 l -2.05,-15.21 c -0.94,-7 -3.76,-13.46 -8.01,-18.79 -4.24,-5.32 -9.91,-9.52 -16.52,-12 -12.42,-4.66 -20.64,-16.54 -20.64,-29.8 v -101.43 h -33.37 l -7.24,96.35 c -1.2,15.941 -14.95,27.97 -30.9,27.03 l -114.3,-6.72 c -1.3,-0.1 -2.6,-0.15 -3.9,-0.15 -6.7,0 -13.35,1.32 -19.57,3.88 -16.82,6.95 -36.07,4.45 -50.57,-6.56 l -34.47,-26.18 -4.7,-87.65 h -36.68 v 99.57 c 0,3.85 1.09,7.63 3.15,10.89 l 14.36,22.77 v 106.2 c 0,32.66 26.53,59.111 59.19,59.02 l 9.9,-0.03 82.02,-0.23 152.56,-0.43 58.13,15.3 16.63,-2.7 c 3.14,-0.51 5.81,-2.569 7.09,-5.48 L -53.97,38.15 -4.51,8.03 C -1.71,6.32 0,3.28 0,0"
             style="fill:#fff2e2;fill-opacity:1;fill-rule:nonzero;stroke:none"
             id="path7335" /></g><g
           id="g7337"
           transform="translate(210.8501,372.168)"><path
             d="m 0,0 -33.83,-33.82 c -3.9,-3.909 -10.23,-3.909 -14.14,0 L -82.02,0.23 Z"
             style="fill:#ffe7c7;fill-opacity:1;fill-rule:nonzero;stroke:none"
             id="path7339" /></g><g
           id="g7341"
           transform="translate(504.5,328.7471)"><path
             d="m 0,0 v -11.121 c 0,-2.943 -1.381,-5.716 -3.724,-7.488 l -11.381,-8.629 c -1.222,-0.921 -2.643,-1.532 -4.155,-1.782 l -15.415,-2.532 c -23.384,-3.834 -41.522,-22.503 -44.676,-45.987 l -2.042,-15.205 c -0.94,-7.007 -3.774,-13.464 -8.018,-18.789 -4.244,-5.325 -9.91,-9.52 -16.517,-12.002 -12.422,-4.665 -20.64,-16.537 -20.64,-29.801 v -101.433 h -27.629 v 101.433 c 0,13.264 8.229,25.136 20.652,29.801 6.616,2.482 12.272,6.677 16.516,12.002 4.245,5.325 7.068,11.782 8.008,18.789 l 2.052,15.205 c 3.154,23.484 21.282,42.153 44.666,45.987 l 15.426,2.532 c 1.511,0.25 2.932,0.861 4.154,1.782 l 11.381,8.629 c 2.342,1.772 3.724,4.545 3.724,7.488 V 0 c 0,3.283 -1.712,6.326 -4.515,8.028 l -49.45,30.12 -5.275,11.962 c -1.231,2.774 -3.724,4.786 -6.687,5.396 l 10.591,2.783 16.627,-2.703 c 3.133,-0.51 5.806,-2.572 7.087,-5.476 L -53.965,38.148 -4.504,8.028 C -1.712,6.326 0,3.283 0,0"
             style="fill:#ffe7c7;fill-opacity:1;fill-rule:nonzero;stroke:none"
             id="path7343" /></g><g
           id="g7345"
           transform="translate(504.5,328.7471)"><path
             d="m 0,0 v -11.121 c 0,-2.943 -1.381,-5.716 -3.724,-7.488 l -11.381,-8.629 c -1.222,-0.921 -2.643,-1.532 -4.155,-1.782 l -15.416,-2.53 c -23.384,-3.837 -41.516,-22.503 -44.673,-45.989 l -2.044,-15.205 c -0.94,-7.007 -3.774,-13.464 -8.018,-18.789 -3.023,-3.794 -6.767,-7.008 -11.051,-9.44 -6.327,8.498 -10.07,19.039 -10.07,30.451 0,1.785 0.092,3.548 0.271,5.287 0.868,8.401 -4.888,16.032 -13.255,17.181 l -0.649,0.089 c -12.551,1.725 -25.087,-2.258 -34.747,-10.454 -10.202,-8.657 -23.851,-13.373 -38.599,-11.805 -23.6,2.509 -42.078,20.757 -45.043,44.304 -2.096,16.646 4.198,31.541 14.478,42.442 15.722,16.671 12.417,42.417 13.949,46.682 l 73.044,-0.211 58.129,15.296 16.627,-2.703 c 3.133,-0.51 5.806,-2.572 7.087,-5.476 L -53.965,38.148 -4.504,8.028 C -1.712,6.326 0,3.283 0,0"
             style="fill:#3e5958;fill-opacity:1;fill-rule:nonzero;stroke:none"
             id="path7347" /></g><g
           id="g7349"
           transform="translate(504.5,328.7471)"><path
             d="m 0,0 v -11.121 c 0,-2.943 -1.381,-5.716 -3.724,-7.488 l -11.381,-8.629 c -1.222,-0.921 -2.643,-1.532 -4.155,-1.782 l -15.415,-2.532 c -23.384,-3.834 -41.513,-22.503 -44.676,-45.987 l -2.042,-15.205 c -0.94,-7.007 -3.774,-13.464 -8.018,-18.789 -3.023,-3.794 -6.767,-7.008 -11.051,-9.44 -4.975,6.677 -8.349,14.624 -9.559,23.264 0.44,1.621 0.77,3.272 1,4.965 l 2.052,15.205 c 3.154,23.484 21.282,42.153 44.666,45.987 l 15.426,2.532 c 1.511,0.25 2.932,0.861 4.154,1.782 l 11.381,8.629 c 2.342,1.772 3.724,4.545 3.724,7.488 V 0 c 0,3.283 -1.712,6.326 -4.515,8.028 l -49.45,30.12 -5.275,11.962 c -1.231,2.774 -3.714,4.786 -6.677,5.396 l 10.581,2.783 16.627,-2.703 c 3.133,-0.51 5.806,-2.572 7.087,-5.476 L -53.965,38.148 -4.504,8.028 C -1.712,6.326 0,3.283 0,0"
             style="fill:#374848;fill-opacity:1;fill-rule:nonzero;stroke:none"
             id="path7351" /></g><g
           id="g7353"
           transform="translate(504.5,328.7471)"><path
             d="m 0,0 v -11.121 c 0,-2.943 -1.381,-5.716 -3.724,-7.488 l -11.381,-8.629 c -1.222,-0.921 -2.643,-1.532 -4.155,-1.782 l -5.615,-0.92 c 3.964,29.799 -15.917,19.139 -15.917,38.028 0,8.038 6.777,11.822 13.895,13.574 L -4.504,8.028 C -1.712,6.326 0,3.283 0,0"
             style="fill:#feac8a;fill-opacity:1;fill-rule:nonzero;stroke:none"
             id="path7355" /></g><g
           id="g7357"
           transform="translate(479.625,298.8066)"><path
             d="m 0,0 c 3.964,29.8 -15.917,19.14 -15.917,38.028 0,8.038 6.777,11.823 13.895,13.575"
             style="fill:none;stroke:#000000;stroke-width:15;stroke-linecap:round;stroke-linejoin:round;stroke-miterlimit:10;stroke-dasharray:none;stroke-opacity:1"
             id="path7359" /></g><g
           id="g7361"
           transform="translate(42.229,120.0693)"><path
             d="m 0,0 v -46.091 h 36.679 l 4.698,87.652 34.477,26.182 c 14.497,11.009 33.744,13.506 50.57,6.561 h 10e-4 c 7.42,-3.064 15.457,-4.341 23.462,-3.731 l 114.302,6.715 c 15.951,0.937 29.706,-11.092 30.902,-27.025 l 7.239,-96.354 h 33.368 V 55.338 c 0,13.265 8.226,25.139 20.644,29.8 13.225,4.963 22.651,16.795 24.533,30.794 l 2.044,15.208 c 3.158,23.485 21.289,42.15 44.674,45.987 l 15.421,2.53 c 1.509,0.248 2.935,0.861 4.153,1.783 l 11.383,8.626 c 2.344,1.777 3.721,4.547 3.721,7.489 v 11.128 c 0,3.278 -1.709,6.319 -4.509,8.024 l -49.457,30.12 -5.275,11.958 c -1.283,2.91 -3.951,4.973 -7.09,5.483 l -16.628,2.701 -58.128,-15.299 -12.037,0.062"
             style="fill:none;stroke:#000000;stroke-width:15;stroke-linecap:round;stroke-linejoin:round;stroke-miterlimit:10;stroke-dasharray:none;stroke-opacity:1"
             id="path7363" /></g><g
           id="g7365"
           transform="translate(315.4497,371.9033)"><path
             d="m 0,0 -196.524,0.526 c -32.661,0.093 -59.185,-26.358 -59.185,-59.018 v -106.205 l -14.363,-22.77 c -2.057,-3.261 -3.149,-7.037 -3.149,-10.892 v -17.548"
             style="fill:none;stroke:#000000;stroke-width:15;stroke-linecap:round;stroke-linejoin:round;stroke-miterlimit:10;stroke-dasharray:none;stroke-opacity:1"
             id="path7367" /></g><g
           id="g7369"
           transform="translate(411.4551,393.9531)"><path
             d="m 0,0 c 5.399,-8.065 5.999,-17.941 2.46,-26.249 -1.424,-3.344 -4.727,-5.554 -8.361,-5.596 -9.032,-0.102 -17.932,4.21 -23.332,12.278 -5.4,8.066 -5.995,17.939 -2.457,26.249 1.424,3.344 4.726,5.555 8.36,5.598 C -14.301,12.385 -5.399,8.066 0,0"
             style="fill:#3e5958;fill-opacity:1;fill-rule:nonzero;stroke:none"
             id="path7371" /></g><g
           id="g7373"
           transform="translate(414.2007,368.4346)"><path
             d="m 0,0 c 3.202,8.151 2.497,17.687 -2.746,25.519 -5.399,8.066 -14.301,12.384 -23.329,12.28 -3.634,-0.043 -6.937,-2.254 -8.361,-5.599 -3.538,-8.309 -2.942,-18.182 2.457,-26.249 1.539,-2.298 3.367,-4.28 5.396,-5.951"
             style="fill:none;stroke:#000000;stroke-width:15;stroke-linecap:round;stroke-linejoin:round;stroke-miterlimit:10;stroke-dasharray:none;stroke-opacity:1"
             id="path7375" /></g><g
           id="g7377"
           transform="translate(71.873,351.1211)"><path
             d="m 0,0 c -20.856,-2.511 -37.02,-20.268 -37.02,-41.801 v -82.828"
             style="fill:none;stroke:#000000;stroke-width:15;stroke-linecap:round;stroke-linejoin:round;stroke-miterlimit:10;stroke-dasharray:none;stroke-opacity:1"
             id="path7379" /></g><g
           id="g7381"
           transform="translate(14.1494,205.5566)"><path
             d="m 0,0 v 0 c -3.672,0 -6.649,2.978 -6.649,6.649 v 25.573 c 0,11.372 9.219,20.591 20.591,20.591 3.672,0 6.649,-2.977 6.649,-6.649 V 20.592 C 20.591,9.219 11.372,0 0,0"
             style="fill:#3e5958;fill-opacity:1;fill-rule:nonzero;stroke:none"
             id="path7383" /></g><g
           id="g7385"
           transform="translate(14.1494,205.5566)"><path
             d="m 0,0 v 0 c -3.672,0 -6.649,2.978 -6.649,6.649 v 25.573 c 0,11.372 9.219,20.591 20.591,20.591 3.672,0 6.649,-2.977 6.649,-6.649 V 20.592 C 20.591,9.219 11.372,0 0,0 Z"
             style="fill:none;stroke:#000000;stroke-width:15;stroke-linecap:round;stroke-linejoin:round;stroke-miterlimit:10;stroke-dasharray:none;stroke-opacity:1"
             id="path7387" /></g><g
           id="g7389"
           transform="translate(404.0381,207.7744)"><path
             d="m 0,0 c -6.327,8.498 -10.07,19.039 -10.07,30.45 0,1.889 0.103,3.753 0.303,5.588 0.921,8.424 -5.087,15.925 -13.504,16.91 -0.009,10e-4 -0.016,0.002 -0.022,0.003 -12.361,2.068 -25.112,-1.602 -34.537,-9.862 -10.262,-8.995 -24.162,-13.938 -39.207,-12.342 -23.605,2.505 -42.089,20.755 -45.055,44.306 -2.096,16.645 4.197,31.541 14.478,42.442 15.722,16.671 12.417,42.417 13.948,46.682"
             style="fill:none;stroke:#000000;stroke-width:15;stroke-linecap:round;stroke-linejoin:round;stroke-miterlimit:10;stroke-dasharray:none;stroke-opacity:1"
             id="path7391" /></g><g
           id="g7393"
           transform="translate(164.5391,309.123)"><path
             d="m 0,0 c -1.866,0.567 -3.786,0.634 -5.659,0.268 -5.34,-1.041 -10.883,0.942 -14.046,5.367 -4.026,5.634 -9.897,9.183 -16.435,9.183 -12.142,0 -21.984,-12.24 -21.984,-27.339 0,-15.099 9.842,-27.338 21.984,-27.338 4.312,0 8.332,1.545 11.725,4.213 3.84,3.02 8.928,4.206 13.492,2.462 0.247,-0.093 0.499,-0.179 0.755,-0.257 7.425,-2.258 15.721,3.397 18.529,12.631 C 11.169,-11.574 7.426,-2.258 0,0"
             style="fill:#3e5958;fill-opacity:1;fill-rule:nonzero;stroke:none"
             id="path7395" /></g><g
           id="g7397"
           transform="translate(164.5391,309.123)"><path
             d="m 0,0 c -1.866,0.567 -3.786,0.634 -5.659,0.268 -5.34,-1.041 -10.883,0.942 -14.046,5.367 -4.026,5.634 -9.897,9.183 -16.435,9.183 -12.142,0 -21.984,-12.24 -21.984,-27.339 0,-15.099 9.842,-27.338 21.984,-27.338 4.312,0 8.332,1.545 11.725,4.213 3.84,3.02 8.928,4.206 13.492,2.462 0.247,-0.093 0.499,-0.179 0.755,-0.257 7.425,-2.258 15.721,3.397 18.529,12.631 C 11.169,-11.574 7.426,-2.258 0,0 Z"
             style="fill:none;stroke:#000000;stroke-width:15;stroke-linecap:round;stroke-linejoin:round;stroke-miterlimit:10;stroke-dasharray:none;stroke-opacity:1"
             id="path7399" /></g><g
           id="g7401"
           transform="translate(113.4805,84.7256)"><path
             d="m 0,0 v -16.619 c 0,-2.765 2.241,-5.005 5.005,-5.005 h 37.196 c 2.764,0 5.005,2.24 5.005,5.005 v 11.045 c 0,1.276 -0.488,2.505 -1.364,3.434 l -9.245,9.8 C 35.471,8.854 33.831,9.42 32.208,9.175 L 4.257,4.949 C 1.809,4.579 0,2.476 0,0"
             style="fill:#374848;fill-opacity:1;fill-rule:nonzero;stroke:none"
             id="path7403" /></g><g
           id="g7405"
           transform="translate(113.4805,84.7256)"><path
             d="m 0,0 v -16.619 c 0,-2.765 2.241,-5.005 5.005,-5.005 h 37.196 c 2.764,0 5.005,2.24 5.005,5.005 v 11.045 c 0,1.276 -0.488,2.505 -1.364,3.434 l -9.245,9.8 C 35.471,8.854 33.831,9.42 32.208,9.175 L 4.257,4.949 C 1.809,4.579 0,2.476 0,0 Z"
             style="fill:none;stroke:#000000;stroke-width:15;stroke-linecap:round;stroke-linejoin:round;stroke-miterlimit:10;stroke-dasharray:none;stroke-opacity:1"
             id="path7407" /></g><g
           id="g7409"
           transform="translate(342.9702,84.7256)"><path
             d="m 0,0 v -16.619 c 0,-2.765 2.241,-5.005 5.005,-5.005 h 37.196 c 2.764,0 5.005,2.24 5.005,5.005 v 11.045 c 0,1.276 -0.488,2.505 -1.364,3.434 l -9.245,9.8 C 35.471,8.854 33.831,9.42 32.208,9.175 L 4.257,4.949 C 1.809,4.579 0,2.476 0,0"
             style="fill:#3e5958;fill-opacity:1;fill-rule:nonzero;stroke:none"
             id="path7411" /></g><g
           id="g7413"
           transform="translate(342.9702,84.7256)"><path
             d="m 0,0 v -16.619 c 0,-2.765 2.241,-5.005 5.005,-5.005 h 37.196 c 2.764,0 5.005,2.24 5.005,5.005 v 11.045 c 0,1.276 -0.488,2.505 -1.364,3.434 l -9.245,9.8 C 35.471,8.854 33.831,9.42 32.208,9.175 L 4.257,4.949 C 1.809,4.579 0,2.476 0,0 Z"
             style="fill:none;stroke:#000000;stroke-width:15;stroke-linecap:round;stroke-linejoin:round;stroke-miterlimit:10;stroke-dasharray:none;stroke-opacity:1"
             id="path7415" /></g><g
           id="g7417"
           transform="translate(276.4531,84.7256)"><path
             d="m 0,0 v -16.619 c 0,-2.765 2.241,-5.005 5.005,-5.005 h 37.196 c 2.764,0 5.005,2.24 5.005,5.005 v 11.045 c 0,1.276 -0.488,2.505 -1.364,3.434 l -9.244,9.8 c -1.126,1.194 -2.766,1.76 -4.39,1.515 L 4.257,4.949 C 1.81,4.579 0,2.476 0,0"
             style="fill:#374848;fill-opacity:1;fill-rule:nonzero;stroke:none"
             id="path7419" /></g><g
           id="g7421"
           transform="translate(276.4531,84.7256)"><path
             d="m 0,0 v -16.619 c 0,-2.765 2.241,-5.005 5.005,-5.005 h 37.196 c 2.764,0 5.005,2.24 5.005,5.005 v 11.045 c 0,1.276 -0.488,2.505 -1.364,3.434 l -9.244,9.8 c -1.126,1.194 -2.766,1.76 -4.39,1.515 L 4.257,4.949 C 1.81,4.579 0,2.476 0,0 Z"
             style="fill:none;stroke:#000000;stroke-width:15;stroke-linecap:round;stroke-linejoin:round;stroke-miterlimit:10;stroke-dasharray:none;stroke-opacity:1"
             id="path7423" /></g><g
           id="g7425"
           transform="translate(42.229,84.7256)"><path
             d="m 0,0 v -16.619 c 0,-2.765 2.241,-5.005 5.005,-5.005 h 37.196 c 2.764,0 5.005,2.24 5.005,5.005 v 11.045 c 0,1.276 -0.488,2.505 -1.364,3.434 l -9.244,9.8 c -1.127,1.194 -2.766,1.76 -4.39,1.515 L 4.257,4.949 C 1.81,4.579 0,2.476 0,0"
             style="fill:#3e5958;fill-opacity:1;fill-rule:nonzero;stroke:none"
             id="path7427" /></g><g
           id="g7429"
           transform="translate(42.229,84.7256)"><path
             d="m 0,0 v -16.619 c 0,-2.765 2.241,-5.005 5.005,-5.005 h 37.196 c 2.764,0 5.005,2.24 5.005,5.005 v 11.045 c 0,1.276 -0.488,2.505 -1.364,3.434 l -9.244,9.8 c -1.127,1.194 -2.766,1.76 -4.39,1.515 L 4.257,4.949 C 1.81,4.579 0,2.476 0,0 Z"
             style="fill:none;stroke:#000000;stroke-width:15;stroke-linecap:round;stroke-linejoin:round;stroke-miterlimit:10;stroke-dasharray:none;stroke-opacity:1"
             id="path7431" /></g><g
           id="g7433"
           transform="translate(118.0825,187.8125)"><path
             d="m 0,0 17.711,12.557 c 10.821,7.672 17.894,19.562 19.471,32.734 l 0.714,5.969"
             style="fill:none;stroke:#000000;stroke-width:15;stroke-linecap:round;stroke-linejoin:round;stroke-miterlimit:10;stroke-dasharray:none;stroke-opacity:1"
             id="path7435" /></g><g
           id="g7437"
           transform="translate(217.8354,401.6826)"><path
             d="m 0,0 c 10.802,10.801 10.802,28.313 0,39.115 -10.801,10.802 -28.314,10.802 -39.115,0 l -8.769,-8.769 -8.77,8.769 c -8.605,8.606 -23.93,10.123 -34.056,3.372 L -91.622,41.88 C -106.811,31.754 -108.677,12.908 -95.769,0 l 40.813,-40.813 c 3.906,-3.906 10.237,-3.906 14.143,0 z"
             style="fill:#fe6a30;fill-opacity:1;fill-rule:nonzero;stroke:none"
             id="path7439" /></g><g
           id="g7441"
           transform="translate(217.8398,401.6777)"><path
             d="m 0,0 -40.82,-40.81 c -3.9,-3.9 -10.23,-3.9 -14.14,0 l -6.56,6.56 38.43,38.42 c 10.8,10.801 10.8,28.32 0,39.12 -1.12,1.12 -2.32,2.13 -3.57,3 2.33,0.62 4.71,0.931 7.1,0.931 7.08,0 14.16,-2.7 19.56,-8.101 C 10.8,28.32 10.8,10.811 0,0"
             style="fill:#fe5426;fill-opacity:1;fill-rule:nonzero;stroke:none"
             id="path7443" /></g><g
           id="g7445"
           transform="translate(217.8354,401.6826)"><path
             d="m 0,0 c 10.802,10.801 10.802,28.313 0,39.115 -10.801,10.802 -28.314,10.802 -39.115,0 l -8.769,-8.769 -8.77,8.769 c -8.605,8.606 -23.93,10.123 -34.056,3.372 L -91.622,41.88 C -106.811,31.754 -108.677,12.908 -95.769,0 l 40.813,-40.813 c 3.906,-3.906 10.237,-3.906 14.143,0 z"
             style="fill:none;stroke:#000000;stroke-width:15;stroke-linecap:round;stroke-linejoin:round;stroke-miterlimit:10;stroke-dasharray:none;stroke-opacity:1"
             id="path7447" /></g></g></g></g></svg>
