<svg id="Layer_1" enable-background="new 0 0 473.188 466.417" height="512" viewBox="0 0 473.188 466.417" width="512" xmlns="http://www.w3.org/2000/svg"><g><path d="m436.3 45.493c-18.721-20.146-44.574-36.063-72.797-44.819-1.466-.454-2.964-.674-4.443-.674-4.792 0-9.407 2.302-12.269 6.369-3.745 5.323-3.631 12.454.284 17.654 13.553 18.001 22.476 33.217 26.521 45.226 2.552 7.574 3.028 13.606 1.342 16.987-2.423 4.857-12.031 7.757-25.7 7.757-10.468 0-19.402-1.727-19.489-1.744-.979-.196-1.964-.291-2.94-.291-4.49 0-8.808 2.02-11.688 5.599-13.194 16.404-14.312 31.575-12.925 41.413 3.307 23.46 22.758 37.763 24.965 39.316 1.634 1.149 3.479 1.961 5.431 2.388.768.168 19.068 4.113 41.554 4.113 22.79 0 41.835-3.993 56.605-11.868 21.491-11.458 33.556-30.98 34.89-56.454 1.258-24.052-9.161-49.257-29.341-70.972z" fill="#5e0434"/><path d="m146.38 91.958c-.977 0-1.96.095-2.94.291-.064.013-9.006 1.744-19.489 1.744-13.67 0-23.277-2.9-25.701-7.757-1.687-3.381-1.21-9.414 1.341-16.987 4.045-12.008 12.969-27.225 26.521-45.226 3.915-5.2 4.03-12.331.284-17.654-2.861-4.067-7.477-6.369-12.268-6.369-1.48 0-2.976.219-4.443.674-28.223 8.756-54.076 24.673-72.797 44.819-20.179 21.715-30.599 46.92-29.339 70.972 1.333 25.474 13.398 44.995 34.889 56.454 14.77 7.875 33.815 11.868 56.605 11.868 22.485 0 40.786-3.945 41.554-4.113 1.951-.427 3.797-1.239 5.43-2.388 2.208-1.554 21.659-15.856 24.965-39.316 1.387-9.837.27-25.008-12.925-41.413-2.879-3.579-7.197-5.599-11.687-5.599z" fill="#5e0434"/><path d="m326.809 106.958s119.459 23.879 32.25-91.958c52.344 16.239 93.797 58.742 91.602 100.68-3.906 74.595-114.865 50.339-114.865 50.339s-36.07-25.39-8.987-59.061z" fill="#fbbba1"/><path d="m146.379 106.958s-119.459 23.879-32.25-91.958c-52.344 16.24-93.797 58.743-91.601 100.681 3.906 74.595 114.865 50.339 114.865 50.339s36.069-25.391 8.986-59.062z" fill="#fbbba1"/><path d="m470.624 179.608c-.343-.507-8.538-12.574-21.815-24.846-18.772-17.35-38.089-26.648-57.414-27.635-2.173-.112-4.374-.168-6.537-.168-19.818 0-38.554 4.739-52.756 13.345-16.48 9.987-25.783 24.29-26.194 40.274-.425 16.602 8.775 32.152 25.906 43.787 14.998 10.187 34.844 16.39 55.881 17.467 1.123.058 2.265.087 3.395.087 43.567 0 77.504-42.875 78.927-44.7 3.992-5.119 4.238-12.228.607-17.611z" fill="#5e0434"/><path d="m141.085 140.305c-14.203-8.606-32.938-13.346-52.755-13.346-2.164 0-4.365.057-6.542.168-19.32.987-38.637 10.285-57.409 27.635-13.278 12.272-21.473 24.338-21.815 24.846-3.631 5.384-3.386 12.492.608 17.612 1.423 1.825 35.363 44.699 78.927 44.699 1.129 0 2.271-.029 3.394-.087 21.038-1.077 40.884-7.281 55.882-17.467 17.131-11.635 26.331-27.185 25.906-43.786-.412-15.985-9.714-30.287-26.196-40.274z" fill="#5e0434"/><path d="m390.629 142.107c37.916 1.937 67.559 45.888 67.559 45.888s-31.813 40.793-69.727 38.856c-37.909-1.941-68.158-22.483-67.559-45.888.602-23.407 31.827-40.803 69.727-38.856z" fill="#ef8d44"/><path d="m381.245 168.625c20.906 1.068 47.252 25.303 47.252 25.303s-27.542 22.494-48.448 21.425c-20.903-1.07-37.582-12.397-37.252-25.303.332-12.907 17.549-22.499 38.448-21.425z" fill="#fbbba1"/><path d="m82.558 142.107c-37.916 1.937-67.558 45.889-67.558 45.889s31.813 40.793 69.727 38.856c37.909-1.941 68.158-22.483 67.559-45.888-.603-23.408-31.827-40.804-69.728-38.857z" fill="#ef8d44"/><path d="m91.943 168.625c-20.907 1.068-47.252 25.303-47.252 25.303s27.542 22.494 48.448 21.425c20.903-1.07 37.583-12.397 37.252-25.303-.332-12.907-17.549-22.499-38.448-21.425z" fill="#fbbba1"/><path d="m433.174 301.484-.008-.058c-2.036-15.234-11.768-28.019-25.217-35.056 2.118-15.7-.042-32.899-6.568-51.207-.072-.203-.148-.404-.229-.603-8.631-23.89-22.447-43.415-28.689-51.536-.659-7.083-2.573-20.096-8.114-33.17-11.517-27.175-33.31-42.142-61.362-42.142h-132.784c-28.053 0-49.846 14.967-61.363 42.142-5.54 13.072-7.454 26.084-8.113 33.168-5.809 7.553-18.172 24.965-26.809 46.556-6.972 17.43-10.117 34.068-9.348 49.449 1.001 20.023 8.512 37.627 22.328 52.333l7.765 9.344c.043.321.089.641.135.959 2.39 16.305 9.016 32.953 19.711 49.543.629 13.207 4.571 37.788 23.423 58.933 21.463 24.072 54.659 36.278 98.663 36.278s77.199-12.206 98.662-36.278c18.853-21.144 22.794-45.726 23.423-58.933 1.637-2.54 3.167-5.081 4.612-7.621 3.036.295 6.079.454 9.119.454 6.499 0 12.802-.718 18.734-2.133 13.434-3.195 25.073-11.013 32.768-22.009 7.748-11.075 11.037-24.717 9.261-38.413z" fill="#5e0434"/><path d="m387.252 220.202-.007.017c-10.345-29.031-29.438-51.516-29.438-51.516s-1.112-65.99-54.822-65.99h-132.782c-53.71 0-54.822 65.99-54.822 65.99s-67.679 79.622-17.251 132.703l10.954 13.182c.136 1.625.315 3.258.556 4.899 2.24 15.286 8.885 31.095 19.768 47.043-.066 10.229 1.957 33.701 19.721 53.626 18.496 20.743 47.924 31.261 87.467 31.261s68.971-10.518 87.467-31.261c17.765-19.925 19.787-43.396 19.721-53.626 10.882-15.948 17.525-31.755 19.766-47.042.24-1.642.426-3.276.559-4.902l10.953-13.18c23.635-24.883 21.32-55.595 12.19-81.204z" fill="#ef8d44"/><path d="m291.468 260.432c-21.124 10.023-35.982 21.399-54.874 21.555-18.892-.155-33.75-11.531-54.875-21.555-33.12-15.716-91.803 30.016-39.585 102.375 0 0-8.743 76.052 94.459 76.052s94.459-76.052 94.459-76.052c52.219-72.359-6.464-118.091-39.584-102.375z" fill="#fbbba1"/><g fill="#5e0434"><path d="m284.059 152.272c-17.51-1.012-27.327 14.271-31.478 21.052-2.834 6.882 3.139 9.412 6.681 7.692 9.312-6.882 20.748-19.837 49.391 2.833 5.566 2.429 11.74-1.619 6.882-9.918-7.288-10.121-17.509-20.849-31.476-21.659z"/><path d="m155.711 173.931c-4.858 8.299 1.316 12.348 6.882 9.918 28.744-22.671 40.079-9.716 49.39-2.833 3.441 1.72 9.514-.81 6.68-7.692-4.149-6.781-14.068-22.064-31.476-21.052-13.967.81-24.189 11.538-31.476 21.659z"/><path d="m308.844 296.181c6.939 9.824 4.912 23.195-4.528 29.864-9.439 6.67-28.588 9.981-35.527.158-6.941-9.823.955-29.063 10.395-35.73 9.441-6.67 22.72-4.115 29.66 5.708z"/><path d="m164.344 296.181c-6.94 9.824-4.913 23.195 4.528 29.864 9.439 6.67 28.587 9.981 35.527.158 6.941-9.823-.955-29.063-10.395-35.73-9.441-6.67-22.72-4.115-29.66 5.708z"/></g><path d="m342.604 246.151c15.797.57 28.396 6.627 28.146 13.522s-13.254 12.021-29.05 11.45c-15.794-.571-28.396-6.625-28.146-13.522s13.259-12.024 29.05-11.45z" fill="#ff4076"/><path d="m159.471 259.279c.602 6.875-11.676 13.563-27.421 14.937-15.745 1.375-28.994-3.085-29.596-9.956-.599-6.872 11.678-13.561 27.421-14.938 15.746-1.376 28.995 3.082 29.596 9.957z" fill="#ff4076"/><path d="m285.06 61.009c-5.736-7.987-14.763-12.378-25.427-12.378h-.001c-.82 0-1.661.026-2.498.078-6.873.424-19.057 3.272-45.425 23.026-13.295 9.96-24.101 19.646-24.554 20.053-3.069 2.758-4.964 10.637-4.964 10.637l23.701-.131s19.663 43.604 50.292 41.025c13.771-1.16 22.655-12.101 24.665-23.742.759-4.385.388-8.907-.923-13.122 12.605-13.392 14.714-32.068 5.134-45.446z" fill="#5e0434"/><path d="m197.18 102.946s42.435-38.127 60.875-39.265c8.281-.509 12.619 3.013 14.81 6.062 5.354 7.477 3.761 18.352-3.877 26.447-2.739 2.897-5.988 5.324-9.121 7.28l.706.43c3.385 2.195 6.46 7.542 5.493 13.125-.572 3.32-3.082 9.257-13.458 11.726-28.137 7.109-55.854-25.471-55.428-25.805z" fill="#ef8d44"/><path d="m264.036 71.937c1.969 3.41-4.036 10.563-13.413 15.976-9.376 5.414-18.573 7.038-20.542 3.628-1.968-3.41 4.037-10.562 13.413-15.976 9.377-5.413 18.575-7.038 20.542-3.628z" fill="#fbbba1"/><path d="m226.691 95.228c1.033 1.79-.316 4.503-3.015 6.061-2.698 1.558-5.723 1.37-6.756-.419s.316-4.503 3.014-6.061c2.699-1.559 5.723-1.371 6.757.419z" fill="#fbbba1"/><path d="m266.159 235.348c4.339 2.67 9.457 4.228 14.909 4.228 5.34 0 10.347-1.446 14.687-4.117 4.228-2.559 7.788-6.23 10.236-10.681 2.225-4.005.667-9.124-3.338-11.349-4.006-2.225-9.124-.667-11.35 3.338-1.001 1.781-2.447 3.338-4.228 4.451-1.78 1.112-3.783 1.669-6.008 1.669-2.226 0-4.34-.668-6.12-1.669-1.78-1.113-3.227-2.67-4.228-4.562-2.114-4.117-7.232-5.675-11.238-3.561-4.116 2.114-5.674 7.232-3.56 11.238 2.449 4.673 6.01 8.344 10.238 11.015z" fill="#5e0434"/><path d="m177.357 235.348c4.338 2.67 9.458 4.228 14.908 4.228 5.34 0 10.347-1.446 14.687-4.117 4.228-2.559 7.789-6.23 10.236-10.681 2.225-4.005.667-9.124-3.338-11.349-4.007-2.225-9.124-.667-11.349 3.338-1.001 1.781-2.448 3.338-4.228 4.451-1.782 1.112-3.783 1.669-6.008 1.669-2.226 0-4.338-.668-6.12-1.669-1.78-1.113-3.226-2.67-4.228-4.562-2.114-4.117-7.232-5.675-11.237-3.561-4.117 2.114-5.676 7.232-3.561 11.238 2.45 4.673 6.009 8.344 10.238 11.015z" fill="#5e0434"/><path d="m387.664 347.315c20.36-4.844 33.315-23.235 30.634-43.901-3.218-24.072-34.409-37.189-56.858-20.218-42.305 31.981-81.445 25.938-81.445 25.938s59.531 49.665 107.669 38.181z" fill="#47bdff"/><path d="m401.664 291.612c.982-5.618-7.052-9.562-17.645-9.62-10.634.239-20.107 4.476-21.104 10.192-.982 5.618 7.052 9.562 17.645 9.62 10.973-.494 20.303-5.154 21.104-10.192z" fill="#fff"/><path d="m406.641 298.664c2.79.388 4.737 2.964 4.35 5.754s-2.964 4.737-5.754 4.35c-2.789-.388-4.736-2.964-4.349-5.754s2.963-4.738 5.753-4.35z" fill="#fff"/><path d="m309.197 395.903c0 19.925-16.152 36.077-36.077 36.077-19.926 0-30.556-16.933-36.078-36.077-6.681-23.161-1.663-59.981 18.262-59.981s53.893 40.055 53.893 59.981z" fill="#5e0434"/></g></svg>