<svg id="Layer_1" enable-background="new 0 0 473.188 501.715" height="512" viewBox="0 0 473.188 501.715" width="512" xmlns="http://www.w3.org/2000/svg"><g><path d="m436.3 80.792c-18.721-20.146-44.574-36.063-72.797-44.818-1.466-.455-2.964-.674-4.443-.674-4.792 0-9.407 2.302-12.269 6.369-3.745 5.323-3.631 12.454.284 17.654 13.553 18.001 22.476 33.217 26.521 45.226 2.552 7.574 3.028 13.606 1.342 16.987-2.423 4.857-12.031 7.757-25.7 7.757-10.468 0-19.402-1.727-19.489-1.744-.979-.196-1.964-.291-2.94-.291-4.49 0-8.808 2.02-11.688 5.599-13.194 16.404-14.312 31.575-12.925 41.413 3.307 23.46 22.758 37.763 24.965 39.316 1.634 1.149 3.479 1.961 5.431 2.388.768.168 19.068 4.113 41.554 4.113 22.79 0 41.835-3.993 56.605-11.868 21.491-11.458 33.556-30.98 34.89-56.454 1.258-24.053-9.161-49.258-29.341-70.973z" fill="#5e0434"/><path d="m146.38 127.257c-.977 0-1.96.095-2.94.291-.064.013-9.006 1.744-19.489 1.744-13.67 0-23.277-2.9-25.701-7.757-1.687-3.381-1.21-9.414 1.341-16.987 4.045-12.008 12.969-27.225 26.521-45.226 3.915-5.2 4.03-12.331.284-17.654-2.861-4.067-7.478-6.369-12.269-6.369-1.48 0-2.976.219-4.443.674-28.223 8.756-54.076 24.672-72.797 44.818-20.179 21.715-30.599 46.92-29.339 70.972 1.333 25.474 13.398 44.995 34.889 56.454 14.77 7.875 33.815 11.868 56.605 11.868 22.485 0 40.786-3.945 41.554-4.113 1.951-.427 3.797-1.239 5.43-2.388 2.208-1.554 21.659-15.856 24.965-39.316 1.387-9.837.27-25.008-12.925-41.413-2.878-3.578-7.196-5.598-11.686-5.598z" fill="#5e0434"/><path d="m326.809 142.257s119.459 23.879 32.25-91.957c52.344 16.238 93.797 58.742 91.602 100.679-3.906 74.595-114.865 50.34-114.865 50.34s-36.07-25.391-8.987-59.062z" fill="#fbbba1"/><path d="m146.379 142.257s-119.459 23.879-32.25-91.957c-52.344 16.238-93.797 58.742-91.602 100.679 3.906 74.595 114.865 50.34 114.865 50.34s36.07-25.391 8.987-59.062z" fill="#fbbba1"/><path d="m470.624 214.907c-.343-.507-8.538-12.574-21.815-24.846-18.772-17.35-38.089-26.648-57.414-27.635-2.173-.112-4.374-.168-6.537-.168-19.818 0-38.554 4.739-52.756 13.345-16.48 9.987-25.783 24.29-26.194 40.274-.425 16.602 8.775 32.152 25.906 43.787 14.998 10.187 34.844 16.39 55.881 17.467 1.123.058 2.265.087 3.395.087 43.567 0 77.504-42.874 78.927-44.699 3.992-5.12 4.238-12.229.607-17.612z" fill="#5e0434"/><path d="m141.085 175.604c-14.203-8.606-32.938-13.346-52.755-13.346-2.164 0-4.365.057-6.542.168-19.32.987-38.637 10.285-57.409 27.635-13.277 12.272-21.473 24.339-21.815 24.846-3.631 5.384-3.386 12.492.608 17.612 1.423 1.825 35.363 44.699 78.927 44.699 1.129 0 2.271-.029 3.394-.087 21.038-1.077 40.884-7.28 55.882-17.467 17.131-11.635 26.331-27.185 25.906-43.786-.412-15.985-9.714-30.287-26.196-40.274z" fill="#5e0434"/><path d="m390.629 177.407c37.916 1.937 67.559 45.888 67.559 45.888s-31.813 40.794-69.727 38.856c-37.909-1.94-68.158-22.483-67.559-45.888.602-23.408 31.827-40.805 69.727-38.856z" fill="#ef8d44"/><path d="m381.245 203.924c20.906 1.068 47.252 25.303 47.252 25.303s-27.542 22.494-48.448 21.426c-20.903-1.07-37.582-12.397-37.252-25.303.332-12.908 17.549-22.501 38.448-21.426z" fill="#fbbba1"/><path d="m82.558 177.407c-37.916 1.937-67.558 45.887-67.558 45.887s31.813 40.794 69.727 38.856c37.909-1.94 68.158-22.483 67.559-45.888-.603-23.407-31.827-40.804-69.728-38.855z" fill="#ef8d44"/><path d="m91.943 203.924c-20.907 1.068-47.252 25.303-47.252 25.303s27.542 22.494 48.448 21.426c20.903-1.07 37.583-12.397 37.252-25.303-.332-12.908-17.549-22.501-38.448-21.426z" fill="#fbbba1"/><path d="m401.381 250.463c-.072-.203-.148-.404-.229-.603-8.631-23.89-22.447-43.415-28.689-51.536-.659-7.083-2.573-20.096-8.114-33.17-11.517-27.175-33.31-42.142-61.362-42.142h-132.784c-28.053 0-49.846 14.967-61.363 42.142-5.54 13.072-7.454 26.084-8.113 33.168-5.809 7.553-18.172 24.965-26.809 46.556-6.972 17.43-10.117 34.067-9.348 49.448 1.001 20.023 8.512 37.627 22.328 52.333l7.765 9.344c.043.321.089.641.135.959 2.39 16.305 9.016 32.953 19.711 49.543.629 13.207 4.571 37.788 23.423 58.933 21.463 24.072 54.659 36.278 98.663 36.278s77.199-12.206 98.662-36.278c18.853-21.144 22.794-45.726 23.423-58.933 10.694-16.59 17.32-33.238 19.71-49.543.046-.317.091-.637.135-.957l7.767-9.346c23.423-24.934 28.641-58.183 15.089-96.196z" fill="#5e0434"/><path d="m387.252 255.5-.007.017c-10.345-29.031-29.438-51.515-29.438-51.515s-1.112-65.991-54.822-65.991h-132.782c-53.71 0-54.822 65.991-54.822 65.991s-67.679 79.622-17.251 132.703l10.954 13.181c.136 1.626.315 3.259.556 4.899 2.24 15.287 8.885 31.095 19.768 47.043-.066 10.229 1.957 33.702 19.721 53.626 18.496 20.743 47.924 31.261 87.467 31.261s68.971-10.518 87.467-31.261c17.765-19.924 19.787-43.396 19.721-53.626 10.882-15.948 17.525-31.754 19.766-47.042.24-1.642.426-3.276.559-4.902l10.953-13.179c23.635-24.883 21.32-55.595 12.19-81.205z" fill="#ef8d44"/><path d="m291.468 295.731c-21.124 10.023-35.982 21.399-54.874 21.555-18.892-.155-33.75-11.531-54.875-21.555-33.12-15.716-91.803 30.017-39.585 102.375 0 0-8.743 76.053 94.459 76.053s94.459-76.053 94.459-76.053c52.219-72.359-6.464-118.091-39.584-102.375z" fill="#fbbba1"/><g fill="#5e0434"><path d="m335.294 370.307c.119-5.068-3.692-3.461-3.692-3.461-11.573 19.126-67.58 32.824-84.703-6.364-.521.009-1.864-22.159-9.871-22.159-8.008 0-9.35 22.168-9.872 22.159-17.123 39.188-73.129 25.49-84.702 6.364 0 0-3.812-1.607-3.692 3.461.296 12.577 29.058 29.092 41.793 31.905.578.13.327 88.133 85.872 55.341 85.544-32.792 26.497-55.211 27.075-55.341 12.734-2.813 41.496-19.328 41.792-31.905z"/><path d="m308.844 331.481c6.939 9.823 4.912 23.194-4.528 29.863-9.439 6.67-28.588 9.982-35.527.158-6.941-9.823.955-29.063 10.395-35.73 9.441-6.67 22.72-4.115 29.66 5.709z"/><path d="m164.344 331.481c-6.94 9.823-4.913 23.194 4.528 29.863 9.439 6.67 28.587 9.982 35.527.158 6.941-9.823-.955-29.063-10.395-35.73-9.441-6.67-22.72-4.115-29.66 5.709z"/></g><path d="m342.604 281.449c15.797.571 28.396 6.627 28.146 13.522s-13.254 12.021-29.05 11.451c-15.794-.572-28.396-6.626-28.146-13.522.25-6.898 13.259-12.025 29.05-11.451z" fill="#ff4076"/><path d="m159.471 294.577c.602 6.875-11.676 13.563-27.421 14.938-15.745 1.374-28.994-3.086-29.596-9.957-.599-6.872 11.678-13.56 27.421-14.937 15.746-1.376 28.995 3.081 29.596 9.956z" fill="#ff4076"/><path d="m285.06 96.308c-5.736-7.987-14.763-12.378-25.427-12.378h-.001c-.82 0-1.661.026-2.498.078-6.873.424-19.057 3.272-45.425 23.026-13.295 9.96-24.101 19.646-24.554 20.053-3.069 2.758-4.964 10.636-4.964 10.636l23.701-.131s19.663 43.604 50.292 41.025c13.771-1.16 22.655-12.101 24.665-23.742.759-4.385.388-8.907-.923-13.122 12.605-13.391 14.714-32.067 5.134-45.445z" fill="#5e0434"/><path d="m197.18 138.245s42.435-38.127 60.875-39.265c8.281-.509 12.619 3.013 14.81 6.062 5.354 7.477 3.761 18.352-3.877 26.448-2.739 2.897-5.988 5.324-9.121 7.28l.706.431c3.385 2.195 6.46 7.542 5.493 13.124-.572 3.32-3.082 9.257-13.458 11.726-28.137 7.108-55.854-25.473-55.428-25.806z" fill="#ef8d44"/><path d="m264.036 107.236c1.969 3.41-4.036 10.562-13.413 15.976-9.376 5.414-18.573 7.038-20.542 3.628-1.968-3.41 4.037-10.562 13.413-15.976 9.377-5.413 18.575-7.038 20.542-3.628z" fill="#fbbba1"/><path d="m226.691 130.527c1.033 1.79-.316 4.503-3.015 6.061s-5.723 1.37-6.756-.42.316-4.503 3.014-6.061c2.699-1.557 5.723-1.37 6.757.42z" fill="#fbbba1"/><path d="m175.631 75.285c12.507-7.829 28.438-16.362 46.59-24.581 21.333-9.715 42.492-17.6 60.706-22.934 9.107-2.667 17.544-4.694 24.782-5.964 7.239-1.269 13.415-1.909 17.737-1.806 2.097.05 3.796.221 4.969.511.521.144 1.042.287 1.301.424.131.003.259.137.259.137l.677-.901-.808.898.128.134.677-.901-.808.898c2.813 2.95 7.531 2.932 10.482.119 2.95-2.813 2.932-7.532.118-10.483-.384-.402-.898-.808-1.413-1.213-2.187-1.756-4.656-2.601-7.133-3.184s-5.221-.911-7.972-.976c-5.895-.141-12.859.611-20.757 1.996-11.849 2.208-25.83 5.938-41.022 10.951-15.195 5.144-31.467 11.44-48.028 18.911-18.682 8.468-35.144 17.251-48.317 25.588-3.459 2.146-4.485 6.708-2.339 10.167 2.149 3.329 6.712 4.354 10.171 2.209z" fill="#ff4076"/><path d="m347.976 97.736c.424-1.301.717-2.604.748-3.914.021-.917-.087-1.837-.199-2.626-.35-1.844-.967-3.431-1.719-4.891-1.507-2.788-3.415-5.193-5.848-7.61-4.227-4.164-9.763-8.359-16.475-12.712-10.198-6.534-23.146-13.265-37.929-19.908-14.784-6.643-31.539-13.071-48.967-18.729-6.635-2.124-13.01-4.111-19.26-5.832-3.905-1.142-8.025 1.25-9.167 5.155-1.534 3.896.861 7.885 4.766 9.026 5.988 1.715 12.235 3.568 18.607 5.686 27.702 9.048 53.265 19.879 71.894 30.153 9.316 5.071 16.93 10.102 22.072 14.288 2.57 2.158 4.492 4.039 5.637 5.508.334.421.595.766.807 1.058-.807.25-1.806.504-2.813.598-2.236.34-5.255.53-8.661.45-6.942-.166-15.962-1.167-26.398-3.25-4.045-.751-7.909 1.909-8.661 5.954-.751 4.045 1.909 7.91 5.954 8.661 10.96 2.096 20.632 3.243 28.753 3.437 3.406.082 6.422.022 9.313-.302 2.103-.212 4.207-.556 6.054-1.036 1.45-.359 2.772-.852 4.099-1.475 1.989-1.001 3.985-2.265 5.477-4.326.811-1.03 1.495-2.193 1.916-3.363z" fill="#5e0434"/><path d="m169.287 44.464c-7.888-4.513-14.335-8.991-18.573-12.631-2.184-1.887-3.718-3.497-4.604-4.828-.194-.255-.343-.481-.477-.689.726-.227 1.677-.454 2.866-.564 2.236-.34 5.255-.53 8.661-.449 2.62.062 5.499.262 8.636.599 4.055.358 7.664-2.57 8.153-6.622.359-4.055-2.57-7.663-6.622-8.152-3.399-.343-6.671-.552-9.684-.624-3.406-.081-6.422-.022-9.313.303-2.102.212-4.208.555-6.054 1.036-1.45.359-2.772.851-4.098 1.475-1.99 1.001-3.986 2.264-5.477 4.326-.811 1.029-1.494 2.192-1.915 3.362-.424 1.301-.717 2.604-.749 3.915-.022.917.087 1.837.199 2.626.225 1.578.846 3.035 1.466 4.491 1.123 2.386 2.776 4.522 4.694 6.534 2.81 3.082 6.409 6.05 10.661 9.167 4.251 3.116 9.157 6.247 14.715 9.525 3.49 2.049 8.106.848 10.155-2.642 2.054-3.624.85-8.109-2.64-10.158z" fill="#5e0434"/><path d="m319.047 24.567 5.019 3.92c.773.542 1.821.567 2.488.059l5.327-3.543c1.731-1.139 3.917.617 3.216 2.567l-2.242 6.106c-.284.911-.044 1.834.727 2.508l5.019 3.92c1.671 1.351.692 3.949-1.404 3.898l-6.415-.284c-.917-.021-1.847.48-2.13 1.391l-2.243 6.107c-.701 1.949-3.583 1.88-4.061-.097l-1.818-6.204c-.24-.923-1.011-1.597-2.059-1.622l-6.415-.284c-2.097-.05-2.816-2.819-1.086-3.958l5.327-3.543c.799-.505 1.085-1.547.842-2.339l-1.818-6.204c-.213-2.099 2.051-3.617 3.726-2.398z" fill="#ff4076"/><path d="m142.24 68.461 5.695 3.019c.776.412 1.828.305 2.498-.334l4.563-4.479c1.475-1.406 3.936-.168 3.624 1.921l-1.069 6.397c-.153.914.349 1.843 1.126 2.255l5.695 3.019c1.812.96 1.354 3.702-.621 4.048l-6.313.898c-.92.109-1.594.879-1.877 1.79l-1.07 6.397c-.312 2.09-3.075 2.548-4.077.558l-2.878-5.704c-.375-.795-1.279-1.341-2.199-1.232l-6.313.898c-2.105.343-3.356-2.177-1.877-3.714l4.563-4.479c.67-.639.826-1.684.452-2.479l-2.879-5.705c-.867-2.116 1.145-4.035 2.957-3.074z" fill="#ff4076"/><path d="m180.633 8.297 6.413.415c.917.022 1.846-.48 2.13-1.391l2.37-5.973c.833-1.946 3.581-1.75 4.055.358l1.556 6.197c.24.923 1.011 1.597 1.928 1.619l6.412.415c2.093.181 2.813 2.95.955 3.955l-5.455 3.409c-.798.505-1.213 1.413-.973 2.336l1.556 6.197c.477 1.978-1.918 3.493-3.459 2.146l-4.881-4.18c-.773-.542-1.688-.695-2.486-.19l-5.455 3.409c-1.731 1.139-3.914-.749-3.082-2.694l2.371-5.973c.415-.908.043-1.834-.596-2.505l-4.881-4.179c-1.684-.826-.571-3.552 1.522-3.371z" fill="#5e0434"/><path d="m301.007 44.584c-12.238 7.573-27.371 15.601-44.728 23.445-21.333 9.716-42.492 17.6-60.706 22.934-9.107 2.667-17.544 4.694-24.783 5.964s-13.415 1.909-17.737 1.806c-2.227-.053-4.055-.358-5.227-.648-3.908-1.011-8.028 1.382-9.039 5.29s1.382 8.028 5.29 9.039c2.604.717 5.48 1.048 8.624 1.123 5.895.141 12.859-.611 20.756-1.996 11.849-2.208 25.831-5.938 41.022-10.951 15.196-5.144 31.466-11.441 48.028-18.911 17.756-8.097 33.55-16.372 46.321-24.325 3.459-2.146 4.616-6.706 2.471-10.165-2.269-3.724-6.833-4.75-10.292-2.605z" fill="#ff4076"/><path d="m211.679 444.403s19.582 8.393 37.263 1.023c0 0 9.474 15.962 33.889 9.746 19.391-5.063 26.69-25.14 19.58-37.924-7.441-13.465-22.555-9.43-32.258-4.986l2.208 15.021s-7.026-11.463-16.538-11.349c-7.445-.096-35.643 14.974-44.144 28.469z" fill="#ff4076"/><path d="m295.306 214.482c15.712-.116 28.578 17.141 28.737 38.547.158 21.406-12.451 38.853-28.163 38.969-15.713.115-28.58-17.143-28.738-38.548s12.451-38.852 28.164-38.968z" fill="#5e0434"/><path d="m274.924 229.629c1.548-8.999 9.813-15.089 18.462-13.601 8.647 1.487 14.404 9.988 12.856 18.987-1.547 8.999-9.813 15.088-18.461 13.601-8.649-1.489-14.405-9.988-12.857-18.987z" fill="#fff"/><path d="m279.167 258.915c.532-3.097 3.381-5.191 6.36-4.679 2.979.513 4.965 3.439 4.433 6.535-.533 3.098-3.38 5.193-6.361 4.68-2.981-.512-4.965-3.439-4.432-6.536z" fill="#fff"/><path d="m297.721 175.776c-18.573-1.074-28.987 15.138-33.391 22.331-3.006 7.301 3.329 9.985 7.087 8.16 9.878-7.301 22.01-21.043 52.393 3.006 5.905 2.577 12.454-1.718 7.301-10.521-7.73-10.737-18.574-22.117-33.39-22.976z" fill="#5e0434"/><path d="m147.075 275.022c.158-21.406 13.024-38.664 28.737-38.548 15.712.116 28.322 17.563 28.164 38.968-.159 21.406-13.025 38.665-28.738 38.548-15.712-.117-28.322-17.563-28.163-38.968z" fill="#5e0434"/><path d="m173.306 270.656c1.547-8.999 9.814-15.089 18.462-13.601 8.648 1.486 14.404 9.987 12.856 18.986s-9.814 15.089-18.462 13.601c-8.647-1.487-14.403-9.988-12.856-18.986z" fill="#fff"/><path d="m177.55 299.943c.533-3.098 3.381-5.192 6.36-4.68 2.98.513 4.964 3.438 4.432 6.535-.532 3.096-3.38 5.191-6.36 4.679-2.981-.511-4.965-3.437-4.432-6.534z" fill="#fff"/><path d="m175.467 236.775c18.466 1.073 28.988-15.138 33.39-22.332 3.006-7.301-3.436-9.984-7.086-8.16-9.877 7.301-21.902 21.043-52.393-3.006-5.905-2.577-12.454 1.718-7.301 10.521 7.73 10.738 18.574 22.118 33.39 22.977z" fill="#5e0434"/></g></svg>